<svg width="340" height="164" viewBox="0 0 340 164" fill="none" xmlns="http://www.w3.org/2000/svg">
<g filter="url(#filter0_d_1173_428)">
<rect x="32" y="21" width="276" height="100" rx="9" fill="white"/>
<rect x="32.5" y="21.5" width="275" height="99" rx="8.5" stroke="#E6E6E6"/>
</g>
<path opacity="0.4" d="M112.438 67.1562V55.7812H115.617C116.549 55.7812 117.385 55.9948 118.125 56.4219C118.865 56.8438 119.44 57.4505 119.852 58.2422C120.268 59.0339 120.477 59.9349 120.477 60.9453V61.9922C120.477 63.0078 120.271 63.9089 119.859 64.6953C119.448 65.4818 118.867 66.0885 118.117 66.5156C117.372 66.9427 116.516 67.1562 115.547 67.1562H112.438ZM113.398 56.6016V66.3438H115.555C116.753 66.3438 117.714 65.9479 118.438 65.1562C119.161 64.3594 119.523 63.2839 119.523 61.9297V60.9297C119.523 59.6224 119.167 58.5755 118.453 57.7891C117.74 57.0026 116.799 56.6068 115.633 56.6016H113.398ZM122.188 62.8047C122.188 61.9922 122.344 61.2604 122.656 60.6094C122.974 59.9583 123.419 59.4531 123.992 59.0938C124.57 58.7292 125.224 58.5469 125.953 58.5469C127.078 58.5469 127.99 58.9427 128.688 59.7344C129.385 60.5208 129.734 61.5651 129.734 62.8672V63.0625C129.734 63.8802 129.576 64.6172 129.258 65.2734C128.945 65.9245 128.503 66.4271 127.93 66.7812C127.357 67.1354 126.703 67.3125 125.969 67.3125C124.849 67.3125 123.938 66.9193 123.234 66.1328C122.536 65.3411 122.188 64.2943 122.188 62.9922V62.8047ZM123.125 63.0625C123.125 64.0729 123.385 64.9036 123.906 65.5547C124.432 66.2005 125.12 66.5234 125.969 66.5234C126.812 66.5234 127.495 66.2005 128.016 65.5547C128.542 64.9036 128.805 64.0469 128.805 62.9844V62.8047C128.805 62.1589 128.685 61.5677 128.445 61.0312C128.206 60.4948 127.87 60.0807 127.438 59.7891C127.005 59.4922 126.51 59.3438 125.953 59.3438C125.12 59.3438 124.44 59.6719 123.914 60.3281C123.388 60.9792 123.125 61.8333 123.125 62.8906V63.0625ZM133.695 65.2109L133.836 65.9375L134.023 65.1719L136.055 58.7031H136.852L138.859 65.1172L139.078 66.0078L139.258 65.1875L140.992 58.7031H141.961L139.5 67.1562H138.703L136.531 60.4531L136.43 59.9922L136.328 60.4609L134.195 67.1562H133.398L130.945 58.7031H131.906L133.695 65.2109ZM144.625 58.7031L144.656 60.1484C144.974 59.6276 145.37 59.2318 145.844 58.9609C146.318 58.6849 146.841 58.5469 147.414 58.5469C148.32 58.5469 148.995 58.8021 149.438 59.3125C149.88 59.8229 150.104 60.5885 150.109 61.6094V67.1562H149.18V61.6016C149.174 60.8464 149.013 60.2839 148.695 59.9141C148.383 59.5443 147.88 59.3594 147.188 59.3594C146.609 59.3594 146.096 59.5417 145.648 59.9062C145.206 60.2656 144.878 60.7526 144.664 61.3672V67.1562H143.734V58.7031H144.625ZM153.578 67.1562H152.641V55.1562H153.578V67.1562ZM155.609 62.8047C155.609 61.9922 155.766 61.2604 156.078 60.6094C156.396 59.9583 156.841 59.4531 157.414 59.0938C157.992 58.7292 158.646 58.5469 159.375 58.5469C160.5 58.5469 161.411 58.9427 162.109 59.7344C162.807 60.5208 163.156 61.5651 163.156 62.8672V63.0625C163.156 63.8802 162.997 64.6172 162.68 65.2734C162.367 65.9245 161.924 66.4271 161.352 66.7812C160.779 67.1354 160.125 67.3125 159.391 67.3125C158.271 67.3125 157.359 66.9193 156.656 66.1328C155.958 65.3411 155.609 64.2943 155.609 62.9922V62.8047ZM156.547 63.0625C156.547 64.0729 156.807 64.9036 157.328 65.5547C157.854 66.2005 158.542 66.5234 159.391 66.5234C160.234 66.5234 160.917 66.2005 161.438 65.5547C161.964 64.9036 162.227 64.0469 162.227 62.9844V62.8047C162.227 62.1589 162.107 61.5677 161.867 61.0312C161.628 60.4948 161.292 60.0807 160.859 59.7891C160.427 59.4922 159.932 59.3438 159.375 59.3438C158.542 59.3438 157.862 59.6719 157.336 60.3281C156.81 60.9792 156.547 61.8333 156.547 62.8906V63.0625ZM170.43 67.1562C170.336 66.8906 170.276 66.4974 170.25 65.9766C169.922 66.4036 169.503 66.7344 168.992 66.9688C168.487 67.1979 167.951 67.3125 167.383 67.3125C166.57 67.3125 165.911 67.0859 165.406 66.6328C164.906 66.1797 164.656 65.6068 164.656 64.9141C164.656 64.0911 164.997 63.4401 165.68 62.9609C166.367 62.4818 167.323 62.2422 168.547 62.2422H170.242V61.2812C170.242 60.6771 170.055 60.2031 169.68 59.8594C169.31 59.5104 168.768 59.3359 168.055 59.3359C167.404 59.3359 166.865 59.5026 166.438 59.8359C166.01 60.1693 165.797 60.5703 165.797 61.0391L164.859 61.0312C164.859 60.3594 165.172 59.7786 165.797 59.2891C166.422 58.7943 167.19 58.5469 168.102 58.5469C169.044 58.5469 169.786 58.7839 170.328 59.2578C170.875 59.7266 171.156 60.3828 171.172 61.2266V65.2266C171.172 66.0443 171.258 66.6562 171.43 67.0625V67.1562H170.43ZM167.492 66.4844C168.117 66.4844 168.674 66.3333 169.164 66.0312C169.659 65.7292 170.018 65.3255 170.242 64.8203V62.9609H168.57C167.638 62.9714 166.909 63.1432 166.383 63.4766C165.857 63.8047 165.594 64.2578 165.594 64.8359C165.594 65.3099 165.768 65.7031 166.117 66.0156C166.471 66.3281 166.93 66.4844 167.492 66.4844ZM173.297 62.8516C173.297 61.5391 173.589 60.4948 174.172 59.7188C174.76 58.9375 175.557 58.5469 176.562 58.5469C177.703 58.5469 178.573 58.9974 179.172 59.8984V55.1562H180.102V67.1562H179.227L179.188 66.0312C178.589 66.8854 177.708 67.3125 176.547 67.3125C175.573 67.3125 174.786 66.9219 174.188 66.1406C173.594 65.3542 173.297 64.2943 173.297 62.9609V62.8516ZM174.242 63.0156C174.242 64.0938 174.458 64.9453 174.891 65.5703C175.323 66.1901 175.932 66.5 176.719 66.5C177.87 66.5 178.688 65.9922 179.172 64.9766V61.0078C178.688 59.9089 177.875 59.3594 176.734 59.3594C175.948 59.3594 175.336 59.6693 174.898 60.2891C174.461 60.9036 174.242 61.8125 174.242 63.0156ZM185.938 62.8047C185.938 61.9922 186.094 61.2604 186.406 60.6094C186.724 59.9583 187.169 59.4531 187.742 59.0938C188.32 58.7292 188.974 58.5469 189.703 58.5469C190.828 58.5469 191.74 58.9427 192.438 59.7344C193.135 60.5208 193.484 61.5651 193.484 62.8672V63.0625C193.484 63.8802 193.326 64.6172 193.008 65.2734C192.695 65.9245 192.253 66.4271 191.68 66.7812C191.107 67.1354 190.453 67.3125 189.719 67.3125C188.599 67.3125 187.688 66.9193 186.984 66.1328C186.286 65.3411 185.938 64.2943 185.938 62.9922V62.8047ZM186.875 63.0625C186.875 64.0729 187.135 64.9036 187.656 65.5547C188.182 66.2005 188.87 66.5234 189.719 66.5234C190.562 66.5234 191.245 66.2005 191.766 65.5547C192.292 64.9036 192.555 64.0469 192.555 62.9844V62.8047C192.555 62.1589 192.435 61.5677 192.195 61.0312C191.956 60.4948 191.62 60.0807 191.188 59.7891C190.755 59.4922 190.26 59.3438 189.703 59.3438C188.87 59.3438 188.19 59.6719 187.664 60.3281C187.138 60.9792 186.875 61.8333 186.875 62.8906V63.0625ZM196.312 58.7031L196.344 60.1484C196.661 59.6276 197.057 59.2318 197.531 58.9609C198.005 58.6849 198.529 58.5469 199.102 58.5469C200.008 58.5469 200.682 58.8021 201.125 59.3125C201.568 59.8229 201.792 60.5885 201.797 61.6094V67.1562H200.867V61.6016C200.862 60.8464 200.701 60.2839 200.383 59.9141C200.07 59.5443 199.568 59.3594 198.875 59.3594C198.297 59.3594 197.784 59.5417 197.336 59.9062C196.893 60.2656 196.565 60.7526 196.352 61.3672V67.1562H195.422V58.7031H196.312ZM209.562 56.5391V58.7031H211.312V59.4688H209.562V65.1016C209.562 65.5703 209.646 65.9193 209.812 66.1484C209.984 66.3776 210.268 66.4922 210.664 66.4922C210.82 66.4922 211.073 66.4661 211.422 66.4141L211.461 67.1797C211.216 67.2682 210.883 67.3125 210.461 67.3125C209.82 67.3125 209.354 67.1276 209.062 66.7578C208.771 66.3828 208.625 65.8333 208.625 65.1094V59.4688H207.07V58.7031H208.625V56.5391H209.562ZM214.18 60.1328C214.487 59.6276 214.88 59.237 215.359 58.9609C215.839 58.6849 216.362 58.5469 216.93 58.5469C217.836 58.5469 218.51 58.8021 218.953 59.3125C219.396 59.8229 219.62 60.5885 219.625 61.6094V67.1562H218.695V61.6016C218.69 60.8464 218.529 60.2839 218.211 59.9141C217.898 59.5443 217.396 59.3594 216.703 59.3594C216.125 59.3594 215.612 59.5417 215.164 59.9062C214.721 60.2656 214.393 60.7526 214.18 61.3672V67.1562H213.25V55.1562H214.18V60.1328ZM225.305 67.3125C224.586 67.3125 223.935 67.1354 223.352 66.7812C222.773 66.4271 222.323 65.9349 222 65.3047C221.677 64.6693 221.516 63.9583 221.516 63.1719V62.8359C221.516 62.0234 221.672 61.2917 221.984 60.6406C222.302 59.9896 222.742 59.4792 223.305 59.1094C223.867 58.7344 224.477 58.5469 225.133 58.5469C226.159 58.5469 226.971 58.8984 227.57 59.6016C228.174 60.2995 228.477 61.2552 228.477 62.4688V62.9922H222.445V63.1719C222.445 64.1302 222.719 64.9297 223.266 65.5703C223.818 66.2057 224.51 66.5234 225.344 66.5234C225.844 66.5234 226.284 66.4323 226.664 66.25C227.049 66.0677 227.398 65.776 227.711 65.375L228.297 65.8203C227.609 66.8151 226.612 67.3125 225.305 67.3125ZM225.133 59.3438C224.43 59.3438 223.836 59.6016 223.352 60.1172C222.872 60.6328 222.581 61.3255 222.477 62.1953H227.547V62.0938C227.521 61.2812 227.289 60.6198 226.852 60.1094C226.414 59.599 225.841 59.3438 225.133 59.3438Z" fill="black"/>
<path d="M119.367 86.418H114.744L113.865 89.0547H111.062L115.825 76.2578H118.269L123.059 89.0547H120.255L119.367 86.418ZM115.456 84.2822H118.655L117.047 79.4922L115.456 84.2822ZM132.226 84.3877C132.226 85.8525 131.892 87.0273 131.224 87.9121C130.562 88.791 129.665 89.2305 128.534 89.2305C127.573 89.2305 126.797 88.8965 126.205 88.2285V92.7109H123.665V79.5449H126.021L126.108 80.4766C126.724 79.7383 127.526 79.3691 128.517 79.3691C129.688 79.3691 130.6 79.8027 131.25 80.6699C131.9 81.5371 132.226 82.7324 132.226 84.2559V84.3877ZM129.686 84.2031C129.686 83.3184 129.527 82.6357 129.211 82.1553C128.9 81.6748 128.446 81.4346 127.849 81.4346C127.052 81.4346 126.504 81.7393 126.205 82.3486V86.2422C126.516 86.8691 127.069 87.1826 127.866 87.1826C129.079 87.1826 129.686 86.1895 129.686 84.2031ZM142.368 84.3877C142.368 85.8525 142.034 87.0273 141.366 87.9121C140.704 88.791 139.808 89.2305 138.677 89.2305C137.716 89.2305 136.939 88.8965 136.348 88.2285V92.7109H133.808V79.5449H136.163L136.251 80.4766C136.866 79.7383 137.669 79.3691 138.659 79.3691C139.831 79.3691 140.742 79.8027 141.393 80.6699C142.043 81.5371 142.368 82.7324 142.368 84.2559V84.3877ZM139.828 84.2031C139.828 83.3184 139.67 82.6357 139.354 82.1553C139.043 81.6748 138.589 81.4346 137.991 81.4346C137.194 81.4346 136.646 81.7393 136.348 82.3486V86.2422C136.658 86.8691 137.212 87.1826 138.009 87.1826C139.222 87.1826 139.828 86.1895 139.828 84.2031ZM146.631 89.0547H144.082V75.5547H146.631V89.0547ZM153.108 89.2305C151.714 89.2305 150.577 88.8027 149.698 87.9473C148.825 87.0918 148.389 85.9521 148.389 84.5283V84.2822C148.389 83.3271 148.573 82.4746 148.942 81.7246C149.312 80.9688 149.833 80.3887 150.507 79.9844C151.187 79.5742 151.96 79.3691 152.827 79.3691C154.128 79.3691 155.15 79.7793 155.895 80.5996C156.645 81.4199 157.02 82.583 157.02 84.0889V85.126H150.964C151.046 85.7471 151.292 86.2451 151.702 86.6201C152.118 86.9951 152.643 87.1826 153.275 87.1826C154.254 87.1826 155.019 86.8281 155.569 86.1191L156.817 87.5166C156.437 88.0557 155.921 88.4775 155.271 88.7822C154.62 89.0811 153.899 89.2305 153.108 89.2305ZM152.818 81.4258C152.314 81.4258 151.904 81.5957 151.588 81.9355C151.277 82.2754 151.078 82.7617 150.99 83.3945H154.523V83.1924C154.512 82.6299 154.359 82.1963 154.066 81.8916C153.773 81.5811 153.357 81.4258 152.818 81.4258ZM169.755 85.6973C169.755 85.1992 169.579 84.8184 169.228 84.5547C168.876 84.2852 168.243 84.0039 167.329 83.7109C166.415 83.4121 165.691 83.1191 165.158 82.832C163.705 82.0469 162.979 80.9893 162.979 79.6592C162.979 78.9678 163.172 78.3525 163.559 77.8135C163.951 77.2686 164.511 76.8438 165.237 76.5391C165.97 76.2344 166.79 76.082 167.698 76.082C168.612 76.082 169.427 76.249 170.142 76.583C170.856 76.9111 171.41 77.377 171.803 77.9805C172.201 78.584 172.4 79.2695 172.4 80.0371H169.764C169.764 79.4512 169.579 78.9971 169.21 78.6748C168.841 78.3467 168.322 78.1826 167.654 78.1826C167.01 78.1826 166.509 78.3203 166.151 78.5957C165.794 78.8652 165.615 79.2227 165.615 79.668C165.615 80.084 165.823 80.4326 166.239 80.7139C166.661 80.9951 167.279 81.2588 168.094 81.5049C169.594 81.9561 170.687 82.5156 171.372 83.1836C172.058 83.8516 172.4 84.6836 172.4 85.6797C172.4 86.7871 171.981 87.6572 171.144 88.29C170.306 88.917 169.178 89.2305 167.76 89.2305C166.775 89.2305 165.879 89.0518 165.07 88.6943C164.262 88.3311 163.644 87.8359 163.216 87.209C162.794 86.582 162.583 85.8555 162.583 85.0293H165.229C165.229 86.4414 166.072 87.1475 167.76 87.1475C168.387 87.1475 168.876 87.0215 169.228 86.7695C169.579 86.5117 169.755 86.1543 169.755 85.6973ZM177.067 77.207V79.5449H178.693V81.4082H177.067V86.1543C177.067 86.5059 177.135 86.7578 177.27 86.9102C177.404 87.0625 177.662 87.1387 178.043 87.1387C178.324 87.1387 178.573 87.1182 178.79 87.0771V89.002C178.292 89.1543 177.779 89.2305 177.252 89.2305C175.471 89.2305 174.562 88.3311 174.527 86.5322V81.4082H173.139V79.5449H174.527V77.207H177.067ZM179.449 84.2119C179.449 83.2686 179.631 82.4277 179.994 81.6895C180.357 80.9512 180.879 80.3799 181.559 79.9756C182.244 79.5713 183.038 79.3691 183.94 79.3691C185.224 79.3691 186.27 79.7617 187.078 80.5469C187.893 81.332 188.347 82.3984 188.44 83.7461L188.458 84.3965C188.458 85.8555 188.051 87.0273 187.236 87.9121C186.422 88.791 185.329 89.2305 183.958 89.2305C182.587 89.2305 181.491 88.791 180.671 87.9121C179.856 87.0332 179.449 85.8379 179.449 84.3262V84.2119ZM181.989 84.3965C181.989 85.2988 182.159 85.9902 182.499 86.4707C182.839 86.9453 183.325 87.1826 183.958 87.1826C184.573 87.1826 185.054 86.9482 185.399 86.4795C185.745 86.0049 185.918 85.249 185.918 84.2119C185.918 83.3271 185.745 82.6416 185.399 82.1553C185.054 81.6689 184.567 81.4258 183.94 81.4258C183.319 81.4258 182.839 81.6689 182.499 82.1553C182.159 82.6357 181.989 83.3828 181.989 84.3965ZM195.366 81.9268C195.021 81.8799 194.716 81.8564 194.452 81.8564C193.491 81.8564 192.861 82.1816 192.562 82.832V89.0547H190.022V79.5449H192.422L192.492 80.6787C193.002 79.8057 193.708 79.3691 194.61 79.3691C194.892 79.3691 195.155 79.4072 195.401 79.4834L195.366 81.9268ZM200.798 89.2305C199.403 89.2305 198.267 88.8027 197.388 87.9473C196.515 87.0918 196.078 85.9521 196.078 84.5283V84.2822C196.078 83.3271 196.263 82.4746 196.632 81.7246C197.001 80.9688 197.522 80.3887 198.196 79.9844C198.876 79.5742 199.649 79.3691 200.517 79.3691C201.817 79.3691 202.84 79.7793 203.584 80.5996C204.334 81.4199 204.709 82.583 204.709 84.0889V85.126H198.653C198.735 85.7471 198.981 86.2451 199.392 86.6201C199.808 86.9951 200.332 87.1826 200.965 87.1826C201.943 87.1826 202.708 86.8281 203.259 86.1191L204.507 87.5166C204.126 88.0557 203.61 88.4775 202.96 88.7822C202.31 89.0811 201.589 89.2305 200.798 89.2305ZM200.508 81.4258C200.004 81.4258 199.594 81.5957 199.277 81.9355C198.967 82.2754 198.768 82.7617 198.68 83.3945H202.213V83.1924C202.201 82.6299 202.049 82.1963 201.756 81.8916C201.463 81.5811 201.047 81.4258 200.508 81.4258Z" fill="black"/>
<path d="M88.5011 91.6418C85.9137 94.0356 83.0593 93.6624 80.3386 92.5345C77.446 91.3831 74.8005 91.3102 71.7466 92.5345C67.9421 94.1001 65.923 93.6451 63.6318 91.6418C50.6962 78.9453 52.6056 59.6053 67.3073 58.8763C70.873 59.0582 73.3695 60.7557 75.4697 60.8967C78.5916 60.2914 81.5795 58.5577 84.9208 58.7853C88.9354 59.0946 91.9426 60.607 93.9426 63.3224C85.6846 68.0552 87.6417 78.4311 95.2268 81.3434C93.709 85.1439 91.7613 88.8977 88.4965 91.6736L88.5011 91.6418ZM75.1834 58.7399C74.7968 53.0968 79.5938 48.455 85.1118 48C85.8709 54.5075 78.9065 59.3768 75.1834 58.7399Z" fill="#444444"/>
<defs>
<filter id="filter0_d_1173_428" x="0" y="0" width="340" height="164" filterUnits="userSpaceOnUse" color-interpolation-filters="sRGB">
<feFlood flood-opacity="0" result="BackgroundImageFix"/>
<feColorMatrix in="SourceAlpha" type="matrix" values="0 0 0 0 0 0 0 0 0 0 0 0 0 0 0 0 0 0 127 0" result="hardAlpha"/>
<feOffset dy="11"/>
<feGaussianBlur stdDeviation="16"/>
<feComposite in2="hardAlpha" operator="out"/>
<feColorMatrix type="matrix" values="0 0 0 0 0 0 0 0 0 0 0 0 0 0 0 0 0 0 0.06 0"/>
<feBlend mode="normal" in2="BackgroundImageFix" result="effect1_dropShadow_1173_428"/>
<feBlend mode="normal" in="SourceGraphic" in2="effect1_dropShadow_1173_428" result="shape"/>
</filter>
</defs>
</svg>
