<svg xmlns="http://www.w3.org/2000/svg" width="245" height="177" fill="none" viewBox="0 0 245 177"><g filter="url(#filter0_d_1173_684)"><rect width="216.029" height="148.86" x="14.02" y="12" fill="#fff" rx="13.837"/></g><path fill="#000" fill-rule="evenodd" d="M79.4893 67.5485C77.9179 69.4269 75.4038 70.9085 72.8897 70.6968C72.5754 68.157 73.8063 65.4585 75.2467 63.7918C76.818 61.8605 79.5678 60.4847 81.7939 60.3789C82.0558 63.0245 81.0344 65.6172 79.4893 67.5485ZM81.768 71.1994C79.5531 71.0706 77.5321 71.8723 75.8997 72.5198C74.8492 72.9365 73.9596 73.2894 73.2828 73.2894C72.5233 73.2894 71.597 72.9176 70.557 72.5003C69.1942 71.9533 67.6362 71.3281 66.0023 71.3581C62.2573 71.411 58.7742 73.5539 56.8624 76.9668C52.9341 83.7925 55.8411 93.8987 59.6384 99.4545C61.4978 102.206 63.7239 105.222 66.657 105.116C67.9474 105.067 68.8757 104.669 69.8363 104.257C70.9423 103.783 72.0912 103.291 73.8852 103.291C75.6169 103.291 76.7156 103.77 77.7702 104.231C78.773 104.669 79.736 105.089 81.1656 105.063C84.2036 105.01 86.1153 102.312 87.9747 99.5604C89.9814 96.6073 90.8632 93.7253 90.997 93.2879L90.9972 93.2872L91.0057 93.2593L91.0126 93.2373C91.0094 93.2341 90.9849 93.2227 90.9415 93.2027L90.941 93.2024L90.9409 93.2024C90.2701 92.8922 85.1431 90.5211 85.094 84.1629C85.0446 78.8261 89.1606 76.1221 89.8085 75.6965C89.8479 75.6706 89.8745 75.6531 89.8865 75.644C87.2676 71.7285 83.1822 71.3052 81.768 71.1994ZM102.797 104.772V63.5272H118.118C126.027 63.5272 131.553 69.03 131.553 77.0727C131.553 85.1154 125.922 90.6712 117.908 90.6712H109.135V104.772H102.797ZM109.137 68.9238H116.443C121.943 68.9238 125.086 71.8869 125.086 77.0988C125.086 82.3107 121.943 85.3002 116.417 85.3002H109.137V68.9238ZM152.478 99.8251C150.802 103.053 147.109 105.09 143.128 105.09C137.236 105.09 133.124 101.545 133.124 96.2006C133.124 90.9094 137.105 87.867 144.464 87.4172L152.373 86.941V84.6658C152.373 81.3058 150.199 79.4803 146.323 79.4803C143.128 79.4803 140.798 81.1471 140.326 83.6869H134.617C134.8 78.3427 139.776 74.4537 146.507 74.4537C153.761 74.4537 158.475 78.2898 158.475 84.2425V104.772H152.609V99.8251H152.478ZM144.831 100.196C141.452 100.196 139.305 98.5553 139.305 96.042C139.305 93.4492 141.374 91.9413 145.328 91.7031L152.373 91.2534V93.5815C152.373 97.4441 149.126 100.196 144.831 100.196ZM177.933 106.386C175.393 113.609 172.486 115.99 166.305 115.99C165.834 115.99 164.263 115.937 163.896 115.831V110.884C164.289 110.937 165.258 110.99 165.755 110.99C168.558 110.99 170.129 109.799 171.098 106.704L171.674 104.878L160.937 74.8505H167.562L175.026 99.2166H175.157L182.621 74.8505H189.064L177.933 106.386Z" clip-rule="evenodd"/><defs><filter id="filter0_d_1173_684" width="244.027" height="176.859" x=".02" y="0" color-interpolation-filters="sRGB" filterUnits="userSpaceOnUse"><feFlood flood-opacity="0" result="BackgroundImageFix"/><feColorMatrix in="SourceAlpha" result="hardAlpha" type="matrix" values="0 0 0 0 0 0 0 0 0 0 0 0 0 0 0 0 0 0 127 0"/><feMorphology in="SourceAlpha" operator="dilate" radius="5" result="effect1_dropShadow_1173_684"/><feOffset dy="2"/><feGaussianBlur stdDeviation="4.5"/><feComposite in2="hardAlpha" operator="out"/><feColorMatrix type="matrix" values="0 0 0 0 0.432153 0 0 0 0 0.697335 0 0 0 0 0.816667 0 0 0 0.2 0"/><feBlend in2="BackgroundImageFix" mode="normal" result="effect1_dropShadow_1173_684"/><feBlend in="SourceGraphic" in2="effect1_dropShadow_1173_684" mode="normal" result="shape"/></filter></defs></svg>