<svg width="245" height="177" viewBox="0 0 245 177" fill="none" xmlns="http://www.w3.org/2000/svg">
<g filter="url(#filter0_d_1173_694)">
<rect x="14" y="12" width="216.029" height="148.86" rx="13.8373" fill="white"/>
</g>
<path fill-rule="evenodd" clip-rule="evenodd" d="M117.982 101.755V84.9668V84.9635H127.071C130.819 84.9657 133.968 83.7892 136.52 81.4339C139.098 79.1985 140.54 75.9846 140.466 72.6346C140.517 69.3032 139.079 66.1131 136.52 63.8849C133.991 61.5167 130.589 60.2246 127.071 60.2958H112.48V101.755H117.982ZM117.98 79.8731V65.4006V65.3973H127.207C129.263 65.3413 131.245 66.1424 132.65 67.5971C134.064 68.9275 134.861 70.7548 134.861 72.6633C134.861 74.5718 134.064 76.3991 132.65 77.7295C131.228 79.1536 129.252 79.9318 127.207 79.8731H117.98Z" fill="#5F6368"/>
<path fill-rule="evenodd" clip-rule="evenodd" d="M162.776 75.6187C160.422 73.5148 157.213 72.4629 153.146 72.4629C147.923 72.4629 143.978 74.3154 141.313 78.0203L146.158 80.9744C147.949 78.4647 150.381 77.2099 153.454 77.2099C155.413 77.1877 157.309 77.881 158.764 79.1517C160.214 80.3126 161.049 82.0436 161.036 83.8656V85.0829C158.922 83.9251 156.232 83.3462 152.965 83.3462C149.138 83.3506 146.078 84.2195 143.787 85.9529C141.495 87.6863 140.349 90.0207 140.349 92.956C140.299 95.6287 141.497 98.1809 143.609 99.9028C145.782 101.755 148.483 102.681 151.711 102.681C155.493 102.681 158.522 101.061 160.8 97.8187H161.04V101.755H166.302V84.2725C166.304 80.6072 165.129 77.7226 162.776 75.6187ZM147.853 96.5452C146.701 95.741 146.021 94.4471 146.028 93.0718C146.028 91.527 146.777 90.2402 148.284 89.1816C149.776 88.1385 151.639 87.6169 153.874 87.6169C156.943 87.6169 159.334 88.2785 161.05 89.6017C161.05 91.8379 160.139 93.7863 158.316 95.447C156.675 97.0363 154.449 97.9308 152.128 97.9346C150.58 97.9626 149.07 97.4718 147.853 96.5452Z" fill="#5F6368"/>
<path fill-rule="evenodd" clip-rule="evenodd" d="M196.507 73.3906L178.137 114.261H172.458L179.275 99.9605L167.195 73.3906H173.175L181.906 93.7679H182.026L190.517 73.3906H196.507Z" fill="#5F6368"/>
<path fill-rule="evenodd" clip-rule="evenodd" d="M95.7508 81.3488C95.7528 79.7257 95.6111 78.1055 95.327 76.5059H72.125V85.6789H85.4141C84.8646 88.6395 83.0895 91.2541 80.5003 92.9169V98.8713H88.4313C93.0752 94.7263 95.7508 88.5966 95.7508 81.3488Z" fill="#4285F4"/>
<path fill-rule="evenodd" clip-rule="evenodd" d="M72.1228 104.624C78.7622 104.624 84.3525 102.514 88.4291 98.8751L80.4981 92.9207C78.2906 94.3696 75.4476 95.1966 72.1228 95.1966C65.7055 95.1966 60.2586 91.0087 58.3109 85.3652H50.1406V91.5016C54.3168 99.5465 62.8222 104.624 72.1228 104.624Z" fill="#34A853"/>
<path fill-rule="evenodd" clip-rule="evenodd" d="M58.3135 85.3645C57.2838 82.4073 57.2838 79.2049 58.3135 76.2477V70.1113H50.1432C46.6502 76.8402 46.6502 84.772 50.1432 91.5009L58.3135 85.3645Z" fill="#FBBC04"/>
<path fill-rule="evenodd" clip-rule="evenodd" d="M72.1228 66.4157C75.6314 66.3602 79.0217 67.6435 81.5608 69.9883V69.9883L88.5829 63.1904C84.1302 59.1416 78.2312 56.9188 72.1228 56.9879C62.8222 56.9883 54.3168 62.0658 50.1406 70.1107L58.3109 76.2471C60.2586 70.6036 65.7055 66.4157 72.1228 66.4157Z" fill="#EA4335"/>
<defs>
<filter id="filter0_d_1173_694" x="0" y="0" width="244.027" height="176.859" filterUnits="userSpaceOnUse" color-interpolation-filters="sRGB">
<feFlood flood-opacity="0" result="BackgroundImageFix"/>
<feColorMatrix in="SourceAlpha" type="matrix" values="0 0 0 0 0 0 0 0 0 0 0 0 0 0 0 0 0 0 127 0" result="hardAlpha"/>
<feMorphology radius="5" operator="dilate" in="SourceAlpha" result="effect1_dropShadow_1173_694"/>
<feOffset dy="2"/>
<feGaussianBlur stdDeviation="4.5"/>
<feComposite in2="hardAlpha" operator="out"/>
<feColorMatrix type="matrix" values="0 0 0 0 0.432153 0 0 0 0 0.697335 0 0 0 0 0.816667 0 0 0 0.2 0"/>
<feBlend mode="normal" in2="BackgroundImageFix" result="effect1_dropShadow_1173_694"/>
<feBlend mode="normal" in="SourceGraphic" in2="effect1_dropShadow_1173_694" result="shape"/>
</filter>
</defs>
</svg>
