<svg width="510" height="510" viewBox="0 0 510 510" fill="none" xmlns="http://www.w3.org/2000/svg">
<path d="M280.312 443.688H284.15V455.426H286.725V443.688H290.555V441.67H280.312V443.688Z" fill="black"/>
<path d="M301.302 451.065L297.68 441.67H294.258V455.426H296.567V445.042L300.745 455.426H301.568L305.671 445.042V455.426H308.23V441.67H304.84L301.302 451.065Z" fill="black"/>
<path d="M320.999 300.317L354.259 312.312L328.35 290.457L315.367 292.534L320.999 300.317Z" fill="black"/>
<path d="M194.868 292.534L181.877 290.457L155.977 312.312L189.236 300.317L194.868 292.534Z" fill="black"/>
<path d="M189.236 209.634L155.977 197.631L181.877 219.494L194.868 217.409L189.236 209.634Z" fill="black"/>
<path d="M315.367 217.409L328.35 219.494L354.259 197.631L320.999 209.626L315.367 217.409Z" fill="black"/>
<path d="M209.807 188.945L217.591 194.577L219.676 181.594L197.812 155.693L209.807 188.945Z" fill="black"/>
<path d="M209.807 320.995L197.812 354.238L219.676 328.347L217.591 315.363L209.807 320.995Z" fill="black"/>
<path d="M300.317 188.945L312.32 155.693L290.457 181.594L292.542 194.577L300.317 188.945Z" fill="black"/>
<path d="M255.145 211.865C198.385 212.837 198.393 297.241 255.145 298.196C311.904 297.224 311.896 212.82 255.145 211.865ZM255.145 284.598C216.269 283.934 216.278 226.128 255.145 225.463C294.02 226.128 294.011 283.942 255.145 284.598Z" fill="black"/>
<path d="M300.317 320.987L292.542 315.363L290.457 328.347L312.32 354.238L300.317 320.987Z" fill="black"/>
<path d="M271.873 237.881C271.84 237.59 271.715 237.349 271.482 237.158C271.258 236.967 271.001 236.867 270.718 236.867H262.677C262.096 236.867 261.697 237.158 261.481 237.739L255.035 258.514L248.639 237.739C248.465 237.158 248.091 236.867 247.509 236.867H239.369C239.02 236.867 238.754 236.967 238.571 237.166C238.38 237.366 238.272 237.598 238.239 237.881L234.875 269.836C234.875 270.509 235.216 270.841 235.888 270.841H242.542C243.281 270.841 243.663 270.509 243.697 269.836L245.74 252.193L251.031 269.944C251.048 270.111 251.164 270.302 251.372 270.501C251.58 270.709 251.779 270.808 251.97 270.808H258.159C258.35 270.808 258.541 270.7 258.732 270.493C258.923 270.277 259.039 270.094 259.072 269.944L264.364 252.143L266.407 269.828C266.44 270.501 266.814 270.833 267.537 270.833H274.19C274.88 270.833 275.22 270.534 275.22 269.944V269.828C274.672 264.462 274.107 259.129 273.542 253.846C272.986 248.571 272.421 243.247 271.873 237.881Z" fill="black"/>
<path d="M305.997 220.81C306.969 220.71 348.211 160.096 349.748 161.675C366.868 179.019 379.236 201.04 384.802 225.611L400.178 228.228C388.739 164.731 336.507 117.126 272.961 108.138L255.733 0.54201C255.617 -0.18067 254.578 -0.18067 254.462 0.54201L237.226 108.13C173.705 117.118 121.481 164.698 110.026 228.153L125.41 225.536C130.984 200.99 143.352 179.002 160.447 161.666C162.034 160.096 203.202 220.702 204.207 220.801C205.137 223.219 124.928 233.801 124.147 234.433L108.522 236.958C98.1639 238.96 9.43218 252.815 1.64053 254.211L1.70698 254.178C-0.967761 254.36 -0.211856 255.856 1.99772 255.864L1.64053 255.706C60.9003 265.317 144.532 278.707 203.783 288.177C206.483 288.991 161.062 347.254 161.444 348.251C143.319 333.473 131.274 308.304 125.393 284.372L110.018 281.756C121.448 345.26 173.68 392.874 237.234 401.87L254.47 509.458C254.587 510.181 255.625 510.181 255.741 509.458L272.978 401.87C336.499 392.882 388.731 345.302 400.186 281.839L384.802 284.455C379.228 309.002 366.86 330.998 349.764 348.334C348.178 349.904 307.01 289.298 306.005 289.199C304.992 286.748 385.275 276.29 386.006 275.534C419.623 269.038 478.327 262.534 510 254.551L412.355 238.777C394.338 234.931 323.399 226.35 305.997 220.81ZM276.35 123.721C304.219 128.207 329.214 141.39 348.46 160.37C350.03 161.957 289.408 203.108 289.309 204.113C288.918 204.396 288.37 204.163 288.295 203.69C289.018 202.892 273.808 123.53 276.35 123.721ZM161.818 161.367C178.473 141.348 206.632 128.523 233.853 123.721C236.395 123.506 221.186 202.926 221.908 203.698C221.094 206.389 162.815 160.985 161.818 161.367ZM233.853 386.27C205.984 381.776 180.99 368.602 161.743 349.621C160.173 348.035 220.795 306.883 220.895 305.878C221.285 305.596 221.834 305.828 221.908 306.302C221.186 307.074 236.395 386.478 233.853 386.27ZM348.377 348.624C331.731 368.643 303.563 381.469 276.342 386.27C273.8 386.486 289.01 307.066 288.287 306.294C289.101 303.602 347.389 349.007 348.377 348.624ZM433.496 256.321H311.595C311.022 281.249 294.309 302.182 271.491 309.085C270.295 309.093 257.843 439.184 254.72 435.113V311.502C230.007 311.336 209.075 295.329 201.557 273.125L75.7941 257.683C71.9232 254.128 198.666 257.55 198.6 256.404C197.861 230.67 214.806 208.333 238.181 201.065C239.369 201.057 251.513 73.5493 254.637 77.6195V198.506C280.728 198.249 302.89 215.859 309.544 239.832C309.577 241.003 437.558 253.197 433.496 256.321Z" fill="black"/>
<path d="M108.447 210.642L90.9362 205.5L90.0391 208.557L107.55 213.699C107.84 212.677 108.139 211.655 108.447 210.642Z" fill="black"/>
<path d="M136.305 351.715L121.926 363.618L123.961 366.069L138.348 354.157C137.65 353.36 136.977 352.537 136.305 351.715Z" fill="black"/>
<path d="M114.27 194.795L97.4403 187.768L96.2109 190.708L113.049 197.744C113.439 196.755 113.846 195.775 114.27 194.795Z" fill="black"/>
<path d="M119.818 182.775L103.678 174.311L102.199 177.127L118.339 185.591C118.821 184.652 119.311 183.714 119.818 182.775Z" fill="black"/>
<path d="M104.782 225.682L86.8315 222.326L86.25 225.458L104.209 228.814C104.383 227.767 104.583 226.72 104.782 225.682Z" fill="black"/>
<path d="M159.578 397.984L162.245 399.728L172.537 384.045C171.639 383.472 170.751 382.891 169.87 382.301L159.578 397.984Z" fill="black"/>
<path d="M145.712 362.377L132.488 375.601L134.739 377.852L147.964 364.628C147.208 363.88 146.452 363.141 145.712 362.377Z" fill="black"/>
<path d="M157.616 373.131L145.82 387.676L148.296 389.686L160.099 375.141C159.261 374.477 158.43 373.804 157.616 373.131Z" fill="black"/>
<path d="M401.963 211.271L419.382 205.847L418.435 202.807L401.016 208.239C401.34 209.244 401.655 210.249 401.963 211.271Z" fill="black"/>
<path d="M397.443 198.638L414.322 191.711L413.117 188.762L396.238 195.689C396.645 196.67 397.052 197.65 397.443 198.638Z" fill="black"/>
<path d="M390.591 183.254L406.581 174.523L405.053 171.732L389.062 180.463C389.586 181.385 390.093 182.323 390.591 183.254Z" fill="black"/>
<path d="M405.64 225.78L423.524 222.067L422.876 218.943L405 222.656C405.224 223.703 405.44 224.741 405.64 225.78Z" fill="black"/>
<path d="M311.566 397.357L318.693 414.718L321.642 413.505L314.515 396.145C313.527 396.56 312.547 396.967 311.566 397.357Z" fill="black"/>
<path d="M381.914 340.627L397.506 350.852L399.25 348.186L383.658 337.969C383.085 338.858 382.504 339.746 381.914 340.627Z" fill="black"/>
<path d="M389.867 327.835L406.348 336.482L407.826 333.666L391.354 325.027C390.872 325.966 390.374 326.896 389.867 327.835Z" fill="black"/>
<path d="M395.648 315.899L412.768 323.051L413.998 320.111L396.886 312.967C396.487 313.955 396.072 314.927 395.648 315.899Z" fill="black"/>
<path d="M326.914 390.298L335.91 406.762L338.71 405.233L329.713 388.77C328.783 389.285 327.853 389.791 326.914 390.298Z" fill="black"/>
<path d="M401.43 300.082L419.173 305.29L420.07 302.233L402.343 297.033C402.053 298.047 401.745 299.068 401.43 300.082Z" fill="black"/>
<path d="M405.215 285.12L423.323 288.501L423.905 285.369L405.805 281.988C405.622 283.035 405.423 284.082 405.215 285.12Z" fill="black"/>
<path d="M340.078 382.316L350.677 397.783L353.302 395.981L342.703 380.514C341.839 381.128 340.959 381.735 340.078 382.316Z" fill="black"/>
<path d="M127.939 340.469L112.555 351.01L114.357 353.635L129.749 343.094C129.135 342.221 128.537 341.341 127.939 340.469Z" fill="black"/>
<path d="M372.926 352.903L387.438 364.665L389.448 362.19L374.944 350.428C374.28 351.258 373.607 352.081 372.926 352.903Z" fill="black"/>
<path d="M363.33 363.314C362.889 363.754 362.441 364.194 361.992 364.626L375.216 377.85L377.467 375.599L364.243 362.375C363.936 362.691 363.637 363.006 363.33 363.314Z" fill="black"/>
<path d="M351.211 374.08L363.164 388.5L365.615 386.465L353.67 372.045C352.856 372.734 352.033 373.416 351.211 374.08Z" fill="black"/>
<path d="M221.742 423.728L224.874 424.31L228.313 405.902C227.266 405.719 226.219 405.52 225.181 405.312L221.742 423.728Z" fill="black"/>
<path d="M108.304 299.426L90.6523 304.925L91.5993 307.965L109.259 302.458C108.935 301.453 108.611 300.439 108.304 299.426Z" fill="black"/>
<path d="M173.906 406.586L176.731 408.065L185.452 391.443C184.506 390.962 183.567 390.472 182.628 389.965L173.906 406.586Z" fill="black"/>
<path d="M104.702 284.982L86.6602 288.729L87.3081 291.852L105.358 288.097C105.134 287.067 104.91 286.021 104.702 284.982Z" fill="black"/>
<path d="M119.929 327.312L103.598 336.226L105.126 339.017L121.465 330.095C120.942 329.182 120.427 328.251 119.929 327.312Z" fill="black"/>
<path d="M307.65 418.725L302.068 400.824C301.054 401.148 300.041 401.472 299.027 401.771L304.609 419.664L307.65 418.725Z" fill="black"/>
<path d="M112.782 312.07L95.6289 319.106L96.8417 322.055L114.012 315.011C113.58 314.039 113.173 313.059 112.782 312.07Z" fill="black"/>
<path d="M205.008 419.515L208.065 420.412L213.348 402.428C212.326 402.138 211.304 401.839 210.291 401.531L205.008 419.515Z" fill="black"/>
<path d="M187.457 413.061L190.398 414.291L197.633 396.979C196.653 396.581 195.672 396.174 194.692 395.75L187.457 413.061Z" fill="black"/>
<path d="M284.473 405.361L288.285 423.702L291.409 423.054L287.596 404.713C286.558 404.937 285.519 405.153 284.473 405.361Z" fill="black"/>
<path d="M225.329 104.631L221.674 87.0625L218.551 87.7104L222.206 105.287C223.252 105.055 224.291 104.839 225.329 104.631Z" fill="black"/>
<path d="M287.922 87.0443L284.79 86.4629L281.492 104.098C282.539 104.281 283.577 104.48 284.624 104.688L287.922 87.0443Z" fill="black"/>
<path d="M127.532 169.949L112.315 159.973L110.57 162.639L125.796 172.624C126.361 171.718 126.943 170.829 127.532 169.949Z" fill="black"/>
<path d="M136.838 157.563L122.733 146.125L120.723 148.6L134.836 160.039C135.5 159.208 136.165 158.377 136.838 157.563Z" fill="black"/>
<path d="M169.628 127.88L159.402 112.961L156.777 114.763L167.003 129.691C167.875 129.076 168.747 128.469 169.628 127.88Z" fill="black"/>
<path d="M146.614 146.707C146.922 146.4 147.237 146.101 147.545 145.794L134.728 132.977L132.477 135.228L145.302 148.045C145.742 147.605 146.174 147.156 146.614 146.707Z" fill="black"/>
<path d="M158.232 136.165L146.685 122.227L144.227 124.262L155.781 138.2C156.587 137.511 157.401 136.838 158.232 136.165Z" fill="black"/>
<path d="M182.775 119.937L174.12 104.088L171.32 105.616L179.984 121.474C180.906 120.95 181.837 120.444 182.775 119.937Z" fill="black"/>
<path d="M364.43 148.047L377.256 135.23L375.005 132.979L362.188 145.796C362.952 146.527 363.691 147.283 364.43 148.047Z" fill="black"/>
<path d="M350.456 112.813L347.789 111.068L337.871 126.186C338.76 126.76 339.649 127.349 340.529 127.939L350.456 112.813Z" fill="black"/>
<path d="M373.98 158.773L387.977 147.185L385.942 144.734L371.953 156.314C372.643 157.12 373.315 157.942 373.98 158.773Z" fill="black"/>
<path d="M210.796 108.306L205.446 91.1445L202.406 92.0915L207.764 109.261C208.761 108.929 209.774 108.613 210.796 108.306Z" fill="black"/>
<path d="M198.059 112.789L191.215 96.1172L188.266 97.33L195.11 114.001C196.09 113.594 197.071 113.187 198.059 112.789Z" fill="black"/>
<path d="M382.498 169.998L397.508 159.715L395.705 157.09L380.695 167.373C381.31 168.237 381.908 169.118 382.498 169.998Z" fill="black"/>
<path d="M352.705 137.202L364.119 123.139L361.643 121.129L350.238 135.184C351.061 135.848 351.883 136.521 352.705 137.202Z" fill="black"/>
<path d="M336.14 104.272L333.315 102.793L324.926 118.783C325.873 119.273 326.811 119.763 327.742 120.27L336.14 104.272Z" fill="black"/>
<path d="M304.761 91.2409L301.704 90.3438L296.637 107.588C297.658 107.879 298.68 108.178 299.694 108.494L304.761 91.2409Z" fill="black"/>
<path d="M322.479 97.7489L319.539 96.5195L312.586 113.141C313.566 113.54 314.546 113.955 315.526 114.379L322.479 97.7489Z" fill="black"/>
</svg>
