<svg xmlns="http://www.w3.org/2000/svg" width="340" height="164" fill="none" viewBox="0 0 340 164"><g filter="url(#filter0_d_1173_434)"><rect width="276" height="100" x="32" y="21" fill="#fff" rx="9"/></g><path fill="#000" d="M112.438 67.1562V55.7812H115.617C116.549 55.7812 117.385 55.9948 118.125 56.4219C118.865 56.8438 119.44 57.4505 119.852 58.2422C120.268 59.0339 120.477 59.9349 120.477 60.9453V61.9922C120.477 63.0078 120.271 63.9089 119.859 64.6953C119.448 65.4818 118.867 66.0885 118.117 66.5156C117.372 66.9427 116.516 67.1562 115.547 67.1562H112.438ZM113.398 56.6016V66.3438H115.555C116.753 66.3438 117.714 65.9479 118.438 65.1562C119.161 64.3594 119.523 63.2839 119.523 61.9297V60.9297C119.523 59.6224 119.167 58.5755 118.453 57.7891C117.74 57.0026 116.799 56.6068 115.633 56.6016H113.398ZM122.188 62.8047C122.188 61.9922 122.344 61.2604 122.656 60.6094C122.974 59.9583 123.419 59.4531 123.992 59.0938C124.57 58.7292 125.224 58.5469 125.953 58.5469C127.078 58.5469 127.99 58.9427 128.688 59.7344C129.385 60.5208 129.734 61.5651 129.734 62.8672V63.0625C129.734 63.8802 129.576 64.6172 129.258 65.2734C128.945 65.9245 128.503 66.4271 127.93 66.7812C127.357 67.1354 126.703 67.3125 125.969 67.3125C124.849 67.3125 123.938 66.9193 123.234 66.1328C122.536 65.3411 122.188 64.2943 122.188 62.9922V62.8047ZM123.125 63.0625C123.125 64.0729 123.385 64.9036 123.906 65.5547C124.432 66.2005 125.12 66.5234 125.969 66.5234C126.812 66.5234 127.495 66.2005 128.016 65.5547C128.542 64.9036 128.805 64.0469 128.805 62.9844V62.8047C128.805 62.1589 128.685 61.5677 128.445 61.0312C128.206 60.4948 127.87 60.0807 127.438 59.7891C127.005 59.4922 126.51 59.3438 125.953 59.3438C125.12 59.3438 124.44 59.6719 123.914 60.3281C123.388 60.9792 123.125 61.8333 123.125 62.8906V63.0625ZM133.695 65.2109L133.836 65.9375L134.023 65.1719L136.055 58.7031H136.852L138.859 65.1172L139.078 66.0078L139.258 65.1875L140.992 58.7031H141.961L139.5 67.1562H138.703L136.531 60.4531L136.43 59.9922L136.328 60.4609L134.195 67.1562H133.398L130.945 58.7031H131.906L133.695 65.2109ZM144.625 58.7031L144.656 60.1484C144.974 59.6276 145.37 59.2318 145.844 58.9609C146.318 58.6849 146.841 58.5469 147.414 58.5469C148.32 58.5469 148.995 58.8021 149.438 59.3125C149.88 59.8229 150.104 60.5885 150.109 61.6094V67.1562H149.18V61.6016C149.174 60.8464 149.013 60.2839 148.695 59.9141C148.383 59.5443 147.88 59.3594 147.188 59.3594C146.609 59.3594 146.096 59.5417 145.648 59.9062C145.206 60.2656 144.878 60.7526 144.664 61.3672V67.1562H143.734V58.7031H144.625ZM153.578 67.1562H152.641V55.1562H153.578V67.1562ZM155.609 62.8047C155.609 61.9922 155.766 61.2604 156.078 60.6094C156.396 59.9583 156.841 59.4531 157.414 59.0938C157.992 58.7292 158.646 58.5469 159.375 58.5469C160.5 58.5469 161.411 58.9427 162.109 59.7344C162.807 60.5208 163.156 61.5651 163.156 62.8672V63.0625C163.156 63.8802 162.997 64.6172 162.68 65.2734C162.367 65.9245 161.924 66.4271 161.352 66.7812C160.779 67.1354 160.125 67.3125 159.391 67.3125C158.271 67.3125 157.359 66.9193 156.656 66.1328C155.958 65.3411 155.609 64.2943 155.609 62.9922V62.8047ZM156.547 63.0625C156.547 64.0729 156.807 64.9036 157.328 65.5547C157.854 66.2005 158.542 66.5234 159.391 66.5234C160.234 66.5234 160.917 66.2005 161.438 65.5547C161.964 64.9036 162.227 64.0469 162.227 62.9844V62.8047C162.227 62.1589 162.107 61.5677 161.867 61.0312C161.628 60.4948 161.292 60.0807 160.859 59.7891C160.427 59.4922 159.932 59.3438 159.375 59.3438C158.542 59.3438 157.862 59.6719 157.336 60.3281C156.81 60.9792 156.547 61.8333 156.547 62.8906V63.0625ZM170.43 67.1562C170.336 66.8906 170.276 66.4974 170.25 65.9766C169.922 66.4036 169.503 66.7344 168.992 66.9688C168.487 67.1979 167.951 67.3125 167.383 67.3125C166.57 67.3125 165.911 67.0859 165.406 66.6328C164.906 66.1797 164.656 65.6068 164.656 64.9141C164.656 64.0911 164.997 63.4401 165.68 62.9609C166.367 62.4818 167.323 62.2422 168.547 62.2422H170.242V61.2812C170.242 60.6771 170.055 60.2031 169.68 59.8594C169.31 59.5104 168.768 59.3359 168.055 59.3359C167.404 59.3359 166.865 59.5026 166.438 59.8359C166.01 60.1693 165.797 60.5703 165.797 61.0391L164.859 61.0312C164.859 60.3594 165.172 59.7786 165.797 59.2891C166.422 58.7943 167.19 58.5469 168.102 58.5469C169.044 58.5469 169.786 58.7839 170.328 59.2578C170.875 59.7266 171.156 60.3828 171.172 61.2266V65.2266C171.172 66.0443 171.258 66.6562 171.43 67.0625V67.1562H170.43ZM167.492 66.4844C168.117 66.4844 168.674 66.3333 169.164 66.0312C169.659 65.7292 170.018 65.3255 170.242 64.8203V62.9609H168.57C167.638 62.9714 166.909 63.1432 166.383 63.4766C165.857 63.8047 165.594 64.2578 165.594 64.8359C165.594 65.3099 165.768 65.7031 166.117 66.0156C166.471 66.3281 166.93 66.4844 167.492 66.4844ZM173.297 62.8516C173.297 61.5391 173.589 60.4948 174.172 59.7188C174.76 58.9375 175.557 58.5469 176.562 58.5469C177.703 58.5469 178.573 58.9974 179.172 59.8984V55.1562H180.102V67.1562H179.227L179.188 66.0312C178.589 66.8854 177.708 67.3125 176.547 67.3125C175.573 67.3125 174.786 66.9219 174.188 66.1406C173.594 65.3542 173.297 64.2943 173.297 62.9609V62.8516ZM174.242 63.0156C174.242 64.0938 174.458 64.9453 174.891 65.5703C175.323 66.1901 175.932 66.5 176.719 66.5C177.87 66.5 178.688 65.9922 179.172 64.9766V61.0078C178.688 59.9089 177.875 59.3594 176.734 59.3594C175.948 59.3594 175.336 59.6693 174.898 60.2891C174.461 60.9036 174.242 61.8125 174.242 63.0156ZM185.938 62.8047C185.938 61.9922 186.094 61.2604 186.406 60.6094C186.724 59.9583 187.169 59.4531 187.742 59.0938C188.32 58.7292 188.974 58.5469 189.703 58.5469C190.828 58.5469 191.74 58.9427 192.438 59.7344C193.135 60.5208 193.484 61.5651 193.484 62.8672V63.0625C193.484 63.8802 193.326 64.6172 193.008 65.2734C192.695 65.9245 192.253 66.4271 191.68 66.7812C191.107 67.1354 190.453 67.3125 189.719 67.3125C188.599 67.3125 187.688 66.9193 186.984 66.1328C186.286 65.3411 185.938 64.2943 185.938 62.9922V62.8047ZM186.875 63.0625C186.875 64.0729 187.135 64.9036 187.656 65.5547C188.182 66.2005 188.87 66.5234 189.719 66.5234C190.562 66.5234 191.245 66.2005 191.766 65.5547C192.292 64.9036 192.555 64.0469 192.555 62.9844V62.8047C192.555 62.1589 192.435 61.5677 192.195 61.0312C191.956 60.4948 191.62 60.0807 191.188 59.7891C190.755 59.4922 190.26 59.3438 189.703 59.3438C188.87 59.3438 188.19 59.6719 187.664 60.3281C187.138 60.9792 186.875 61.8333 186.875 62.8906V63.0625ZM196.312 58.7031L196.344 60.1484C196.661 59.6276 197.057 59.2318 197.531 58.9609C198.005 58.6849 198.529 58.5469 199.102 58.5469C200.008 58.5469 200.682 58.8021 201.125 59.3125C201.568 59.8229 201.792 60.5885 201.797 61.6094V67.1562H200.867V61.6016C200.862 60.8464 200.701 60.2839 200.383 59.9141C200.07 59.5443 199.568 59.3594 198.875 59.3594C198.297 59.3594 197.784 59.5417 197.336 59.9062C196.893 60.2656 196.565 60.7526 196.352 61.3672V67.1562H195.422V58.7031H196.312ZM209.562 56.5391V58.7031H211.312V59.4688H209.562V65.1016C209.562 65.5703 209.646 65.9193 209.812 66.1484C209.984 66.3776 210.268 66.4922 210.664 66.4922C210.82 66.4922 211.073 66.4661 211.422 66.4141L211.461 67.1797C211.216 67.2682 210.883 67.3125 210.461 67.3125C209.82 67.3125 209.354 67.1276 209.062 66.7578C208.771 66.3828 208.625 65.8333 208.625 65.1094V59.4688H207.07V58.7031H208.625V56.5391H209.562ZM214.18 60.1328C214.487 59.6276 214.88 59.237 215.359 58.9609C215.839 58.6849 216.362 58.5469 216.93 58.5469C217.836 58.5469 218.51 58.8021 218.953 59.3125C219.396 59.8229 219.62 60.5885 219.625 61.6094V67.1562H218.695V61.6016C218.69 60.8464 218.529 60.2839 218.211 59.9141C217.898 59.5443 217.396 59.3594 216.703 59.3594C216.125 59.3594 215.612 59.5417 215.164 59.9062C214.721 60.2656 214.393 60.7526 214.18 61.3672V67.1562H213.25V55.1562H214.18V60.1328ZM225.305 67.3125C224.586 67.3125 223.935 67.1354 223.352 66.7812C222.773 66.4271 222.323 65.9349 222 65.3047C221.677 64.6693 221.516 63.9583 221.516 63.1719V62.8359C221.516 62.0234 221.672 61.2917 221.984 60.6406C222.302 59.9896 222.742 59.4792 223.305 59.1094C223.867 58.7344 224.477 58.5469 225.133 58.5469C226.159 58.5469 226.971 58.8984 227.57 59.6016C228.174 60.2995 228.477 61.2552 228.477 62.4688V62.9922H222.445V63.1719C222.445 64.1302 222.719 64.9297 223.266 65.5703C223.818 66.2057 224.51 66.5234 225.344 66.5234C225.844 66.5234 226.284 66.4323 226.664 66.25C227.049 66.0677 227.398 65.776 227.711 65.375L228.297 65.8203C227.609 66.8151 226.612 67.3125 225.305 67.3125ZM225.133 59.3438C224.43 59.3438 223.836 59.6016 223.352 60.1172C222.872 60.6328 222.581 61.3255 222.477 62.1953H227.547V62.0938C227.521 61.2812 227.289 60.6198 226.852 60.1094C226.414 59.599 225.841 59.3438 225.133 59.3438Z" opacity=".4"/><path fill="#000" d="M119.367 86.418H114.744L113.865 89.0547H111.062L115.825 76.2578H118.269L123.059 89.0547H120.255L119.367 86.418ZM115.456 84.2822H118.655L117.047 79.4922L115.456 84.2822ZM132.226 84.3877C132.226 85.8525 131.892 87.0273 131.224 87.9121C130.562 88.791 129.665 89.2305 128.534 89.2305C127.573 89.2305 126.797 88.8965 126.205 88.2285V92.7109H123.665V79.5449H126.021L126.108 80.4766C126.724 79.7383 127.526 79.3691 128.517 79.3691C129.688 79.3691 130.6 79.8027 131.25 80.6699C131.9 81.5371 132.226 82.7324 132.226 84.2559V84.3877ZM129.686 84.2031C129.686 83.3184 129.527 82.6357 129.211 82.1553C128.9 81.6748 128.446 81.4346 127.849 81.4346C127.052 81.4346 126.504 81.7393 126.205 82.3486V86.2422C126.516 86.8691 127.069 87.1826 127.866 87.1826C129.079 87.1826 129.686 86.1895 129.686 84.2031ZM142.368 84.3877C142.368 85.8525 142.034 87.0273 141.366 87.9121C140.704 88.791 139.808 89.2305 138.677 89.2305C137.716 89.2305 136.939 88.8965 136.348 88.2285V92.7109H133.808V79.5449H136.163L136.251 80.4766C136.866 79.7383 137.669 79.3691 138.659 79.3691C139.831 79.3691 140.742 79.8027 141.393 80.6699C142.043 81.5371 142.368 82.7324 142.368 84.2559V84.3877ZM139.828 84.2031C139.828 83.3184 139.67 82.6357 139.354 82.1553C139.043 81.6748 138.589 81.4346 137.991 81.4346C137.194 81.4346 136.646 81.7393 136.348 82.3486V86.2422C136.658 86.8691 137.212 87.1826 138.009 87.1826C139.222 87.1826 139.828 86.1895 139.828 84.2031ZM158.725 87.4375C158.25 88.0059 157.579 88.4482 156.712 88.7646C155.845 89.0752 154.884 89.2305 153.829 89.2305C152.722 89.2305 151.749 88.9902 150.911 88.5098C150.079 88.0234 149.435 87.3203 148.978 86.4004C148.526 85.4805 148.295 84.3994 148.283 83.1572V82.2871C148.283 81.0098 148.497 79.9053 148.925 78.9736C149.358 78.0361 149.979 77.3213 150.788 76.8291C151.603 76.3311 152.555 76.082 153.645 76.082C155.162 76.082 156.349 76.4453 157.204 77.1719C158.06 77.8926 158.566 78.9443 158.725 80.3271H156.158C156.041 79.5947 155.78 79.0586 155.376 78.7188C154.978 78.3789 154.427 78.209 153.724 78.209C152.827 78.209 152.145 78.5459 151.676 79.2197C151.207 79.8936 150.97 80.8955 150.964 82.2256V83.043C150.964 84.3848 151.219 85.3984 151.729 86.084C152.238 86.7695 152.985 87.1123 153.97 87.1123C154.96 87.1123 155.666 86.9014 156.088 86.4795V84.2734H153.688V82.3311H158.725V87.4375ZM166.213 89.0547C166.096 88.8262 166.011 88.542 165.958 88.2021C165.343 88.8877 164.543 89.2305 163.559 89.2305C162.627 89.2305 161.854 88.9609 161.238 88.4219C160.629 87.8828 160.324 87.2031 160.324 86.3828C160.324 85.375 160.696 84.6016 161.44 84.0625C162.19 83.5234 163.271 83.251 164.684 83.2451H165.853V82.7002C165.853 82.2607 165.738 81.9092 165.51 81.6455C165.287 81.3818 164.933 81.25 164.446 81.25C164.019 81.25 163.682 81.3525 163.436 81.5576C163.195 81.7627 163.075 82.0439 163.075 82.4014H160.535C160.535 81.8506 160.705 81.3408 161.045 80.8721C161.385 80.4033 161.865 80.0371 162.486 79.7734C163.107 79.5039 163.805 79.3691 164.578 79.3691C165.75 79.3691 166.679 79.665 167.364 80.2568C168.056 80.8428 168.401 81.6689 168.401 82.7354V86.8574C168.407 87.7598 168.533 88.4424 168.779 88.9053V89.0547H166.213ZM164.112 87.2881C164.487 87.2881 164.833 87.2061 165.149 87.042C165.466 86.8721 165.7 86.6465 165.853 86.3652V84.7305H164.903C163.632 84.7305 162.955 85.1699 162.873 86.0488L162.864 86.1982C162.864 86.5146 162.976 86.7754 163.198 86.9805C163.421 87.1855 163.726 87.2881 164.112 87.2881ZM173.033 89.0547H170.484V75.5547H173.033V89.0547ZM177.814 89.0547H175.266V75.5547H177.814V89.0547ZM184.292 89.2305C182.897 89.2305 181.761 88.8027 180.882 87.9473C180.009 87.0918 179.572 85.9521 179.572 84.5283V84.2822C179.572 83.3271 179.757 82.4746 180.126 81.7246C180.495 80.9688 181.017 80.3887 181.69 79.9844C182.37 79.5742 183.144 79.3691 184.011 79.3691C185.312 79.3691 186.334 79.7793 187.078 80.5996C187.828 81.4199 188.203 82.583 188.203 84.0889V85.126H182.147C182.229 85.7471 182.476 86.2451 182.886 86.6201C183.302 86.9951 183.826 87.1826 184.459 87.1826C185.438 87.1826 186.202 86.8281 186.753 86.1191L188.001 87.5166C187.62 88.0557 187.104 88.4775 186.454 88.7822C185.804 89.0811 185.083 89.2305 184.292 89.2305ZM184.002 81.4258C183.498 81.4258 183.088 81.5957 182.771 81.9355C182.461 82.2754 182.262 82.7617 182.174 83.3945H185.707V83.1924C185.695 82.6299 185.543 82.1963 185.25 81.8916C184.957 81.5811 184.541 81.4258 184.002 81.4258ZM194.997 81.9268C194.651 81.8799 194.347 81.8564 194.083 81.8564C193.122 81.8564 192.492 82.1816 192.193 82.832V89.0547H189.653V79.5449H192.053L192.123 80.6787C192.633 79.8057 193.339 79.3691 194.241 79.3691C194.522 79.3691 194.786 79.4072 195.032 79.4834L194.997 81.9268ZM199.937 85.46L201.694 79.5449H204.419L200.596 90.5312L200.385 91.0322C199.816 92.2744 198.879 92.8955 197.572 92.8955C197.203 92.8955 196.828 92.8398 196.447 92.7285V90.8037L196.834 90.8125C197.314 90.8125 197.672 90.7393 197.906 90.5928C198.146 90.4463 198.334 90.2031 198.469 89.8633L198.768 89.0811L195.437 79.5449H198.17L199.937 85.46Z"/><path fill="#BE0F2C" d="M87.6795 49H61.7942C56.385 49 52 53.385 52 58.7942V84.6795C52 90.0887 56.385 94.4737 61.7942 94.4737H87.6795C93.0887 94.4737 97.4737 90.0887 97.4737 84.6795V58.7942C97.4737 53.385 93.0887 49 87.6795 49Z"/><path fill="#A30F27" d="M63.0849 51.9767C62.7419 51.9771 62.4131 52.1133 62.1708 52.3553C61.9286 52.5972 61.7926 52.9252 61.793 53.267C61.7933 53.6087 61.9298 53.9364 62.1725 54.1779C62.4152 54.4194 62.7443 54.555 63.0873 54.5548C63.4303 54.5546 63.7592 54.4188 64.0017 54.1771C64.2441 53.9354 64.3804 53.6076 64.3804 53.2658V53.2632C64.3798 52.9215 64.2429 52.5939 64 52.3527C63.7571 52.1114 63.4279 51.9761 63.0849 51.9766V51.9767ZM86.225 51.9767C85.882 51.9771 85.5532 52.1133 85.3109 52.3553C85.0687 52.5972 84.9327 52.9252 84.9331 53.267C84.9334 53.6088 85.07 53.9364 85.3127 54.1779C85.5554 54.4194 85.8845 54.555 86.2275 54.5548C86.5705 54.5546 86.8994 54.4187 87.1418 54.177C87.3843 53.9353 87.5205 53.6076 87.5205 53.2658V53.2632C87.5199 52.9215 87.383 52.5939 87.1401 52.3527C86.8972 52.1114 86.568 51.9761 86.225 51.9766V51.9767Z"/><path fill="#F5F5F5" d="M63.023 53.0847C62.5734 53.1088 62.5962 53.7627 62.5962 53.7627C65.0123 58.4679 69.4613 60.7758 74.5918 60.7761C79.7154 60.7686 84.2085 58.4352 86.6215 53.7362C86.6215 53.7362 86.7172 52.8514 85.7755 53.1581C83.3009 57.2598 79.1435 59.6863 74.5948 59.6939C70.0375 59.6951 65.8949 57.2941 63.4156 53.1846C63.2555 53.1073 63.1267 53.0791 63.023 53.0847ZM79.3756 71.3741L78.001 75.468L76.6628 71.3771H75.3565L77.4655 77.328H78.4825L79.8601 73.4188L81.2362 77.328H82.2615L84.366 71.3771H83.0923L81.7519 75.468L80.3773 71.3741H79.3756ZM72.0742 71.3756L69.407 77.325H70.6608L71.1757 76.1732L71.2122 76.0862H73.9834L74.5264 77.325H75.8145L73.1716 71.4104L73.148 71.3756H72.0742ZM91.3901 71.3763V77.3212H92.6022V71.3763L91.3901 71.3763ZM56.6367 71.377V77.3302H57.8655V74.9125H60.639V77.3303H61.8678V71.3771H60.639V73.779H57.8655V71.3771L56.6367 71.377ZM67.5539 71.3785V74.7861C67.5539 75.7541 67.0654 76.2708 66.1778 76.2708C65.2852 76.2708 64.7933 75.7396 64.7933 74.7452V71.3824H63.5652V74.7862C63.5652 76.4611 64.5121 77.4211 66.1618 77.4211C67.8271 77.4211 68.7819 76.4426 68.7819 74.737V71.3786L67.5539 71.3785ZM85.3563 71.3808V77.3257H89.9282V76.2421H86.5676V74.7679H88.8019V73.6836H86.5676V72.4653H89.8112V71.3809L85.3563 71.3808ZM72.5944 72.8821L73.4708 74.8754L73.53 75.0123H71.6724L71.7309 74.8754L72.5944 72.8821Z"/><defs><filter id="filter0_d_1173_434" width="340" height="164" x="0" y="0" color-interpolation-filters="sRGB" filterUnits="userSpaceOnUse"><feFlood flood-opacity="0" result="BackgroundImageFix"/><feColorMatrix in="SourceAlpha" result="hardAlpha" type="matrix" values="0 0 0 0 0 0 0 0 0 0 0 0 0 0 0 0 0 0 127 0"/><feOffset dy="11"/><feGaussianBlur stdDeviation="16"/><feComposite in2="hardAlpha" operator="out"/><feColorMatrix type="matrix" values="0 0 0 0 0 0 0 0 0 0 0 0 0 0 0 0 0 0 0.06 0"/><feBlend in2="BackgroundImageFix" mode="normal" result="effect1_dropShadow_1173_434"/><feBlend in="SourceGraphic" in2="effect1_dropShadow_1173_434" mode="normal" result="shape"/></filter></defs></svg>