<svg xmlns="http://www.w3.org/2000/svg" width="215" height="238" fill="none" viewBox="0 0 215 238"><g clip-path="url(#clip0_1173_648)" opacity=".4"><path fill="#FF4459" d="M34.0352 141.129L34.2483 137.267L34.8811 133.224L35.9268 129.074L37.3589 124.885L39.1574 120.722L41.2955 116.673L43.7334 112.79L46.4311 109.148L49.3352 105.812L52.4059 102.83L55.5831 100.262L58.8203 98.1469L187.968 23.4634L191.072 21.8756L194.136 20.7015L197.12 19.9677L199.991 19.6875L202.715 19.8476L205.253 20.4614L207.571 21.5154L209.643 22.9964L211.441 24.891L212.946 27.1659L214.139 29.7943L214.998 32.7496V108.787V119.661L214.305 122.103L213.912 123.457L212.547 127.267L210.915 131.049L209.03 134.758L206.918 138.354L204.6 141.803L202.103 145.052L199.458 148.08L196.687 150.849L193.83 153.324L190.912 155.485L187.968 157.3L167.053 169.388L129.899 221.717L92.7375 212.364L55.5831 233.851L51.2469 236.36L50.1878 236.86L47.5501 237.674L45.0323 238.001L42.6677 237.834L40.5229 237.174L38.6245 236.04L37.0192 234.452L35.7337 232.437L34.7945 230.042L34.2283 227.314L34.0352 224.305V141.129Z"/><path fill="#FF4459" d="M34.2756 137.274L34.0625 141.136V214.572L34.2557 227.314L34.8219 230.036L35.7611 232.431L37.0399 234.432L38.6385 236.02L40.5302 237.154L42.675 237.821L45.0263 237.988L47.5441 237.661L50.2085 236.847L51.2609 236.347C65.0489 228.341 78.8636 220.083 92.7582 212.331L129.886 228.208L167.027 169.408C180.349 161.697 177.784 163.578 190.88 155.499L193.797 153.344L196.655 150.869L199.419 148.107L202.083 145.079L204.581 141.823L206.899 138.381L209.004 134.785L210.889 131.076L212.521 127.3L213.9 123.471L214.979 112.13V32.7433L214.119 29.7946L212.934 27.1662L211.429 24.898L209.63 23.01L207.565 21.5357L205.254 20.4817L202.723 19.868L200.005 19.7012L197.141 19.988L194.157 20.7218L191.093 21.8893L187.989 23.4837L58.8276 98.1739L55.5971 100.289L52.4199 102.857L49.3559 105.832L46.4517 109.168L43.7874 112.81L41.3561 116.686L39.218 120.742L37.4196 124.892L35.9808 129.081L34.9417 133.237L34.2756 137.274V137.274Z"/><path fill="#EA2A43" d="M34.0371 141.128V224.304L0 204.617V121.448L0.213148 117.579L0.845932 113.543L1.88503 109.386L3.31712 105.197L5.12222 101.041L7.26036 96.9848L9.69159 93.1022L12.3892 89.4664L15.2934 86.1241L18.3641 83.1488L21.5413 80.5737L24.7785 78.459L58.8223 98.1455L55.5851 100.26L52.4078 102.829L49.3372 105.811L46.433 109.146L43.7354 112.789L41.2975 116.671L39.1593 120.721L37.3609 124.884L35.9288 129.073L34.883 133.222L34.2503 137.265L34.0438 141.088L34.0371 141.128Z"/><path fill="#FF7288" d="M214.133 29.8001L212.941 27.1316L214.133 29.8001ZM207.565 21.5211L173.528 1.83457L207.565 21.5211ZM173.528 1.83457L171.21 0.780554L173.528 1.83457ZM171.21 0.780554L168.672 0.166779L171.21 0.780554ZM168.672 0.166779L165.955 0L168.672 0.166779ZM165.955 0L163.077 0.286855L165.955 0ZM163.077 0.286855L160.093 1.02071L163.077 0.286855ZM160.093 1.02071L157.029 2.18816L160.093 1.02071ZM157.029 2.18816L153.925 3.78257L157.029 2.18816ZM191.066 21.8747L187.962 23.4691L191.066 21.8747ZM194.13 20.7073L191.066 21.8747L194.13 20.7073ZM197.121 19.9734L194.13 20.7073L197.121 19.9734ZM199.992 19.6866L197.121 19.9734L199.992 19.6866ZM202.716 19.8534L199.992 19.6866L202.716 19.8534ZM205.247 20.4671L202.716 19.8534L205.247 20.4671ZM207.565 21.5211L205.241 20.4671L207.559 21.5211H207.565ZM209.637 23.0022L207.565 21.5211L209.637 23.0022ZM211.442 24.8901L209.637 23.0022L211.442 24.8901ZM212.941 27.165L211.442 24.8901L212.941 27.165ZM207.565 21.5211L205.241 20.4671L202.71 19.8534L199.985 19.6866L197.114 19.9734L194.124 20.7073L191.06 21.8747L187.956 23.4691L58.8145 98.1193L24.7773 78.4394L153.952 3.78257L157.056 2.18816L160.12 1.02071L163.104 0.286855L165.981 0L168.699 0.166779L171.237 0.780554L173.555 1.83457L207.592 21.5211H207.565Z"/><path fill="#DBDBDB" d="M55.5862 233.852L52.8819 235.579L51.25 236.36L55.5862 233.852Z"/><path fill="#D02943" d="M40.5177 237.179L42.6692 237.846L40.5177 237.179ZM34.0566 214.57L0.0195312 194.884L34.0566 214.57ZM40.5377 237.179L6.50056 217.492L40.5377 237.179ZM0.0195312 194.884L0.206056 207.632L0.0195312 194.884ZM0.206056 207.632L0.778882 210.361L0.206056 207.632ZM0.778882 210.361L1.71134 212.756L0.778882 210.361ZM1.71134 212.756L2.99693 214.757L1.71134 212.756ZM2.99693 214.757L4.60222 216.345L2.99693 214.757ZM4.60222 216.345L6.50056 217.479L4.60222 216.345ZM34.0566 214.557L34.2498 227.299L34.816 230.034L35.7552 232.429L37.034 234.43L38.6393 236.018L40.5377 237.159L6.50056 217.472L4.60222 216.338L2.99693 214.75L1.71134 212.749L0.778882 210.354L0.206056 207.626L0.0195312 194.877L34.0566 214.564V214.557Z"/><path fill="#fff" fill-rule="evenodd" d="M145.329 82.3359C136.843 82.6495 127.458 90.6349 120.95 101.982C120.851 102.106 120.726 102.206 120.584 102.276C120.461 102.333 120.325 102.354 120.191 102.336V102.336C111.972 97.8797 101.84 99.0338 94.1137 106.339C83.2498 116.566 81.2382 135.025 89.6242 147.546C95.2527 155.965 115.901 165.398 126.579 171.162L126.279 171.002C126.849 171.172 127.462 171.115 127.991 170.842C128.627 170.528 129.169 170.052 129.563 169.461L129.33 169.881C137.782 155.158 154.501 128.22 157.852 115.598C162.841 96.8057 157.186 81.929 145.296 82.3693L145.329 82.3359ZM120.93 102.023L120.631 102.556C120.504 102.483 120.378 102.409 120.244 102.343C120.378 102.409 120.504 102.483 120.631 102.556L120.93 102.023Z" clip-rule="evenodd"/></g><defs><clipPath id="clip0_1173_648"><rect width="215" height="238" fill="#fff"/></clipPath></defs></svg>