<svg xmlns="http://www.w3.org/2000/svg" width="18" height="20" fill="none" viewBox="0 0 18 20"><path fill="#fff" d="M4.0292 20H0.297328V6.64702H4.0292V20ZM2.16125 4.82555C0.967923 4.82555 0 3.72732 0 2.40139C8.54135e-09 1.7645 0.227703 1.1537 0.633016 0.703352C1.03833 0.253003 1.58805 0 2.16125 0C2.73445 0 3.28418 0.253003 3.68949 0.703352C4.0948 1.1537 4.32251 1.7645 4.32251 2.40139C4.32251 3.72732 3.35418 4.82555 2.16125 4.82555ZM17.9964 20H14.2725V13.4999C14.2725 11.9507 14.2444 9.96406 12.3323 9.96406C10.392 9.96406 10.0947 11.6471 10.0947 13.3882V20H6.36684V6.64702H9.94602V8.46849H9.99826C10.4965 7.41936 11.7135 6.31219 13.5292 6.31219C17.3061 6.31219 18.0004 9.07565 18.0004 12.665V20H17.9964Z"/></svg>