<svg width="192" height="70" viewBox="0 0 192 70" fill="none" xmlns="http://www.w3.org/2000/svg">
<path d="M38.4854 60.9001H39.0121V62.5111H39.3655V60.9001H39.8911V60.623H38.4854V60.9001Z" fill="#191C1F"/>
<path d="M41.3662 61.9125L40.8691 60.623H40.3994V62.5111H40.7164V61.0859L41.2899 62.5111H41.4027L41.9659 61.0859V62.5111H42.3171V60.623H41.8519L41.3662 61.9125Z" fill="#191C1F"/>
<path d="M44.063 41.2166L48.6281 42.863L45.0721 39.8633L43.29 40.1483L44.063 41.2166Z" fill="#191C1F"/>
<path d="M26.7356 40.1483L24.9524 39.8633L21.3975 42.863L25.9625 41.2166L26.7356 40.1483Z" fill="#191C1F"/>
<path d="M25.9625 28.7783L21.3975 27.1309L24.9524 30.1317L26.7356 29.8455L25.9625 28.7783Z" fill="#191C1F"/>
<path d="M43.29 29.8455L45.0721 30.1317L48.6281 27.1309L44.063 28.7772L43.29 29.8455Z" fill="#191C1F"/>
<path d="M28.786 25.937L29.8543 26.71L30.1405 24.928L27.1396 21.373L28.786 25.937Z" fill="#191C1F"/>
<path d="M28.786 44.0582L27.1396 48.621L30.1405 45.0672L29.8543 43.2852L28.786 44.0582Z" fill="#191C1F"/>
<path d="M41.2176 25.937L42.8651 21.373L39.8643 24.928L40.1504 26.71L41.2176 25.937Z" fill="#191C1F"/>
<path d="M35.0309 29.0762C27.2404 29.2096 27.2416 40.7944 35.0309 40.9255C42.8214 40.7921 42.8203 29.2073 35.0309 29.0762ZM35.0309 39.0591C29.6951 38.9679 29.6963 31.0338 35.0309 30.9426C40.3667 31.0338 40.3656 38.9691 35.0309 39.0591Z" fill="#191C1F"/>
<path d="M41.2176 44.057L40.1504 43.2852L39.8643 45.0672L42.8651 48.621L41.2176 44.057Z" fill="#191C1F"/>
<path d="M37.3125 32.6469C37.308 32.607 37.2908 32.5739 37.2589 32.5477C37.2281 32.5215 37.1928 32.5078 37.154 32.5078H36.0504C35.9706 32.5078 35.9159 32.5477 35.8862 32.6275L35.0015 35.479L34.1236 32.6275C34.0996 32.5477 34.0483 32.5078 33.9685 32.5078H32.8512C32.8033 32.5078 32.7668 32.5215 32.7417 32.5489C32.7155 32.5762 32.7007 32.6081 32.6961 32.6469L32.2344 37.033C32.2344 37.1253 32.2811 37.1709 32.3735 37.1709H33.2867C33.3882 37.1709 33.4406 37.1253 33.4452 37.033L33.7257 34.6114L34.4519 37.0478C34.4542 37.0706 34.4702 37.0968 34.4987 37.1242C34.5272 37.1527 34.5545 37.1664 34.5808 37.1664H35.4302C35.4564 37.1664 35.4826 37.1516 35.5088 37.1231C35.535 37.0934 35.551 37.0683 35.5556 37.0478L36.2818 34.6045L36.5623 37.0319C36.5669 37.1242 36.6182 37.1698 36.7174 37.1698H37.6306C37.7252 37.1698 37.772 37.1288 37.772 37.0478V37.0319C37.6967 36.2953 37.6192 35.5634 37.5417 34.8382C37.4653 34.1143 37.3878 33.3834 37.3125 32.6469Z" fill="#191C1F"/>
<path d="M41.9995 30.3072C42.1329 30.2935 47.7937 21.974 48.0046 22.1906C50.3544 24.5712 52.0521 27.5937 52.8159 30.9662L54.9263 31.3254C53.3564 22.6102 46.1872 16.0761 37.4652 14.8425L35.1006 0.0743935C35.0846 -0.0247978 34.9421 -0.0247978 34.9262 0.0743935L32.5604 14.8414C23.8418 16.075 16.6738 22.6056 15.1016 31.3151L17.2131 30.956C17.9781 27.5869 19.6758 24.5689 22.0222 22.1895C22.2399 21.974 27.8904 30.2924 28.0284 30.3061C28.1561 30.6379 17.147 32.0904 17.0398 32.177L14.8952 32.5236C13.4735 32.7984 1.29461 34.7001 0.225171 34.8917L0.234292 34.8871C-0.13283 34.9122 -0.0290782 35.1174 0.274196 35.1186L0.225171 35.0969C8.35886 36.416 19.8377 38.2539 27.9702 39.5537C28.3408 39.6654 22.1065 47.6623 22.159 47.7991C19.6712 45.7708 18.018 42.3162 17.2108 39.0315L15.1004 38.6724C16.6693 47.3887 23.8384 53.9239 32.5615 55.1586L34.9273 69.9256C34.9433 70.0248 35.0858 70.0248 35.1018 69.9256L37.4675 55.1586C46.1861 53.925 53.3552 47.3944 54.9275 38.6838L52.8159 39.0429C52.0509 42.412 50.3533 45.431 48.0069 47.8105C47.7891 48.026 42.1386 39.7076 42.0007 39.6939C41.8616 39.3576 52.8809 37.9222 52.9813 37.8184C57.5954 36.9268 65.6527 36.0341 70 34.9384L56.5978 32.7733C54.1248 32.2454 44.3881 31.0677 41.9995 30.3072ZM37.9304 16.9814C41.7556 17.5971 45.1862 19.4064 47.8279 22.0116C48.0434 22.2294 39.7227 27.8776 39.709 28.0156C39.6554 28.0543 39.5802 28.0224 39.5699 27.9574C39.6691 27.848 37.5815 16.9552 37.9304 16.9814ZM22.2103 22.1485C24.4963 19.4007 28.3613 17.6404 32.0975 16.9814C32.4464 16.9517 30.3588 27.8525 30.458 27.9586C30.3463 28.328 22.3471 22.096 22.2103 22.1485ZM32.0975 53.0175C28.2724 52.4007 24.8417 50.5924 22.2 47.9872C21.9846 47.7695 30.3052 42.1213 30.3189 41.9833C30.3725 41.9445 30.4477 41.9765 30.458 42.0414C30.3588 42.1475 32.4464 53.046 32.0975 53.0175ZM47.8165 47.8504C45.5317 50.5981 41.6655 52.3585 37.9293 53.0175C37.5804 53.0471 39.668 42.1463 39.5688 42.0403C39.6805 41.6709 47.6808 47.9029 47.8165 47.8504ZM59.4994 35.1813H42.768C42.6893 38.6028 40.3954 41.4759 37.2634 42.4234C37.0993 42.4245 35.3902 60.2801 34.9615 59.7214V42.7552C31.5696 42.7324 28.6965 40.5353 27.6647 37.4878L10.4031 35.3683C9.87181 34.8803 27.2679 35.35 27.2588 35.1927C27.1573 31.6606 29.4832 28.5947 32.6915 27.5971C32.8546 27.596 34.5214 10.095 34.9501 10.6537V27.246C38.5313 27.2106 41.5731 29.6277 42.4864 32.9181C42.4909 33.0789 60.0569 34.7526 59.4994 35.1813Z" fill="#191C1F"/>
<path d="M14.8791 28.9167L12.4757 28.2109L12.3525 28.6305L14.7559 29.3362C14.7958 29.196 14.8369 29.0558 14.8791 28.9167Z" fill="#191C1F"/>
<path d="M18.7109 48.2695L16.7373 49.9033L17.0166 50.2397L18.9913 48.6047C18.8956 48.4953 18.8032 48.3824 18.7109 48.2695Z" fill="#191C1F"/>
<path d="M15.673 26.7399L13.3631 25.7754L13.1943 26.179L15.5054 27.1447C15.559 27.009 15.6148 26.8745 15.673 26.7399Z" fill="#191C1F"/>
<path d="M16.4446 25.0817L14.2293 23.9199L14.0264 24.3064L16.2416 25.4682C16.3078 25.3394 16.375 25.2105 16.4446 25.0817Z" fill="#191C1F"/>
<path d="M14.3708 30.9743L11.907 30.5137L11.8271 30.9435L14.2921 31.4041C14.3161 31.2605 14.3434 31.1168 14.3708 30.9743Z" fill="#191C1F"/>
<path d="M21.9082 54.6252L22.2742 54.8647L23.6868 52.7121C23.5637 52.6334 23.4417 52.5536 23.3208 52.4727L21.9082 54.6252Z" fill="#191C1F"/>
<path d="M20.0065 49.7363L18.1914 51.5514L18.5004 51.8604L20.3155 50.0453C20.2117 49.9427 20.108 49.8412 20.0065 49.7363Z" fill="#191C1F"/>
<path d="M21.6258 51.209L20.0068 53.2054L20.3466 53.4813L21.9667 51.4849C21.8516 51.3937 21.7376 51.3013 21.6258 51.209Z" fill="#191C1F"/>
<path d="M55.1602 28.9997L57.5511 28.2552L57.4211 27.8379L55.0303 28.5835C55.0747 28.7215 55.1181 28.8595 55.1602 28.9997Z" fill="#191C1F"/>
<path d="M54.5452 27.2658L56.8619 26.3149L56.6966 25.9102L54.3799 26.861C54.4357 26.9956 54.4916 27.1301 54.5452 27.2658Z" fill="#191C1F"/>
<path d="M53.5994 25.1575L55.7942 23.9593L55.5844 23.5762L53.3896 24.7744C53.4615 24.901 53.531 25.0298 53.5994 25.1575Z" fill="#191C1F"/>
<path d="M55.6649 30.9911L58.1196 30.4814L58.0307 30.0527L55.5771 30.5624C55.6079 30.706 55.6376 30.8485 55.6649 30.9911Z" fill="#191C1F"/>
<path d="M42.7529 54.5375L43.7312 56.9204L44.1359 56.754L43.1577 54.3711C43.022 54.4281 42.8875 54.484 42.7529 54.5375Z" fill="#191C1F"/>
<path d="M52.4307 46.7477L54.5707 48.1512L54.8101 47.7852L52.6701 46.3828C52.5914 46.5048 52.5116 46.6268 52.4307 46.7477Z" fill="#191C1F"/>
<path d="M53.5068 44.9986L55.7689 46.1855L55.9718 45.799L53.7109 44.6133C53.6448 44.7421 53.5764 44.8698 53.5068 44.9986Z" fill="#191C1F"/>
<path d="M54.3047 43.3536L56.6545 44.3353L56.8232 43.9317L54.4746 42.9512C54.4198 43.0868 54.3628 43.2202 54.3047 43.3536Z" fill="#191C1F"/>
<path d="M44.8691 53.5653L46.1039 55.825L46.4881 55.6152L45.2534 53.3555C45.1257 53.4262 44.998 53.4957 44.8691 53.5653Z" fill="#191C1F"/>
<path d="M55.1035 41.186L57.5388 41.9009L57.662 41.4813L55.2289 40.7676C55.189 40.9067 55.1468 41.0469 55.1035 41.186Z" fill="#191C1F"/>
<path d="M55.6191 39.129L58.1046 39.5931L58.1844 39.1633L55.7001 38.6992C55.675 38.8429 55.6476 38.9865 55.6191 39.129Z" fill="#191C1F"/>
<path d="M46.6885 52.4798L48.1433 54.6027L48.5036 54.3553L47.0488 52.2324C46.9302 52.3168 46.8093 52.4 46.6885 52.4798Z" fill="#191C1F"/>
<path d="M17.5549 46.7344L15.4434 48.1812L15.6908 48.5415L17.8034 47.0947C17.7191 46.9749 17.637 46.8541 17.5549 46.7344Z" fill="#191C1F"/>
<path d="M51.1768 48.4394L53.1686 50.0538L53.4445 49.714L51.4538 48.0996C51.3626 48.2136 51.2702 48.3265 51.1768 48.4394Z" fill="#191C1F"/>
<path d="M49.8798 49.8632C49.8194 49.9236 49.7579 49.9841 49.6963 50.0434L51.5114 51.8584L51.8204 51.5495L50.0053 49.7344C49.9631 49.7777 49.922 49.821 49.8798 49.8632Z" fill="#191C1F"/>
<path d="M48.1963 51.3477L49.8369 53.327L50.1733 53.0476L48.5338 51.0684C48.422 51.163 48.3092 51.2565 48.1963 51.3477Z" fill="#191C1F"/>
<path d="M30.4463 58.1605L30.8761 58.2403L31.3481 55.7138C31.2045 55.6887 31.0608 55.6613 30.9183 55.6328L30.4463 58.1605Z" fill="#191C1F"/>
<path d="M14.872 41.0977L12.4492 41.8524L12.5792 42.2697L15.0031 41.5138C14.9586 41.3759 14.9142 41.2368 14.872 41.0977Z" fill="#191C1F"/>
<path d="M23.8584 55.8009L24.246 56.0039L25.4432 53.7225C25.3132 53.6563 25.1844 53.5891 25.0555 53.5195L23.8584 55.8009Z" fill="#191C1F"/>
<path d="M14.3689 39.1152L11.8926 39.6294L11.9815 40.0581L14.459 39.5428C14.4282 39.4014 14.3974 39.2577 14.3689 39.1152Z" fill="#191C1F"/>
<path d="M16.4661 44.9219L14.2246 46.1452L14.4344 46.5283L16.677 45.3038C16.6052 45.1784 16.5345 45.0507 16.4661 44.9219Z" fill="#191C1F"/>
<path d="M42.2264 57.4687L41.4603 55.0117C41.3212 55.0562 41.1821 55.1006 41.043 55.1417L41.8091 57.5975L42.2264 57.4687Z" fill="#191C1F"/>
<path d="M15.4833 42.8281L13.1289 43.7938L13.2954 44.1986L15.652 43.2317C15.5927 43.0983 15.5369 42.9638 15.4833 42.8281Z" fill="#191C1F"/>
<path d="M28.1484 57.5856L28.568 57.7087L29.2931 55.2403C29.1529 55.2004 29.0127 55.1594 28.8736 55.1172L28.1484 57.5856Z" fill="#191C1F"/>
<path d="M25.7227 56.6963L26.1263 56.8651L27.1193 54.489C26.9848 54.4343 26.8502 54.3785 26.7157 54.3203L25.7227 56.6963Z" fill="#191C1F"/>
<path d="M39.0342 55.6378L39.5575 58.1551L39.9862 58.0662L39.4629 55.5488C39.3204 55.5796 39.1778 55.6093 39.0342 55.6378Z" fill="#191C1F"/>
<path d="M30.9333 14.3645L30.4316 11.9531L30.0029 12.0421L30.5046 14.4546C30.6482 14.4226 30.7908 14.393 30.9333 14.3645Z" fill="#191C1F"/>
<path d="M39.5163 11.9489L39.0864 11.8691L38.6338 14.2896C38.7774 14.3147 38.92 14.3421 39.0636 14.3706L39.5163 11.9489Z" fill="#191C1F"/>
<path d="M17.5059 23.3263L15.4172 21.957L15.1777 22.323L17.2676 23.6935C17.3451 23.5692 17.4249 23.4472 17.5059 23.3263Z" fill="#191C1F"/>
<path d="M18.7783 21.6246L16.8423 20.0547L16.5664 20.3944L18.5035 21.9644C18.5947 21.8504 18.6859 21.7364 18.7783 21.6246Z" fill="#191C1F"/>
<path d="M23.2765 17.5555L21.873 15.5078L21.5127 15.7552L22.9162 17.804C23.0359 17.7197 23.1556 17.6364 23.2765 17.5555Z" fill="#191C1F"/>
<path d="M20.1221 20.1346C20.1643 20.0925 20.2076 20.0514 20.2498 20.0092L18.4906 18.25L18.1816 18.559L19.942 20.3182C20.0024 20.2578 20.0617 20.1962 20.1221 20.1346Z" fill="#191C1F"/>
<path d="M21.7113 18.6944L20.1265 16.7812L19.7891 17.0606L21.375 18.9737C21.4856 18.8791 21.5973 18.7867 21.7113 18.6944Z" fill="#191C1F"/>
<path d="M25.082 16.4586L23.894 14.2832L23.5098 14.493L24.6989 16.6695C24.8255 16.5977 24.9532 16.5281 25.082 16.4586Z" fill="#191C1F"/>
<path d="M50.0276 20.3201L51.7879 18.5609L51.4789 18.252L49.7197 20.0112C49.8246 20.1115 49.9261 20.2153 50.0276 20.3201Z" fill="#191C1F"/>
<path d="M48.1003 15.4875L47.7344 15.248L46.373 17.3231C46.495 17.4018 46.617 17.4827 46.7379 17.5637L48.1003 15.4875Z" fill="#191C1F"/>
<path d="M51.3417 21.794L53.2628 20.2035L52.9835 19.8672L51.0635 21.4565C51.1581 21.5671 51.2505 21.68 51.3417 21.794Z" fill="#191C1F"/>
<path d="M28.9347 14.8672L28.2005 12.5117L27.7832 12.6417L28.5186 14.9983C28.6554 14.9527 28.7945 14.9094 28.9347 14.8672Z" fill="#191C1F"/>
<path d="M27.1899 15.4757L26.2505 13.1875L25.8457 13.354L26.7852 15.6422C26.9197 15.5863 27.0542 15.5305 27.1899 15.4757Z" fill="#191C1F"/>
<path d="M52.4896 23.3382L54.5498 21.9267L54.3024 21.5664L52.2422 22.9779C52.3266 23.0965 52.4086 23.2173 52.4896 23.3382Z" fill="#191C1F"/>
<path d="M48.4197 18.8351L49.9862 16.9048L49.6464 16.6289L48.0811 18.558C48.1939 18.6492 48.3068 18.7416 48.4197 18.8351Z" fill="#191C1F"/>
<path d="M46.1368 14.3084L45.7492 14.1055L44.5977 16.3002C44.7276 16.3675 44.8565 16.4348 44.9842 16.5043L46.1368 14.3084Z" fill="#191C1F"/>
<path d="M41.8279 12.5216L41.4084 12.3984L40.7129 14.7653C40.8531 14.8053 40.9934 14.8463 41.1325 14.8896L41.8279 12.5216Z" fill="#191C1F"/>
<path d="M44.27 13.4148L43.8664 13.2461L42.9121 15.5275C43.0466 15.5822 43.1812 15.6392 43.3157 15.6974L44.27 13.4148Z" fill="#191C1F"/>
<path d="M93.2761 22.8242L88.3074 34.8925L83.3649 22.8242H78.6414L76.8662 41.9362H81.6992L82.5726 31.4789L86.7511 41.7184H89.891L94.0685 31.4789L94.9418 41.9362H99.7748L97.9996 22.8242H93.2761Z" fill="#191C1F"/>
<path d="M107.549 35.9868L104.572 27.7949H99.3574L105.201 40.6829L102.006 47.9182H106.73L115.713 27.7949H110.662L107.549 35.9868Z" fill="#191C1F"/>
<path d="M127.194 38.9756L119.61 22.4551H116.963V42.0368H119.334V27.1718H119.472L126.312 42.0368H128.105L134.945 27.1718H135.083V42.0368H137.454V22.4551H134.806L127.194 38.9756Z" fill="#191C1F"/>
<path d="M146.34 27.4199C142.616 27.4199 138.893 30.0673 138.893 34.8661C138.893 39.6661 142.616 42.3134 146.34 42.3134C150.062 42.3134 153.786 39.6661 153.786 34.8661C153.786 30.0684 150.062 27.4199 146.34 27.4199ZM146.34 40.1905C143.691 40.1905 141.209 38.2603 141.209 34.8673C141.209 31.4754 143.691 29.5451 146.34 29.5451C148.986 29.5451 151.469 31.4754 151.469 34.8673C151.469 38.2591 148.986 40.1905 146.34 40.1905Z" fill="#191C1F"/>
<path d="M162.389 27.4199C159.907 27.4199 158.335 28.6615 157.59 30.0399V27.6958H155.273V42.0375H157.59V33.9289C157.59 31.033 159.382 29.544 161.672 29.544C163.96 29.544 165.67 31.033 165.67 33.9289V42.0375H167.987V33.5983C167.988 29.2966 165.396 27.4199 162.389 27.4199Z" fill="#191C1F"/>
<path d="M173.271 24.0273H170.955V27.6963H169.024V29.5992H170.955V39.1135C170.955 41.265 172.251 42.2033 174.154 42.2033C174.816 42.2033 175.588 42.0927 176.084 41.7073V39.8592C175.561 40.053 175.118 40.1077 174.788 40.1077C173.713 40.1077 173.271 39.5559 173.271 38.6734V29.5992H176.113V27.6963H173.271V24.0273V24.0273Z" fill="#191C1F"/>
<path d="M189.229 27.6934L184.457 39.1665L179.687 27.6934H177.287L183.326 41.8971L180.955 47.2751H183.244L185.534 42.0339L191.629 27.6934H189.229Z" fill="#191C1F"/>
</svg>
