<svg cache-id="9512b221fc07470d967c01794c961791" id="erBnYlHOy481" xmlns="http://www.w3.org/2000/svg" xmlns:xlink="http://www.w3.org/1999/xlink" viewBox="0 0 760 760" shape-rendering="geometricPrecision" text-rendering="geometricPrecision"><g id="erBnYlHOy482" transform="matrix(1 0 0 1 0.000001 0)"><g id="erBnYlHOy483"><path id="erBnYlHOy484" d="M335.7,155.9L330.3,129.7L325.7,130.7L331.1,156.9C332.5,156.6,334.1,156.3,335.7,155.9Z" fill="rgb(236,236,236)" stroke="none" stroke-width="1"/><path id="erBnYlHOy485" d="M429.2,129.7L424.6,128.8L419.7,155.1C421.2,155.4,422.8,155.7,424.3,156L429.2,129.7Z" fill="rgb(236,236,236)" stroke="none" stroke-width="1"/><path id="erBnYlHOy486" d="M190.1,253.2L167.4,238.3L164.8,242.2L187.5,257.1C188.3,255.9,189.2,254.5,190.1,253.2Z" fill="rgb(236,236,236)" stroke="none" stroke-width="1"/><path id="erBnYlHOy487" d="M203.8,234.7L182.8,217.7L179.8,221.4L200.8,238.5C201.8,237.2,202.8,235.9,203.8,234.7Z" fill="rgb(236,236,236)" stroke="none" stroke-width="1"/><path id="erBnYlHOy488" d="M252.5,190.6L237.2,168.4L233.3,171.1L248.6,193.3C249.9,192.3,251.3,191.4,252.5,190.6Z" fill="rgb(236,236,236)" stroke="none" stroke-width="1"/><path id="erBnYlHOy489" d="M218.5,218.6C219,218.1,219.4,217.7,219.9,217.2L200.8,198.1L197.4,201.5L216.5,220.6C217.2,219.9,217.8,219.2,218.5,218.6Z" fill="rgb(236,236,236)" stroke="none" stroke-width="1"/><path id="erBnYlHOy4810" d="M235.8,203L218.6,182.2L214.9,185.2L232.1,206C233.4,204.9,234.6,203.9,235.8,203Z" fill="rgb(236,236,236)" stroke="none" stroke-width="1"/><path id="erBnYlHOy4811" d="M272.3,178.7L259.4,155L255.2,157.3L268.1,180.9C269.6,180.2,271,179.4,272.3,178.7Z" fill="rgb(236,236,236)" stroke="none" stroke-width="1"/><path id="erBnYlHOy4812" d="M543.3,220.6L562.4,201.5L559,198.1L539.9,217.2C541.1,218.3,542.2,219.4,543.3,220.6Z" fill="rgb(236,236,236)" stroke="none" stroke-width="1"/><path id="erBnYlHOy4813" d="M522.2,168.1L518.3,165.5L503.4,188C504.7,188.9,506.1,189.7,507.3,190.6L522.2,168.1Z" fill="rgb(236,236,236)" stroke="none" stroke-width="1"/><path id="erBnYlHOy4814" d="M557.6,236.6L578.5,219.3L575.5,215.6L554.6,232.8C555.5,234.1,556.5,235.3,557.6,236.6Z" fill="rgb(236,236,236)" stroke="none" stroke-width="1"/><path id="erBnYlHOy4815" d="M314.1,161.4L306.1,135.8L301.6,137.2L309.6,162.8C311,162.3,312.5,161.8,314.1,161.4Z" fill="rgb(236,236,236)" stroke="none" stroke-width="1"/><path id="erBnYlHOy4816" d="M295.2,168L285,143.1L280.6,144.9L290.8,169.8C292.2,169.2,293.7,168.6,295.2,168Z" fill="rgb(236,236,236)" stroke="none" stroke-width="1"/><path id="erBnYlHOy4817" d="M569.9,253.3L592.3,238L589.6,234.1L567.2,249.4C568.1,250.7,569,252,569.9,253.3Z" fill="rgb(236,236,236)" stroke="none" stroke-width="1"/><path id="erBnYlHOy4818" d="M525.9,204.4L542.9,183.4L539.2,180.4L522.2,201.4C523.4,202.4,524.6,203.4,525.9,204.4Z" fill="rgb(236,236,236)" stroke="none" stroke-width="1"/><path id="erBnYlHOy4819" d="M500.8,155.3L496.6,153.1L484.1,176.9C485.5,177.6,486.9,178.3,488.3,179.1L500.8,155.3Z" fill="rgb(236,236,236)" stroke="none" stroke-width="1"/><path id="erBnYlHOy4820" d="M454.2,135.9L449.7,134.6L442.2,160.3C443.7,160.7,445.2,161.2,446.7,161.6L454.2,135.9Z" fill="rgb(236,236,236)" stroke="none" stroke-width="1"/><path id="erBnYlHOy4821" d="M480.7,145.6L476.3,143.8L466,168.5C467.4,169.1,468.9,169.7,470.4,170.3L480.7,145.6Z" fill="rgb(236,236,236)" stroke="none" stroke-width="1"/><polygon id="erBnYlHOy4822" points="478.6,447.5 528.2,465.3 489.5,432.7 470.1,435.8" fill="rgb(236,236,236)" stroke="none" stroke-width="1"/><polygon id="erBnYlHOy4823" points="290.2,435.8 270.8,432.7 232.2,465.3 281.7,447.5" fill="rgb(236,236,236)" stroke="none" stroke-width="1"/><polygon id="erBnYlHOy4824" points="281.7,312.4 232.2,294.6 270.8,327.1 290.2,324" fill="rgb(236,236,236)" stroke="none" stroke-width="1"/><polygon id="erBnYlHOy4825" points="470.1,324 489.5,327.1 528.2,294.6 478.6,312.4" fill="rgb(236,236,236)" stroke="none" stroke-width="1"/><polygon id="erBnYlHOy4826" points="312.6,281.6 324.2,290 327.3,270.6 294.7,232" fill="rgb(236,236,236)" stroke="none" stroke-width="1"/><polygon id="erBnYlHOy4827" points="312.6,478.3 294.7,527.8 327.3,489.2 324.2,469.9" fill="rgb(236,236,236)" stroke="none" stroke-width="1"/><polygon id="erBnYlHOy4828" points="447.7,281.6 465.6,232 433,270.6 436.1,290" fill="rgb(236,236,236)" stroke="none" stroke-width="1"/><polygon id="erBnYlHOy4829" points="447.7,478.3 436.1,469.9 433,489.2 465.6,527.8" fill="rgb(236,236,236)" stroke="none" stroke-width="1"/><path id="erBnYlHOy4830" d="M456,329C457.4,328.8,518.9,238.5,521.2,240.9C546.7,266.7,565.2,299.5,573.4,336.2L596.3,340.1C579.3,245.5,501.4,174.5,406.7,161.2L381.1,0.8C380.9,-0.3,379.4,-0.3,379.2,0.8L353.5,161.1C258.8,174.5,181,245.4,163.9,340L186.8,336.1C195.1,299.6,213.5,266.7,239,240.9C241.3,238.6,302.7,328.9,304.2,329C305.6,332.6,186.1,348.4,184.9,349.3L161.6,353C146.2,356,13.9,376.6,2.3,378.7L2.4,378.6C-1.6,378.9,-0.5,381.1,2.8,381.1L2.5,381C90.8,395.3,215.5,415.3,303.8,429.4C307.8,430.6,240.1,517.4,240.7,518.9C213.7,496.9,195.7,459.4,187,423.7L164.1,419.8C181.1,514.4,259,585.4,353.7,598.8L379.4,759.1C379.6,760.2,381.1,760.2,381.3,759.1L407,598.8C501.7,585.4,579.5,514.5,596.6,420L573.7,423.9C565.4,460.5,547,493.3,521.5,519.1C519.2,521.4,457.8,431.1,456.3,431C454.8,427.4,574.4,411.8,575.5,410.6C625.6,400.9,713.1,391.2,760.3,379.3L614.8,355.8C587.6,350,481.9,337.2,456,329ZM411.8,184.3L411.8,184.3C453.3,191,490.6,210.6,519.3,238.9C521.6,241.2,431.3,302.6,431.1,304.1C430.5,304.5,429.7,304.2,429.6,303.5C430.7,302.3,408,184.1,411.8,184.3ZM241.1,240.4C265.9,210.6,307.9,191.5,348.5,184.3C352.3,184,329.6,302.3,330.7,303.5C329.5,307.5,242.6,239.9,241.1,240.4ZM348.5,575.6C307,568.9,269.7,549.3,241,521C238.7,518.7,329,457.3,329.2,455.8C329.8,455.4,330.6,455.7,330.7,456.4C329.6,457.5,352.3,575.9,348.5,575.6ZM519.2,519.4C494.4,549.2,452.4,568.3,411.8,575.5C408,575.8,430.7,457.5,429.6,456.3C430.8,452.4,517.7,520,519.2,519.4ZM646,381.9L464.4,381.9C463.5,419,438.6,450.2,404.6,460.5C402.8,460.5,384.3,654.3,379.6,648.3L379.6,464.2C342.8,463.9,311.6,440.1,300.4,407L113,384C107.2,378.7,296.1,383.8,296,382.1C294.9,343.7,320.2,310.4,355,299.6C356.8,299.6,374.8,109.6,379.5,115.6L379.5,295.7C418.4,295.3,451.4,321.6,461.4,357.3C461.3,359.1,652.1,377.3,646,381.9Z" fill="rgb(236,236,236)" stroke="none" stroke-width="1"/><path id="erBnYlHOy4831" d="M161.4,313.9L135.3,306.2L134,310.7L160.1,318.4C160.4,317,160.9,315.4,161.4,313.9Z" fill="rgb(236,236,236)" stroke="none" stroke-width="1"/><path id="erBnYlHOy4832" d="M203,524L181.5,541.8L184.5,545.5L206,527.7C205,526.5,203.9,525.3,203,524Z" fill="rgb(236,236,236)" stroke="none" stroke-width="1"/><path id="erBnYlHOy4833" d="M170.1,290.3L145,279.8L143.2,284.2L168.3,294.7C168.8,293.2,169.4,291.7,170.1,290.3Z" fill="rgb(236,236,236)" stroke="none" stroke-width="1"/><path id="erBnYlHOy4834" d="M178.7,272.3L154.6,259.7L152.4,263.9L176.5,276.5C177.2,275.1,178,273.7,178.7,272.3Z" fill="rgb(236,236,236)" stroke="none" stroke-width="1"/><path id="erBnYlHOy4835" d="M155.8,336.3L129.1,331.3L128.2,335.9L155,340.9C155.2,339.4,155.5,337.8,155.8,336.3Z" fill="rgb(236,236,236)" stroke="none" stroke-width="1"/><path id="erBnYlHOy4836" d="M257,572.2C255.7,571.3,254.3,570.5,253.1,569.6L237.8,593L241.7,595.6L257,572.2Z" fill="rgb(236,236,236)" stroke="none" stroke-width="1"/><path id="erBnYlHOy4837" d="M217.2,539.9L197.5,559.6L200.9,563L220.6,543.3C219.4,542.2,218.3,541,217.2,539.9Z" fill="rgb(236,236,236)" stroke="none" stroke-width="1"/><path id="erBnYlHOy4838" d="M217.1,577.6L220.8,580.6L238.4,558.9C237.2,557.9,235.9,556.9,234.7,555.9L217.1,577.6Z" fill="rgb(236,236,236)" stroke="none" stroke-width="1"/><path id="erBnYlHOy4839" d="M598.9,314.8L624.8,306.7L623.4,302.2L597.5,310.3C597.9,311.8,598.4,313.3,598.9,314.8Z" fill="rgb(236,236,236)" stroke="none" stroke-width="1"/><path id="erBnYlHOy4840" d="M592.3,296L617.4,285.7L615.6,281.3L590.5,291.6C591.1,293.1,591.8,294.5,592.3,296Z" fill="rgb(236,236,236)" stroke="none" stroke-width="1"/><path id="erBnYlHOy4841" d="M581.8,273.1L605.7,260.1L603.4,255.9L579.5,268.9C580.2,270.3,581,271.7,581.8,273.1Z" fill="rgb(236,236,236)" stroke="none" stroke-width="1"/><path id="erBnYlHOy4842" d="M604.2,336.4L630.8,330.9L629.8,326.3L603.2,331.8C603.6,333.3,603.9,334.8,604.2,336.4Z" fill="rgb(236,236,236)" stroke="none" stroke-width="1"/><path id="erBnYlHOy4843" d="M468.7,590.2C467.3,590.8,465.8,591.4,464.3,592L474.9,617.9L479.3,616.1L468.7,590.2Z" fill="rgb(236,236,236)" stroke="none" stroke-width="1"/><path id="erBnYlHOy4844" d="M569.3,507.5L592.6,522.8L595.2,518.9L572,503.6C571.1,504.9,570.2,506.2,569.3,507.5Z" fill="rgb(236,236,236)" stroke="none" stroke-width="1"/><path id="erBnYlHOy4845" d="M580.8,488.5L605.3,501.4L607.5,497.2L583,484.3C582.3,485.7,581.6,487.1,580.8,488.5Z" fill="rgb(236,236,236)" stroke="none" stroke-width="1"/><path id="erBnYlHOy4846" d="M589.5,470.6L615,481.3L616.8,476.9L591.3,466.2C590.8,467.7,590.2,469.2,589.5,470.6Z" fill="rgb(236,236,236)" stroke="none" stroke-width="1"/><path id="erBnYlHOy4847" d="M491.2,579.2C489.8,579.9,488.4,580.7,487,581.5L500.4,606L504.6,603.7L491.2,579.2Z" fill="rgb(236,236,236)" stroke="none" stroke-width="1"/><path id="erBnYlHOy4848" d="M598.3,447L624.7,454.7L626,450.2L599.6,442.5C599.2,444,598.7,445.5,598.3,447Z" fill="rgb(236,236,236)" stroke="none" stroke-width="1"/><path id="erBnYlHOy4849" d="M631.8,425.2L604.9,420.2C604.6,421.7,604.3,423.3,604,424.8L631,429.8L631.8,425.2Z" fill="rgb(236,236,236)" stroke="none" stroke-width="1"/><path id="erBnYlHOy4850" d="M506.8,569.7L522.6,592.7L526.5,590L510.7,567C509.4,567.9,508.1,568.8,506.8,569.7Z" fill="rgb(236,236,236)" stroke="none" stroke-width="1"/><path id="erBnYlHOy4851" d="M193.3,511.3C192.4,510,191.5,508.7,190.6,507.4L167.7,523.1L170.4,527L193.3,511.3Z" fill="rgb(236,236,236)" stroke="none" stroke-width="1"/><path id="erBnYlHOy4852" d="M580.1,539.7L558.5,522.2C557.5,523.4,556.5,524.7,555.5,525.9L577.1,543.5L580.1,539.7Z" fill="rgb(236,236,236)" stroke="none" stroke-width="1"/><path id="erBnYlHOy4853" d="M541.4,541.3C540.8,541.9,540.1,542.6,539.4,543.3L559.1,563L562.5,559.6L542.8,539.9C542.3,540.3,541.9,540.8,541.4,541.3Z" fill="rgb(236,236,236)" stroke="none" stroke-width="1"/><path id="erBnYlHOy4854" d="M523.5,557.4L541.3,578.9L545,575.9L527.2,554.4C526,555.4,524.7,556.4,523.5,557.4Z" fill="rgb(236,236,236)" stroke="none" stroke-width="1"/><path id="erBnYlHOy4855" d="M335.8,603.9L330.7,631.3L335.4,632.2L340.5,604.8C338.9,604.5,337.4,604.3,335.8,603.9Z" fill="rgb(236,236,236)" stroke="none" stroke-width="1"/><path id="erBnYlHOy4856" d="M135.2,454.3L136.6,458.8L162.9,450.6C162.4,449.1,161.9,447.6,161.5,446.1L135.2,454.3Z" fill="rgb(236,236,236)" stroke="none" stroke-width="1"/><path id="erBnYlHOy4857" d="M272.1,581L259.1,605.8L263.3,608L276.3,583.2C274.9,582.5,273.5,581.8,272.1,581Z" fill="rgb(236,236,236)" stroke="none" stroke-width="1"/><path id="erBnYlHOy4858" d="M129.1,430.2L130.1,434.8L157,429.2C156.7,427.7,156.3,426.1,156,424.6L129.1,430.2Z" fill="rgb(236,236,236)" stroke="none" stroke-width="1"/><path id="erBnYlHOy4859" d="M154.4,501L156.7,505.2L181,491.9C180.2,490.5,179.5,489.1,178.7,487.7L154.4,501Z" fill="rgb(236,236,236)" stroke="none" stroke-width="1"/><path id="erBnYlHOy4860" d="M458.4,623.8L450.1,597.1C448.6,597.6,447.1,598.1,445.6,598.5L453.9,625.2L458.4,623.8Z" fill="rgb(236,236,236)" stroke="none" stroke-width="1"/><path id="erBnYlHOy4861" d="M142.5,475.4L144.3,479.8L169.9,469.3C169.3,467.9,168.7,466.4,168.1,464.9L142.5,475.4Z" fill="rgb(236,236,236)" stroke="none" stroke-width="1"/><path id="erBnYlHOy4862" d="M313.5,598.3L305.6,625.1L310.1,626.4L318,599.6C316.6,599.3,315,598.8,313.5,598.3Z" fill="rgb(236,236,236)" stroke="none" stroke-width="1"/><path id="erBnYlHOy4863" d="M290,589.7L279.2,615.5L283.6,617.3L294.4,591.5C292.9,590.9,291.4,590.3,290,589.7Z" fill="rgb(236,236,236)" stroke="none" stroke-width="1"/><path id="erBnYlHOy4864" d="M428.7,603C427.2,603.3,425.6,603.6,424.1,604L429.8,631.3L434.4,630.3L428.7,603Z" fill="rgb(236,236,236)" stroke="none" stroke-width="1"/></g></g><g id="erBnYlHOy4865"><path id="erBnYlHOy4866" d="M380.1,315.6C295.5,317,295.5,442.8,380.1,444.2C464.8,442.8,464.8,317.1,380.1,315.6ZM380.1,424C322.2,423,322.2,336.9,380.1,335.9C438.1,336.9,438.1,423,380.1,424Z" fill="rgb(236,236,236)" stroke="none" stroke-width="1"/><path id="erBnYlHOy4867" d="M405.2,354.4C405.1,354,405,353.6,404.6,353.3C404.3,353,403.9,352.9,403.5,352.9L391.5,352.9C390.6,352.9,390.1,353.3,389.7,354.2L380.1,385.1L370.5,354.2C370.2,353.3,369.7,352.9,368.8,352.9L356.7,352.9C356.2,352.9,355.8,353.1,355.5,353.3C355.2,353.6,355.1,353.9,355,354.4L350,402C350,403,350.5,403.5,351.5,403.5L361.4,403.5C362.5,403.5,363.1,403,363.1,402L366.1,375.7L374,402.2C374,402.5,374.2,402.7,374.5,403.1C374.8,403.4,375.1,403.6,375.4,403.6L384.6,403.6C384.9,403.6,385.2,403.4,385.5,403.1C385.8,402.8,386,402.5,386,402.3L393.9,375.8L396.9,402.2C397,403.2,397.5,403.7,398.6,403.7L408.5,403.7C409.5,403.7,410,403.3,410,402.4L410,402.2C409.2,394.2,408.3,386.2,407.5,378.4C406.9,370.3,406,362.4,405.2,354.4Z" fill="rgb(236,236,236)" stroke="none" stroke-width="1"/></g><script><![CDATA[!function(t,n){"object"==typeof exports&&"undefined"!=typeof module?module.exports=n():"function"==typeof define&&define.amd?define(n):((t="undefined"!=typeof globalThis?globalThis:t||self).__SVGATOR_PLAYER__=t.__SVGATOR_PLAYER__||{},t.__SVGATOR_PLAYER__["91c80d77"]=n())}(this,(function(){"use strict";function t(t,n){var e=Object.keys(t);if(Object.getOwnPropertySymbols){var r=Object.getOwnPropertySymbols(t);n&&(r=r.filter((function(n){return Object.getOwnPropertyDescriptor(t,n).enumerable}))),e.push.apply(e,r)}return e}function n(n){for(var e=1;e<arguments.length;e++){var r=null!=arguments[e]?arguments[e]:{};e%2?t(Object(r),!0).forEach((function(t){o(n,t,r[t])})):Object.getOwnPropertyDescriptors?Object.defineProperties(n,Object.getOwnPropertyDescriptors(r)):t(Object(r)).forEach((function(t){Object.defineProperty(n,t,Object.getOwnPropertyDescriptor(r,t))}))}return n}function e(t){return(e="function"==typeof Symbol&&"symbol"==typeof Symbol.iterator?function(t){return typeof t}:function(t){return t&&"function"==typeof Symbol&&t.constructor===Symbol&&t!==Symbol.prototype?"symbol":typeof t})(t)}function r(t,n){if(!(t instanceof n))throw new TypeError("Cannot call a class as a function")}function i(t,n){for(var e=0;e<n.length;e++){var r=n[e];r.enumerable=r.enumerable||!1,r.configurable=!0,"value"in r&&(r.writable=!0),Object.defineProperty(t,r.key,r)}}function u(t,n,e){return n&&i(t.prototype,n),e&&i(t,e),t}function o(t,n,e){return n in t?Object.defineProperty(t,n,{value:e,enumerable:!0,configurable:!0,writable:!0}):t[n]=e,t}function a(t){return(a=Object.setPrototypeOf?Object.getPrototypeOf:function(t){return t.__proto__||Object.getPrototypeOf(t)})(t)}function l(t,n){return(l=Object.setPrototypeOf||function(t,n){return t.__proto__=n,t})(t,n)}function s(){if("undefined"==typeof Reflect||!Reflect.construct)return!1;if(Reflect.construct.sham)return!1;if("function"==typeof Proxy)return!0;try{return Boolean.prototype.valueOf.call(Reflect.construct(Boolean,[],(function(){}))),!0}catch(t){return!1}}function f(t,n,e){return(f=s()?Reflect.construct:function(t,n,e){var r=[null];r.push.apply(r,n);var i=new(Function.bind.apply(t,r));return e&&l(i,e.prototype),i}).apply(null,arguments)}function c(t,n){if(n&&("object"==typeof n||"function"==typeof n))return n;if(void 0!==n)throw new TypeError("Derived constructors may only return object or undefined");return function(t){if(void 0===t)throw new ReferenceError("this hasn't been initialised - super() hasn't been called");return t}(t)}function h(t,n,e){return(h="undefined"!=typeof Reflect&&Reflect.get?Reflect.get:function(t,n,e){var r=function(t,n){for(;!Object.prototype.hasOwnProperty.call(t,n)&&null!==(t=a(t)););return t}(t,n);if(r){var i=Object.getOwnPropertyDescriptor(r,n);return i.get?i.get.call(e):i.value}})(t,n,e||t)}function v(t){return function(t){if(Array.isArray(t))return d(t)}(t)||function(t){if("undefined"!=typeof Symbol&&null!=t[Symbol.iterator]||null!=t["@@iterator"])return Array.from(t)}(t)||function(t,n){if(!t)return;if("string"==typeof t)return d(t,n);var e=Object.prototype.toString.call(t).slice(8,-1);"Object"===e&&t.constructor&&(e=t.constructor.name);if("Map"===e||"Set"===e)return Array.from(t);if("Arguments"===e||/^(?:Ui|I)nt(?:8|16|32)(?:Clamped)?Array$/.test(e))return d(t,n)}(t)||function(){throw new TypeError("Invalid attempt to spread non-iterable instance.\nIn order to be iterable, non-array objects must have a [Symbol.iterator]() method.")}()}function d(t,n){(null==n||n>t.length)&&(n=t.length);for(var e=0,r=new Array(n);e<n;e++)r[e]=t[e];return r}var y=g(Math.pow(10,-6));function g(t){var n=arguments.length>1&&void 0!==arguments[1]?arguments[1]:6;if(Number.isInteger(t))return t;var e=Math.pow(10,n);return Math.round((+t+Number.EPSILON)*e)/e}function p(t,n){var e=arguments.length>2&&void 0!==arguments[2]?arguments[2]:y;return Math.abs(t-n)<e}var m=Math.PI/180;function b(t){return t}function w(t,n,e){var r=1-e;return 3*e*r*(t*r+n*e)+e*e*e}function A(){var t=arguments.length>0&&void 0!==arguments[0]?arguments[0]:0,n=arguments.length>1&&void 0!==arguments[1]?arguments[1]:0,e=arguments.length>2&&void 0!==arguments[2]?arguments[2]:1,r=arguments.length>3&&void 0!==arguments[3]?arguments[3]:1;return t<0||t>1||e<0||e>1?null:p(t,n)&&p(e,r)?b:function(i){if(i<=0)return t>0?i*n/t:0===n&&e>0?i*r/e:0;if(i>=1)return e<1?1+(i-1)*(r-1)/(e-1):1===e&&t<1?1+(i-1)*(n-1)/(t-1):1;for(var u,o=0,a=1;o<a;){var l=w(t,e,u=(o+a)/2);if(p(i,l))break;l<i?o=u:a=u}return w(n,r,u)}}function x(){return 1}function k(t){return 1===t?1:0}function _(){var t=arguments.length>0&&void 0!==arguments[0]?arguments[0]:1,n=arguments.length>1&&void 0!==arguments[1]?arguments[1]:0;if(1===t){if(0===n)return k;if(1===n)return x}var e=1/t;return function(t){return t>=1?1:(t+=n*e)-t%e}}var S=Math.sin,O=Math.cos,M=Math.acos,E=Math.asin,j=Math.tan,P=Math.atan2,I=Math.PI/180,B=180/Math.PI,R=Math.sqrt,T=function(){function t(){var n=arguments.length>0&&void 0!==arguments[0]?arguments[0]:1,e=arguments.length>1&&void 0!==arguments[1]?arguments[1]:0,i=arguments.length>2&&void 0!==arguments[2]?arguments[2]:0,u=arguments.length>3&&void 0!==arguments[3]?arguments[3]:1,o=arguments.length>4&&void 0!==arguments[4]?arguments[4]:0,a=arguments.length>5&&void 0!==arguments[5]?arguments[5]:0;r(this,t),this.m=[n,e,i,u,o,a],this.i=null,this.w=null,this.s=null}return u(t,[{key:"determinant",get:function(){var t=this.m;return t[0]*t[3]-t[1]*t[2]}},{key:"isIdentity",get:function(){if(null===this.i){var t=this.m;this.i=1===t[0]&&0===t[1]&&0===t[2]&&1===t[3]&&0===t[4]&&0===t[5]}return this.i}},{key:"point",value:function(t,n){var e=this.m;return{x:e[0]*t+e[2]*n+e[4],y:e[1]*t+e[3]*n+e[5]}}},{key:"translateSelf",value:function(){var t=arguments.length>0&&void 0!==arguments[0]?arguments[0]:0,n=arguments.length>1&&void 0!==arguments[1]?arguments[1]:0;if(!t&&!n)return this;var e=this.m;return e[4]+=e[0]*t+e[2]*n,e[5]+=e[1]*t+e[3]*n,this.w=this.s=this.i=null,this}},{key:"rotateSelf",value:function(){var t=arguments.length>0&&void 0!==arguments[0]?arguments[0]:0;if(t%=360){var n=S(t*=I),e=O(t),r=this.m,i=r[0],u=r[1];r[0]=i*e+r[2]*n,r[1]=u*e+r[3]*n,r[2]=r[2]*e-i*n,r[3]=r[3]*e-u*n,this.w=this.s=this.i=null}return this}},{key:"scaleSelf",value:function(){var t=arguments.length>0&&void 0!==arguments[0]?arguments[0]:1,n=arguments.length>1&&void 0!==arguments[1]?arguments[1]:1;if(1!==t||1!==n){var e=this.m;e[0]*=t,e[1]*=t,e[2]*=n,e[3]*=n,this.w=this.s=this.i=null}return this}},{key:"skewSelf",value:function(t,n){if(n%=360,(t%=360)||n){var e=this.m,r=e[0],i=e[1],u=e[2],o=e[3];t&&(t=j(t*I),e[2]+=r*t,e[3]+=i*t),n&&(n=j(n*I),e[0]+=u*n,e[1]+=o*n),this.w=this.s=this.i=null}return this}},{key:"resetSelf",value:function(){var t=arguments.length>0&&void 0!==arguments[0]?arguments[0]:1,n=arguments.length>1&&void 0!==arguments[1]?arguments[1]:0,e=arguments.length>2&&void 0!==arguments[2]?arguments[2]:0,r=arguments.length>3&&void 0!==arguments[3]?arguments[3]:1,i=arguments.length>4&&void 0!==arguments[4]?arguments[4]:0,u=arguments.length>5&&void 0!==arguments[5]?arguments[5]:0,o=this.m;return o[0]=t,o[1]=n,o[2]=e,o[3]=r,o[4]=i,o[5]=u,this.w=this.s=this.i=null,this}},{key:"recomposeSelf",value:function(){var t=arguments.length>0&&void 0!==arguments[0]?arguments[0]:null,n=arguments.length>1&&void 0!==arguments[1]?arguments[1]:null,e=arguments.length>2&&void 0!==arguments[2]?arguments[2]:null,r=arguments.length>3&&void 0!==arguments[3]?arguments[3]:null,i=arguments.length>4&&void 0!==arguments[4]?arguments[4]:null;return this.isIdentity||this.resetSelf(),t&&(t.x||t.y)&&this.translateSelf(t.x,t.y),n&&this.rotateSelf(n),e&&(e.x&&this.skewSelf(e.x,0),e.y&&this.skewSelf(0,e.y)),!r||1===r.x&&1===r.y||this.scaleSelf(r.x,r.y),i&&(i.x||i.y)&&this.translateSelf(i.x,i.y),this}},{key:"decompose",value:function(){var t=arguments.length>0&&void 0!==arguments[0]?arguments[0]:0,n=arguments.length>1&&void 0!==arguments[1]?arguments[1]:0,e=this.m,r=e[0]*e[0]+e[1]*e[1],i=[[e[0],e[1]],[e[2],e[3]]],u=R(r);if(0===u)return{origin:{x:g(e[4]),y:g(e[5])},translate:{x:g(t),y:g(n)},scale:{x:0,y:0},skew:{x:0,y:0},rotate:0};i[0][0]/=u,i[0][1]/=u;var o=e[0]*e[3]-e[1]*e[2]<0;o&&(u=-u);var a=i[0][0]*i[1][0]+i[0][1]*i[1][1];i[1][0]-=i[0][0]*a,i[1][1]-=i[0][1]*a;var l=R(i[1][0]*i[1][0]+i[1][1]*i[1][1]);if(0===l)return{origin:{x:g(e[4]),y:g(e[5])},translate:{x:g(t),y:g(n)},scale:{x:g(u),y:0},skew:{x:0,y:0},rotate:0};i[1][0]/=l,i[1][1]/=l,a/=l;var s=0;return i[1][1]<0?(s=M(i[1][1])*B,i[0][1]<0&&(s=360-s)):s=E(i[0][1])*B,o&&(s=-s),a=P(a,R(i[0][0]*i[0][0]+i[0][1]*i[0][1]))*B,o&&(a=-a),{origin:{x:g(e[4]),y:g(e[5])},translate:{x:g(t),y:g(n)},scale:{x:g(u),y:g(l)},skew:{x:g(a),y:0},rotate:g(s)}}},{key:"clone",value:function(){var t=this.m;return new this.constructor(t[0],t[1],t[2],t[3],t[4],t[5])}},{key:"toString",value:function(){var t=arguments.length>0&&void 0!==arguments[0]?arguments[0]:" ";return null===this.s&&(this.s="matrix("+this.m.map((function(t){return g(t)})).join(t)+")"),this.s}}],[{key:"create",value:function(t){return t?Array.isArray(t)?f(this,v(t)):t instanceof this?t.clone():(new this).recomposeSelf(t.origin,t.rotate,t.skew,t.scale,t.translate):new this}}]),t}();function N(t,n,e){return t>=.5?e:n}function C(t,n,e){return 0===t||n===e?n:t*(e-n)+n}function F(t,n,e){var r=C(t,n,e);return r<=0?0:r}function L(t,n,e){var r=C(t,n,e);return r<=0?0:r>=1?1:r}function q(t,n,e){return 0===t?n:1===t?e:{x:C(t,n.x,e.x),y:C(t,n.y,e.y)}}function V(t,n,e){return 0===t?n:1===t?e:{x:F(t,n.x,e.x),y:F(t,n.y,e.y)}}function D(t,n,e){var r=function(t,n,e){return Math.round(C(t,n,e))}(t,n,e);return r<=0?0:r>=255?255:r}function z(t,n,e){return 0===t?n:1===t?e:{r:D(t,n.r,e.r),g:D(t,n.g,e.g),b:D(t,n.b,e.b),a:C(t,null==n.a?1:n.a,null==e.a?1:e.a)}}function Y(t,n,e){var r=n.length;if(r!==e.length)return N(t,n,e);for(var i=new Array(r),u=0;u<r;u++)i[u]=C(t,n[u],e[u]);return i}function G(t,n){for(var e=[],r=0;r<t;r++)e.push(n);return e}function U(t,n){if(--n<=0)return t;var e=(t=Object.assign([],t)).length;do{for(var r=0;r<e;r++)t.push(t[r])}while(--n>0);return t}var $,W=function(){function t(n){r(this,t),this.list=n,this.length=n.length}return u(t,[{key:"setAttribute",value:function(t,n){for(var e=this.list,r=0;r<this.length;r++)e[r].setAttribute(t,n)}},{key:"removeAttribute",value:function(t){for(var n=this.list,e=0;e<this.length;e++)n[e].removeAttribute(t)}},{key:"style",value:function(t,n){for(var e=this.list,r=0;r<this.length;r++)e[r].style[t]=n}}]),t}(),H=/-./g,Q=function(t,n){return n.toUpperCase()};function X(t){return"function"==typeof t?t:N}function J(t){return t?"function"==typeof t?t:Array.isArray(t)?function(t){var n=arguments.length>1&&void 0!==arguments[1]?arguments[1]:b;if(!Array.isArray(t))return n;switch(t.length){case 1:return _(t[0])||n;case 2:return _(t[0],t[1])||n;case 4:return A(t[0],t[1],t[2],t[3])||n}return n}(t,null):function(t,n){var e=arguments.length>2&&void 0!==arguments[2]?arguments[2]:b;switch(t){case"linear":return b;case"steps":return _(n.steps||1,n.jump||0)||e;case"bezier":case"cubic-bezier":return A(n.x1||0,n.y1||0,n.x2||0,n.y2||0)||e}return e}(t.type,t.value,null):null}function Z(t,n,e){var r=arguments.length>3&&void 0!==arguments[3]&&arguments[3],i=n.length-1;if(t<=n[0].t)return r?[0,0,n[0].v]:n[0].v;if(t>=n[i].t)return r?[i,1,n[i].v]:n[i].v;var u,o=n[0],a=null;for(u=1;u<=i;u++){if(!(t>n[u].t)){a=n[u];break}o=n[u]}return null==a?r?[i,1,n[i].v]:n[i].v:o.t===a.t?r?[u,1,a.v]:a.v:(t=(t-o.t)/(a.t-o.t),o.e&&(t=o.e(t)),r?[u,t,e(t,o.v,a.v)]:e(t,o.v,a.v))}function K(t,n){var e=arguments.length>2&&void 0!==arguments[2]?arguments[2]:null;return t&&t.length?"function"!=typeof n?null:("function"!=typeof e&&(e=null),function(r){var i=Z(r,t,n);return null!=i&&e&&(i=e(i)),i}):null}function tt(t,n){return t.t-n.t}function nt(t,n,r,i,u){var o,a="@"===r[0],l="#"===r[0],s=$[r],f=N;switch(a?(o=r.substr(1),r=o.replace(H,Q)):l&&(r=r.substr(1)),e(s)){case"function":if(f=s(i,u,Z,J,r,a,n,t),l)return f;break;case"string":f=K(i,X(s));break;case"object":if((f=K(i,X(s.i),s.f))&&"function"==typeof s.u)return s.u(n,f,r,a,t)}return f?function(t,n,e){if(arguments.length>3&&void 0!==arguments[3]&&arguments[3])return t instanceof W?function(r){return t.style(n,e(r))}:function(r){return t.style[n]=e(r)};if(Array.isArray(n)){var r=n.length;return function(i){var u=e(i);if(null==u)for(var o=0;o<r;o++)t[o].removeAttribute(n);else for(var a=0;a<r;a++)t[a].setAttribute(n,u)}}return function(r){var i=e(r);null==i?t.removeAttribute(n):t.setAttribute(n,i)}}(n,r,f,a):null}function et(t,n,r,i){if(!i||"object"!==e(i))return null;var u=null,o=null;return Array.isArray(i)?o=function(t){if(!t||!t.length)return null;for(var n=0;n<t.length;n++)t[n].e&&(t[n].e=J(t[n].e));return t.sort(tt)}(i):(o=i.keys,u=i.data||null),o?nt(t,n,r,o,u):null}function rt(t,n,e){if(!e)return null;var r=[];for(var i in e)if(e.hasOwnProperty(i)){var u=et(t,n,i,e[i]);u&&r.push(u)}return r.length?r:null}function it(t,n){if(!n.duration||n.duration<0)return null;var e=function(t,n){if(!n)return null;var e=[];if(Array.isArray(n))for(var r=n.length,i=0;i<r;i++){var u=n[i];if(2===u.length){var o=null;if("string"==typeof u[0])o=t.getElementById(u[0]);else if(Array.isArray(u[0])){o=[];for(var a=0;a<u[0].length;a++)if("string"==typeof u[0][a]){var l=t.getElementById(u[0][a]);l&&o.push(l)}o=o.length?1===o.length?o[0]:new W(o):null}if(o){var s=rt(t,o,u[1]);s&&(e=e.concat(s))}}}else for(var f in n)if(n.hasOwnProperty(f)){var c=t.getElementById(f);if(c){var h=rt(t,c,n[f]);h&&(e=e.concat(h))}}return e.length?e:null}(t,n.elements);return e?function(t,n){var e=arguments.length>2&&void 0!==arguments[2]?arguments[2]:1/0,r=arguments.length>3&&void 0!==arguments[3]?arguments[3]:1,i=arguments.length>4&&void 0!==arguments[4]&&arguments[4],u=arguments.length>5&&void 0!==arguments[5]?arguments[5]:1,o=t.length,a=r>0?n:0;i&&e%2==0&&(a=n-a);var l=null;return function(s,f){var c=s%n,h=1+(s-c)/n;f*=r,i&&h%2==0&&(f=-f);var v=!1;if(h>e)c=a,v=!0,-1===u&&(c=r>0?0:n);else if(f<0&&(c=n-c),c===l)return!1;l=c;for(var d=0;d<o;d++)t[d](c);return v}}(e,n.duration,n.iterations||1/0,n.direction||1,!!n.alternate,n.fill||1):null}function ut(t){return+("0x"+(t.replace(/[^0-9a-fA-F]+/g,"")||27))}function ot(t,n,e){return!t||!e||n>t.length?t:t.substring(0,n)+ot(t.substring(n+1),e,e)}function at(t){var n=arguments.length>1&&void 0!==arguments[1]?arguments[1]:27;return!t||t%n?t%n:at(t/n,n)}function lt(t,n,e){if(t&&t.length){var r=ut(e),i=ut(n),u=at(r)+5,o=ot(t,at(r,5),u);return o=o.replace(/\x7c$/g,"==").replace(/\x2f$/g,"="),o=function(t,n,e){var r=+("0x"+t.substring(0,4));t=t.substring(4);for(var i=n%r+e%27,u=[],o=0;o<t.length;o+=2)if("|"!==t[o]){var a=+("0x"+t[o]+t[o+1])-i;u.push(a)}else{var l=+("0x"+t.substring(o+1,o+1+4))-i;o+=3,u.push(l)}return String.fromCharCode.apply(String,u)}(o=(o=atob(o)).replace(/[\x41-\x5A]/g,""),i,r),o=JSON.parse(o)}}Number.isInteger||(Number.isInteger=function(t){return"number"==typeof t&&isFinite(t)&&Math.floor(t)===t}),Number.EPSILON||(Number.EPSILON=2220446049250313e-31);var st=function(){function t(n,e){var i=arguments.length>2&&void 0!==arguments[2]?arguments[2]:{};r(this,t),this._id=0,this._running=!1,this._rollingBack=!1,this._animations=n,this.duration=e.duration,this.alternate=e.alternate,this.fill=e.fill,this.iterations=e.iterations,this.direction=i.direction||1,this.speed=i.speed||1,this.fps=i.fps||100,this.offset=i.offset||0,this.rollbackStartOffset=0}return u(t,[{key:"_rollback",value:function(){var t=this,n=1/0,e=null;this.rollbackStartOffset=this.offset,this._rollingBack||(this._rollingBack=!0,this._running=!0);this._id=window.requestAnimationFrame((function r(i){if(t._rollingBack){null==e&&(e=i);var u=i-e,o=t.rollbackStartOffset-u,a=Math.round(o*t.speed);if(a>t.duration&&n!=1/0){var l=!!t.alternate&&a/t.duration%2>1,s=a%t.duration;a=(s+=l?t.duration:0)||t.duration}var f=t.fps?1e3/t.fps:0,c=Math.max(0,a);if(c<n-f){t.offset=c,n=c;for(var h=t._animations,v=h.length,d=0;d<v;d++)h[d](c,t.direction)}var y=!1;if(t.iterations>0&&-1===t.fill){var g=t.iterations*t.duration,p=g==a;a=p?0:a,t.offset=p?0:t.offset,y=a>g}a>0&&t.offset>=a&&!y?t._id=window.requestAnimationFrame(r):t.stop()}}))}},{key:"_start",value:function(){var t=this,n=arguments.length>0&&void 0!==arguments[0]?arguments[0]:0,e=-1/0,r=null,i={},u=function u(o){t._running=!0,null==r&&(r=o);var a=Math.round((o-r+n)*t.speed),l=t.fps?1e3/t.fps:0;if(a>e+l&&!t._rollingBack){t.offset=a,e=a;for(var s=t._animations,f=s.length,c=0,h=0;h<f;h++)i[h]?c++:(i[h]=s[h](a,t.direction),i[h]&&c++);if(c===f)return void t._stop()}t._id=window.requestAnimationFrame(u)};this._id=window.requestAnimationFrame(u)}},{key:"_stop",value:function(){this._id&&window.cancelAnimationFrame(this._id),this._running=!1,this._rollingBack=!1}},{key:"play",value:function(){!this._rollingBack&&this._running||(this._rollingBack=!1,this.rollbackStartOffset>this.duration&&(this.offset=this.rollbackStartOffset-(this.rollbackStartOffset-this.offset)%this.duration,this.rollbackStartOffset=0),this._start(this.offset))}},{key:"stop",value:function(){this._stop(),this.offset=0,this.rollbackStartOffset=0;var t=this.direction,n=this._animations;window.requestAnimationFrame((function(){for(var e=0;e<n.length;e++)n[e](0,t)}))}},{key:"reachedToEnd",value:function(){return this.iterations>0&&this.offset>=this.iterations*this.duration}},{key:"restart",value:function(){this._stop(),this.offset=0,this._start()}},{key:"pause",value:function(){this._stop()}},{key:"reverse",value:function(){this.direction=-this.direction}}],[{key:"build",value:function(e,r){return delete e.animationSettings,e.options=lt(e.options,e.root,"91c80d77"),e.animations.map((function(t){var r=lt(t.s,e.root,"91c80d77");for(var i in delete t.s,e.animationSettings||(e.animationSettings=n({},r)),r)r.hasOwnProperty(i)&&(t[i]=r[i])})),(e=function(t,n){if($=n,!t||!t.root||!Array.isArray(t.animations))return null;for(var e=document.getElementsByTagName("svg"),r=!1,i=0;i<e.length;i++)if(e[i].id===t.root&&!e[i].svgatorAnimation){(r=e[i]).svgatorAnimation=!0;break}if(!r)return null;var u=t.animations.map((function(t){return it(r,t)})).filter((function(t){return!!t}));return u.length?{element:r,animations:u,animationSettings:t.animationSettings,options:t.options||void 0}:null}(e,r))?{el:e.element,options:e.options||{},player:new t(e.animations,e.animationSettings,e.options)}:null}},{key:"push",value:function(t){return this.build(t)}},{key:"init",value:function(){var t=this,n=window.__SVGATOR_PLAYER__&&window.__SVGATOR_PLAYER__["91c80d77"];Array.isArray(n)&&n.splice(0).forEach((function(n){return t.build(n)}))}}]),t}();!function(){for(var t=0,n=["ms","moz","webkit","o"],e=0;e<n.length&&!window.requestAnimationFrame;++e)window.requestAnimationFrame=window[n[e]+"RequestAnimationFrame"],window.cancelAnimationFrame=window[n[e]+"CancelAnimationFrame"]||window[n[e]+"CancelRequestAnimationFrame"];window.requestAnimationFrame||(window.requestAnimationFrame=function(n){var e=Date.now(),r=Math.max(0,16-(e-t)),i=window.setTimeout((function(){n(e+r)}),r);return t=e+r,i},window.cancelAnimationFrame=window.clearTimeout)}();var ft=function(t,n){var e=!1,r=null;return function(i){e&&clearTimeout(e),e=setTimeout((function(){return function(){for(var i=0,u=window.innerHeight,o=0,a=window.innerWidth,l=t.parentNode;l instanceof Element;){var s=window.getComputedStyle(l);if("visible"!==s.overflowY||"visible"!==s.overflowX){var f=l.getBoundingClientRect();"visible"!==s.overflowY&&(i=Math.max(i,f.top),u=Math.min(u,f.bottom)),"visible"!==s.overflowX&&(o=Math.max(o,f.left),a=Math.min(a,f.right))}if(l===l.parentNode)break;l=l.parentNode}e=!1;var c=t.getBoundingClientRect(),h=Math.min(c.height,Math.max(0,i-c.top)),v=Math.min(c.height,Math.max(0,c.bottom-u)),d=Math.min(c.width,Math.max(0,o-c.left)),y=Math.min(c.width,Math.max(0,c.right-a)),g=(c.height-h-v)/c.height,p=(c.width-d-y)/c.width,m=Math.round(g*p*100);null!==r&&r===m||(r=m,n(m))}()}),100)}},ct=function(){function t(n,e,i){r(this,t),e=Math.max(1,e||1),e=Math.min(e,100),this.el=n,this.onTresholdChange=i&&i.call?i:function(){},this.tresholdPercent=e||1,this.currentVisibility=null,this.visibilityCalculator=ft(n,this.onVisibilityUpdate.bind(this)),this.bindScrollWatchers(),this.visibilityCalculator()}return u(t,[{key:"bindScrollWatchers",value:function(){for(var t=this.el.parentNode;t&&(t.addEventListener("scroll",this.visibilityCalculator),t!==t.parentNode&&t!==document);)t=t.parentNode}},{key:"onVisibilityUpdate",value:function(t){var n=this.currentVisibility>=this.tresholdPercent,e=t>=this.tresholdPercent;if(null===this.currentVisibility||n!==e)return this.currentVisibility=t,void this.onTresholdChange(e);this.currentVisibility=t}}]),t}();function ht(t){return g(t)+""}function vt(t){var n=arguments.length>1&&void 0!==arguments[1]?arguments[1]:" ";return t&&t.length?t.map(ht).join(n):""}function dt(t){return ht(t.x)+","+ht(t.y)}function yt(t){return t?null==t.a||t.a>=1?"rgb("+t.r+","+t.g+","+t.b+")":"rgba("+t.r+","+t.g+","+t.b+","+t.a+")":"transparent"}function gt(t){return t?"url(#"+t+")":"none"}var pt={f:null,i:V,u:function(t,n){return function(e){var r=n(e);t.setAttribute("rx",ht(r.x)),t.setAttribute("ry",ht(r.y))}}},mt={f:null,i:function(t,n,e){return 0===t?n:1===t?e:{width:F(t,n.width,e.width),height:F(t,n.height,e.height)}},u:function(t,n){return function(e){var r=n(e);t.setAttribute("width",ht(r.width)),t.setAttribute("height",ht(r.height))}}};Object.freeze({M:2,L:2,Z:0,H:1,V:1,C:6,Q:4,T:2,S:4,A:7});var bt={},wt=null;function At(t){var n=function(){if(wt)return wt;if("object"!==("undefined"==typeof document?"undefined":e(document))||!document.createElementNS)return{};var t=document.createElementNS("http://www.w3.org/2000/svg","svg");return t&&t.style?(t.style.position="absolute",t.style.opacity="0.01",t.style.zIndex="-9999",t.style.left="-9999px",t.style.width="1px",t.style.height="1px",wt={svg:t}):{}}().svg;if(!n)return function(t){return null};var r=document.createElementNS(n.namespaceURI,"path");r.setAttributeNS(null,"d",t),r.setAttributeNS(null,"fill","none"),r.setAttributeNS(null,"stroke","none"),n.appendChild(r);var i=r.getTotalLength();return function(t){var n=r.getPointAtLength(i*t);return{x:n.x,y:n.y}}}function xt(t){return bt[t]?bt[t]:bt[t]=At(t)}function kt(t,n,e,r){if(!t||!r)return!1;var i=["M",t.x,t.y];if(n&&e&&(i.push("C"),i.push(n.x),i.push(n.y),i.push(e.x),i.push(e.y)),n?!e:e){var u=n||e;i.push("Q"),i.push(u.x),i.push(u.y)}return n||e||i.push("L"),i.push(r.x),i.push(r.y),i.join(" ")}function _t(t,n,e,r){var i=arguments.length>4&&void 0!==arguments[4]?arguments[4]:1,u=kt(t,n,e,r),o=xt(u);try{return o(i)}catch(t){return null}}function St(t,n,e,r){var i=1-r;return i*i*t+2*i*r*n+r*r*e}function Ot(t,n,e,r){return 2*(1-r)*(n-t)+2*r*(e-n)}function Mt(t,n,e,r){var i=arguments.length>4&&void 0!==arguments[4]&&arguments[4],u=_t(t,n,null,e,r);return u||(u={x:St(t.x,n.x,e.x,r),y:St(t.y,n.y,e.y,r)}),i&&(u.a=Et(t,n,e,r)),u}function Et(t,n,e,r){return Math.atan2(Ot(t.y,n.y,e.y,r),Ot(t.x,n.x,e.x,r))}function jt(t,n,e,r,i){var u=i*i;return i*u*(r-t+3*(n-e))+3*u*(t+e-2*n)+3*i*(n-t)+t}function Pt(t,n,e,r,i){var u=1-i;return 3*(u*u*(n-t)+2*u*i*(e-n)+i*i*(r-e))}function It(t,n,e,r,i){var u=arguments.length>5&&void 0!==arguments[5]&&arguments[5],o=_t(t,n,e,r,i);return o||(o={x:jt(t.x,n.x,e.x,r.x,i),y:jt(t.y,n.y,e.y,r.y,i)}),u&&(o.a=Bt(t,n,e,r,i)),o}function Bt(t,n,e,r,i){return Math.atan2(Pt(t.y,n.y,e.y,r.y,i),Pt(t.x,n.x,e.x,r.x,i))}function Rt(t,n,e){return t+(n-t)*e}function Tt(t,n,e){var r=arguments.length>3&&void 0!==arguments[3]&&arguments[3],i={x:Rt(t.x,n.x,e),y:Rt(t.y,n.y,e)};return r&&(i.a=Nt(t,n)),i}function Nt(t,n){return Math.atan2(n.y-t.y,n.x-t.x)}function Ct(t,n,e){var r=arguments.length>3&&void 0!==arguments[3]&&arguments[3];if(Lt(n)){if(qt(e))return Mt(n,e.start,e,t,r)}else if(Lt(e)){if(n.end)return Mt(n,n.end,e,t,r)}else{if(n.end)return e.start?It(n,n.end,e.start,e,t,r):Mt(n,n.end,e,t,r);if(e.start)return Mt(n,e.start,e,t,r)}return Tt(n,e,t,r)}function Ft(t,n,e){var r=Ct(t,n,e,!0);return r.a=function(t){return arguments.length>1&&void 0!==arguments[1]&&arguments[1]?t+Math.PI:t}(r.a)/m,r}function Lt(t){return!t.type||"corner"===t.type}function qt(t){return null!=t.start&&!Lt(t)}var Vt=new T;var Dt={f:function(t){return t?t.join(" "):""},i:function(t,n,r){if(0===t)return n;if(1===t)return r;var i=n.length;if(i!==r.length)return N(t,n,r);for(var u,o=new Array(i),a=0;a<i;a++){if((u=e(n[a]))!==e(r[a]))return N(t,n,r);if("number"===u)o[a]=C(t,n[a],r[a]);else{if(n[a]!==r[a])return N(t,n,r);o[a]=n[a]}}return o}},zt={f:null,i:Y,u:function(t,n){return function(e){var r=n(e);t.setAttribute("x1",ht(r[0])),t.setAttribute("y1",ht(r[1])),t.setAttribute("x2",ht(r[2])),t.setAttribute("y2",ht(r[3]))}}},Yt={f:ht,i:C},Gt={f:ht,i:L},Ut={f:function(t){var n=arguments.length>1&&void 0!==arguments[1]?arguments[1]:" ";return t&&t.length>0&&(t=t.map((function(t){return g(t,4)}))),vt(t,n)},i:function(t,n,e){var r,i,u,o=n.length,a=e.length;if(o!==a)if(0===o)n=G(o=a,0);else if(0===a)a=o,e=G(o,0);else{var l=(u=(r=o)*(i=a)/function(t,n){for(var e;n;)e=n,n=t%n,t=e;return t||1}(r,i))<0?-u:u;n=U(n,Math.floor(l/o)),e=U(e,Math.floor(l/a)),o=a=l}for(var s=[],f=0;f<o;f++)s.push(g(F(t,n[f],e[f])));return s}};function $t(t,n,e){return t.map((function(t){return function(t,n,e){var r=t.v;if(!r||"g"!==r.t||r.s||!r.v||!r.r)return t;var i=e.getElementById(r.r),u=i&&i.querySelectorAll("stop")||[];return r.s=r.v.map((function(t,n){var e=u[n]&&u[n].getAttribute("offset");return{c:t,o:e=g(parseInt(e)/100)}})),delete r.v,t}(t,0,e)}))}var Wt={gt:"gradientTransform",c:{x:"cx",y:"cy"},rd:"r",f:{x:"x1",y:"y1"},to:{x:"x2",y:"y2"}};function Ht(t,n,r,i,u,o,a,l){return $t(t,0,l),n=function(t,n,e){for(var r,i,u,o=t.length-1,a={},l=0;l<=o;l++)(r=t[l]).e&&(r.e=n(r.e)),r.v&&"g"===(i=r.v).t&&i.r&&(u=e.getElementById(i.r))&&(a[i.r]={e:u,s:u.querySelectorAll("stop")});return a}(t,i,l),function(i){var u=r(i,t,Qt);if(!u)return"none";if("c"===u.t)return yt(u.v);if("g"===u.t){if(!n[u.r])return gt(u.r);var o=n[u.r];return function(t,n){for(var e=t.s,r=e.length;r<n.length;r++){var i=e[e.length-1].cloneNode();i.id=Zt(i.id),t.e.appendChild(i),e=t.s=t.e.querySelectorAll("stop")}for(var u=0,o=e.length,a=n.length-1;u<o;u++)e[u].setAttribute("stop-color",yt(n[Math.min(u,a)].c)),e[u].setAttribute("offset",n[Math.min(u,a)].o)}(o,u.s),Object.keys(Wt).forEach((function(t){if(void 0!==u[t])if("object"!==e(Wt[t])){var n,r="gt"===t?(n=u[t],Array.isArray(n)?"matrix("+n.join(" ")+")":""):u[t],i=Wt[t];o.e.setAttribute(i,r)}else Object.keys(Wt[t]).forEach((function(n){if(void 0!==u[t][n]){var e=u[t][n],r=Wt[t][n];o.e.setAttribute(r,e)}}))})),gt(u.r)}return"none"}}function Qt(t,e,r){if(0===t)return e;if(1===t)return r;if(e&&r){var i=e.t;if(i===r.t)switch(e.t){case"c":return{t:i,v:z(t,e.v,r.v)};case"g":if(e.r===r.r){var u={t:i,s:Xt(t,e.s,r.s),r:e.r};return e.gt&&r.gt&&(u.gt=Y(t,e.gt,r.gt)),e.c?(u.c=q(t,e.c,r.c),u.rd=F(t,e.rd,r.rd)):e.f&&(u.f=q(t,e.f,r.f),u.to=q(t,e.to,r.to)),u}}if("c"===e.t&&"g"===r.t||"c"===r.t&&"g"===e.t){var o="c"===e.t?e:r,a="g"===e.t?n({},e):n({},r),l=a.s.map((function(t){return{c:o.v,o:t.o}}));return a.s="c"===e.t?Xt(t,l,a.s):Xt(t,a.s,l),a}}return N(t,e,r)}function Xt(t,n,e){if(n.length===e.length)return n.map((function(n,r){return Jt(t,n,e[r])}));for(var r=Math.max(n.length,e.length),i=[],u=0;u<r;u++){var o=Jt(t,n[Math.min(u,n.length-1)],e[Math.min(u,e.length-1)]);i.push(o)}return i}function Jt(t,n,e){return{o:L(t,n.o,e.o||0),c:z(t,n.c,e.c||{})}}function Zt(t){return t.replace(/-fill-([0-9]+)$/,(function(t,n){return"-fill-"+(+n+1)}))}var Kt={blur:V,brightness:F,contrast:F,"drop-shadow":function(t,n,e){return 0===t?n:1===t?e:{blur:V(t,n.blur,e.blur),offset:q(t,n.offset,e.offset),color:z(t,n.color,e.color)}},grayscale:F,"hue-rotate":C,invert:F,opacity:F,saturate:F,sepia:F};function tn(t,n,e){if(0===t)return n;if(1===t)return e;var r=n.length;if(r!==e.length)return N(t,n,e);for(var i,u=[],o=0;o<r;o++){if(n[o].type!==e[o].type)return n;if(!(i=Kt[n[o].type]))return N(t,n,e);u.push({type:n.type,value:i(t,n[o].value,e[o].value)})}return u}var nn={blur:function(t){return t?function(n){t.setAttribute("stdDeviation",dt(n))}:null},brightness:function(t,n,e){return(t=rn(e,n))?function(n){n=ht(n),t.map((function(t){return t.setAttribute("slope",n)}))}:null},contrast:function(t,n,e){return(t=rn(e,n))?function(n){var e=ht((1-n)/2);n=ht(n),t.map((function(t){t.setAttribute("slope",n),t.setAttribute("intercept",e)}))}:null},"drop-shadow":function(t,n,e){var r=e.getElementById(n+"-blur");if(!r)return null;var i=e.getElementById(n+"-offset");if(!i)return null;var u=e.getElementById(n+"-flood");return u?function(t){r.setAttribute("stdDeviation",dt(t.blur)),i.setAttribute("dx",ht(t.offset.x)),i.setAttribute("dy",ht(t.offset.y)),u.setAttribute("flood-color",yt(t.color))}:null},grayscale:function(t){return t?function(n){t.setAttribute("values",vt(function(t){return[.2126+.7874*(t=1-t),.7152-.7152*t,.0722-.0722*t,0,0,.2126-.2126*t,.7152+.2848*t,.0722-.0722*t,0,0,.2126-.2126*t,.7152-.7152*t,.0722+.9278*t,0,0,0,0,0,1,0]}(n)))}:null},"hue-rotate":function(t){return t?function(n){return t.setAttribute("values",ht(n))}:null},invert:function(t,n,e){return(t=rn(e,n))?function(n){n=ht(n)+" "+ht(1-n),t.map((function(t){return t.setAttribute("tableValues",n)}))}:null},opacity:function(t,n,e){return(t=e.getElementById(n+"-A"))?function(n){return t.setAttribute("tableValues","0 "+ht(n))}:null},saturate:function(t){return t?function(n){return t.setAttribute("values",ht(n))}:null},sepia:function(t){return t?function(n){return t.setAttribute("values",vt(function(t){return[.393+.607*(t=1-t),.769-.769*t,.189-.189*t,0,0,.349-.349*t,.686+.314*t,.168-.168*t,0,0,.272-.272*t,.534-.534*t,.131+.869*t,0,0,0,0,0,1,0]}(n)))}:null}};var en=["R","G","B"];function rn(t,n){var e=en.map((function(e){return t.getElementById(n+"-"+e)||null}));return-1!==e.indexOf(null)?null:e}var un={fill:Ht,"fill-opacity":Gt,stroke:Ht,"stroke-opacity":Gt,"stroke-width":Yt,"stroke-dashoffset":{f:ht,i:C},"stroke-dasharray":Ut,opacity:Gt,transform:function(t,n,r,i){if(!(t=function(t,n){if(!t||"object"!==e(t))return null;var r=!1;for(var i in t)t.hasOwnProperty(i)&&(t[i]&&t[i].length?(t[i].forEach((function(t){t.e&&(t.e=n(t.e))})),r=!0):delete t[i]);return r?t:null}(t,i)))return null;var u=function(e,i,u){var o=arguments.length>3&&void 0!==arguments[3]?arguments[3]:null;return t[e]?r(i,t[e],u):n&&n[e]?n[e]:o};return n&&n.a&&t.o?function(n){var e=r(n,t.o,Ft);return Vt.recomposeSelf(e,u("r",n,C,0)+e.a,u("k",n,q),u("s",n,q),u("t",n,q)).toString()}:function(t){return Vt.recomposeSelf(u("o",t,Ct,null),u("r",t,C,0),u("k",t,q),u("s",t,q),u("t",t,q)).toString()}},"#filter":function(t,n,e,r,i,u,o,a){if(!n.items||!t||!t.length)return null;var l=function(t,n){var e=(t=t.map((function(t){return t&&nn[t[0]]?(n.getElementById(t[1]),nn[t[0]](n.getElementById(t[1]),t[1],n)):null}))).length;return function(n){for(var r=0;r<e;r++)t[r]&&t[r](n[r].value)}}(n.items,a);return l?(t=function(t,n){return t.map((function(t){return t.e=n(t.e),t}))}(t,r),function(n){l(e(n,t,tn))}):null},"#line":zt,points:{f:vt,i:Y},d:Dt,r:Yt,"#size":mt,"#radius":pt,_:function(t,n){if(Array.isArray(t))for(var e=0;e<t.length;e++)this[t[e]]=n;else this[t]=n}},on=function(t){!function(t,n){if("function"!=typeof n&&null!==n)throw new TypeError("Super expression must either be null or a function");t.prototype=Object.create(n&&n.prototype,{constructor:{value:t,writable:!0,configurable:!0}}),n&&l(t,n)}(o,t);var n,e,i=(n=o,e=s(),function(){var t,r=a(n);if(e){var i=a(this).constructor;t=Reflect.construct(r,arguments,i)}else t=r.apply(this,arguments);return c(this,t)});function o(){return r(this,o),i.apply(this,arguments)}return u(o,null,[{key:"build",value:function(t){var n=h(a(o),"build",this).call(this,t,un);if(!n)return null;var e=n.el,r=n.options,i=n.player;return function(t,n,e){if("click"===e.start){var r=function(){switch(e.click){case"freeze":return!t._running&&t.reachedToEnd()&&(t.offset=0),t._running?t.pause():t.play();case"restart":return t.offset>0?t.restart():t.play();case"reverse":var n=!t._rollingBack&&t._running,r=t.reachedToEnd();return n||r&&1===t.fill?(t.pause(),r&&(t.offset=t.duration-1),t._rollback()):r?t.restart():t.play();case"none":default:return!t._running&&t.offset?t.restart():t.play()}};return void n.addEventListener("click",r)}if("hover"===e.start)return n.addEventListener("mouseenter",(function(){return t.reachedToEnd()?t.restart():t.play()})),void n.addEventListener("mouseleave",(function(){switch(e.hover){case"freeze":return t.pause();case"reset":return t.stop();case"reverse":return t.pause(),t._rollback();case"none":default:return}}));if("scroll"===e.start)return void new ct(n,e.scroll||25,(function(n){n?t.reachedToEnd()?t.restart():t.play():t.pause()}));t.play()}(i,e,r),i}}]),o}(st);return on.init(),on}));
(function(s,i,o,w){w[o]=w[o]||{};w[o][s]=w[o][s]||[];w[o][s].push(i);})('91c80d77',{"root":"erBnYlHOy481","animations":[{"elements":{"erBnYlHOy482":{"transform":{"data":{"o":{"x":380.066989,"y":379.950006,"type":"corner"},"t":{"x":-380.066988,"y":-379.950006}},"keys":{"r":[{"t":0,"v":0},{"t":10487.80487804878,"v":360}]}}}},"s":"MDSA2NDhlMzU3NBzg4SDg1NzQ4CNzdjODI4MTMU1NGQ0NDQzNDYg0OTRjNDE0NTDQzNDg0OTRjINDQ0MzQ4NDkW0YzQ0RTQ0M2NYzNTc3N2M4NBUc3ODc2ODc3HYzgyODEzNTRFkNDQzZjM1N2HM4Nzc4ODU3NXDg3N2M4MlI4XMTg2MzU0ZDQL0M2YzNTc5N2IM3ZjdmMzU0ZBEc0NDNmMzU3NNDdmODc3ODgR1ODE3NDg3NzPgzNTRkNzk3NNDdmODY3ODNmYMzU4NjgzNzhPWNzg3NzM1NGSRJNDQ0MTQ1NHDY5MA|"}],"options":"MDOAxZjkxMzg4OTThhNzdOODg4JYTM4NTAzODgK5Nzk4ODg1ODUI4MkIzODQyTYzM4ODlKNzk4YODg1ODI4MjMB4NTA0NzQ2NDFY5Mw|"},'__SVGATOR_PLAYER__',window)]]></script></svg>