<svg width="277" height="70" viewBox="0 0 277 70" fill="none" xmlns="http://www.w3.org/2000/svg">
<path d="M38.4854 60.9011H39.0121V62.5121H39.3655V60.9011H39.8911V60.624H38.4854V60.9011Z"/>
<path d="M41.3662 61.9135L40.8691 60.624H40.3994V62.5121H40.7164V61.0869L41.2899 62.5121H41.4027L41.9659 61.0869V62.5121H42.3171V60.624H41.8519L41.3662 61.9135Z"/>
<path d="M44.0628 41.2156L48.6279 42.862L45.0718 39.8623L43.2898 40.1473L44.0628 41.2156Z"/>
<path d="M26.7356 40.1473L24.9524 39.8623L21.3975 42.862L25.9625 41.2156L26.7356 40.1473Z"/>
<path d="M25.9625 28.7783L21.3975 27.1309L24.9524 30.1317L26.7356 29.8455L25.9625 28.7783Z"/>
<path d="M43.2898 29.8455L45.0718 30.1317L48.6279 27.1309L44.0628 28.7772L43.2898 29.8455Z"/>
<path d="M28.786 25.938L29.8543 26.711L30.1405 24.929L27.1396 21.374L28.786 25.938Z"/>
<path d="M28.786 44.0582L27.1396 48.621L30.1405 45.0672L29.8543 43.2852L28.786 44.0582Z"/>
<path d="M41.2173 25.938L42.8648 21.374L39.864 24.929L40.1502 26.711L41.2173 25.938Z"/>
<path d="M35.0309 29.0771C27.2404 29.2105 27.2416 40.7954 35.0309 40.9265C42.8214 40.7931 42.8203 29.2083 35.0309 29.0771ZM35.0309 39.0601C29.6951 38.9689 29.6963 31.0347 35.0309 30.9435C40.3667 31.0347 40.3656 38.97 35.0309 39.0601Z"/>
<path d="M41.2173 44.057L40.1502 43.2852L39.864 45.0672L42.8648 48.621L41.2173 44.057Z"/>
<path d="M37.313 32.6479C37.3084 32.608 37.2913 32.5749 37.2594 32.5487C37.2286 32.5225 37.1933 32.5088 37.1545 32.5088H36.0509C35.9711 32.5088 35.9163 32.5487 35.8867 32.6285L35.002 35.48L34.1241 32.6285C34.1001 32.5487 34.0488 32.5088 33.969 32.5088H32.8517C32.8038 32.5088 32.7673 32.5225 32.7422 32.5498C32.716 32.5772 32.7012 32.6091 32.6966 32.6479L32.2349 37.034C32.2349 37.1263 32.2816 37.1719 32.374 37.1719H33.2872C33.3887 37.1719 33.4411 37.1263 33.4457 37.034L33.7262 34.6123L34.4524 37.0488C34.4547 37.0716 34.4707 37.0978 34.4992 37.1252C34.5277 37.1537 34.555 37.1674 34.5812 37.1674H35.4306C35.4569 37.1674 35.4831 37.1525 35.5093 37.124C35.5355 37.0944 35.5515 37.0693 35.5561 37.0488L36.2823 34.6055L36.5628 37.0328C36.5674 37.1252 36.6187 37.1708 36.7179 37.1708H37.6311C37.7257 37.1708 37.7725 37.1297 37.7725 37.0488V37.0328C37.6972 36.2963 37.6197 35.5643 37.5422 34.8392C37.4658 34.1152 37.3882 33.3844 37.313 32.6479Z"/>
<path d="M41.9995 30.3072C42.1329 30.2935 47.7937 21.974 48.0046 22.1906C50.3544 24.5712 52.0521 27.5937 52.8159 30.9662L54.9263 31.3254C53.3564 22.6102 46.1872 16.0761 37.4652 14.8425L35.1006 0.0743935C35.0846 -0.0247978 34.9421 -0.0247978 34.9262 0.0743935L32.5604 14.8414C23.8418 16.075 16.6738 22.6056 15.1016 31.3151L17.2131 30.956C17.9781 27.5869 19.6758 24.5689 22.0222 22.1895C22.2399 21.974 27.8904 30.2924 28.0284 30.3061C28.1561 30.6379 17.147 32.0904 17.0398 32.177L14.8952 32.5236C13.4735 32.7984 1.29461 34.7001 0.225171 34.8917L0.234292 34.8871C-0.13283 34.9122 -0.0290782 35.1174 0.274196 35.1186L0.225171 35.0969C8.35886 36.416 19.8377 38.2539 27.9702 39.5537C28.3408 39.6654 22.1065 47.6623 22.159 47.7991C19.6712 45.7708 18.018 42.3162 17.2108 39.0315L15.1004 38.6724C16.6693 47.3887 23.8384 53.9239 32.5615 55.1586L34.9273 69.9256C34.9433 70.0248 35.0858 70.0248 35.1018 69.9256L37.4675 55.1586C46.1861 53.925 53.3552 47.3944 54.9275 38.6838L52.8159 39.0429C52.0509 42.412 50.3533 45.431 48.0069 47.8105C47.7891 48.026 42.1386 39.7076 42.0007 39.6939C41.8616 39.3576 52.8809 37.9222 52.9813 37.8184C57.5954 36.9268 65.6527 36.0341 70 34.9384L56.5978 32.7733C54.1248 32.2454 44.3881 31.0677 41.9995 30.3072ZM37.9304 16.9814C41.7556 17.5971 45.1862 19.4064 47.8279 22.0116C48.0434 22.2294 39.7227 27.8776 39.709 28.0156C39.6554 28.0543 39.5802 28.0224 39.5699 27.9574C39.6691 27.848 37.5815 16.9552 37.9304 16.9814ZM22.2103 22.1485C24.4963 19.4007 28.3613 17.6404 32.0975 16.9814C32.4464 16.9517 30.3588 27.8525 30.458 27.9586C30.3463 28.328 22.3471 22.096 22.2103 22.1485ZM32.0975 53.0175C28.2724 52.4007 24.8417 50.5924 22.2 47.9872C21.9846 47.7695 30.3052 42.1213 30.3189 41.9833C30.3725 41.9445 30.4477 41.9765 30.458 42.0414C30.3588 42.1475 32.4464 53.046 32.0975 53.0175ZM47.8165 47.8504C45.5317 50.5981 41.6655 52.3585 37.9293 53.0175C37.5804 53.0471 39.668 42.1463 39.5688 42.0403C39.6805 41.6709 47.6808 47.9029 47.8165 47.8504ZM59.4994 35.1813H42.768C42.6893 38.6028 40.3954 41.4759 37.2634 42.4234C37.0993 42.4245 35.3902 60.2801 34.9615 59.7214V42.7552C31.5696 42.7324 28.6965 40.5353 27.6647 37.4878L10.4031 35.3683C9.87181 34.8803 27.2679 35.35 27.2588 35.1927C27.1573 31.6606 29.4832 28.5947 32.6915 27.5971C32.8546 27.596 34.5214 10.095 34.9501 10.6537V27.246C38.5313 27.2106 41.5731 29.6277 42.4864 32.9181C42.4909 33.0789 60.0569 34.7526 59.4994 35.1813Z"/>
<path d="M14.8793 28.9157L12.4759 28.21L12.3528 28.6295L14.7562 29.3353C14.7961 29.195 14.8371 29.0548 14.8793 28.9157Z"/>
<path d="M18.7111 48.2705L16.7375 49.9043L17.0169 50.2407L18.9916 48.6057C18.8958 48.4962 18.8035 48.3834 18.7111 48.2705Z"/>
<path d="M15.673 26.7399L13.3631 25.7754L13.1943 26.179L15.5054 27.1447C15.559 27.009 15.6148 26.8745 15.673 26.7399Z"/>
<path d="M16.4443 25.0817L14.2291 23.9199L14.0261 24.3064L16.2414 25.4682C16.3075 25.3394 16.3748 25.2105 16.4443 25.0817Z"/>
<path d="M14.3708 30.9743L11.907 30.5137L11.8271 30.9435L14.2921 31.4041C14.3161 31.2605 14.3434 31.1168 14.3708 30.9743Z"/>
<path d="M21.9077 54.6242L22.2737 54.8637L23.6863 52.7111C23.5632 52.6324 23.4412 52.5526 23.3203 52.4717L21.9077 54.6242Z"/>
<path d="M20.0065 49.7363L18.1914 51.5514L18.5004 51.8604L20.3155 50.0453C20.2117 49.9427 20.108 49.8412 20.0065 49.7363Z"/>
<path d="M21.6261 51.21L20.0071 53.2063L20.3468 53.4822L21.967 51.4859C21.8518 51.3947 21.7378 51.3023 21.6261 51.21Z"/>
<path d="M55.1602 29.0007L57.5511 28.2562L57.4211 27.8389L55.0303 28.5845C55.0747 28.7225 55.1181 28.8604 55.1602 29.0007Z"/>
<path d="M54.5447 27.2658L56.8615 26.3149L56.6961 25.9102L54.3794 26.861C54.4353 26.9956 54.4911 27.1301 54.5447 27.2658Z"/>
<path d="M53.5994 25.1575L55.7942 23.9593L55.5844 23.5762L53.3896 24.7744C53.4615 24.901 53.531 25.0298 53.5994 25.1575Z"/>
<path d="M55.6649 30.9901L58.1196 30.4804L58.0307 30.0518L55.5771 30.5614C55.6079 30.7051 55.6376 30.8476 55.6649 30.9901Z"/>
<path d="M42.7524 54.5375L43.7307 56.9204L44.1354 56.754L43.1572 54.3711C43.0215 54.4281 42.887 54.484 42.7524 54.5375Z"/>
<path d="M52.4307 46.7486L54.5707 48.1521L54.8101 47.7862L52.6701 46.3838C52.5914 46.5058 52.5116 46.6278 52.4307 46.7486Z"/>
<path d="M53.5071 44.9986L55.7691 46.1855L55.972 45.799L53.7112 44.6133C53.645 44.7421 53.5766 44.8698 53.5071 44.9986Z"/>
<path d="M54.3042 43.3536L56.654 44.3353L56.8227 43.9317L54.4741 42.9512C54.4194 43.0868 54.3623 43.2202 54.3042 43.3536Z"/>
<path d="M44.8689 53.5653L46.1037 55.825L46.4879 55.6152L45.2531 53.3555C45.1254 53.4262 44.9977 53.4957 44.8689 53.5653Z"/>
<path d="M55.1035 41.185L57.5388 41.8999L57.662 41.4803L55.2289 40.7666C55.189 40.9057 55.1468 41.0459 55.1035 41.185Z"/>
<path d="M55.6194 39.13L58.1049 39.5941L58.1847 39.1642L55.7003 38.7002C55.6753 38.8439 55.6479 38.9875 55.6194 39.13Z"/>
<path d="M46.6885 52.4798L48.1433 54.6027L48.5036 54.3553L47.0488 52.2324C46.9302 52.3168 46.8093 52.4 46.6885 52.4798Z"/>
<path d="M17.5549 46.7344L15.4434 48.1812L15.6908 48.5415L17.8034 47.0947C17.7191 46.9749 17.637 46.8541 17.5549 46.7344Z"/>
<path d="M51.177 48.4394L53.1688 50.0538L53.4447 49.714L51.4541 48.0996C51.3628 48.2136 51.2705 48.3265 51.177 48.4394Z"/>
<path d="M49.8798 49.8632C49.8194 49.9236 49.7579 49.9841 49.6963 50.0434L51.5114 51.8584L51.8204 51.5495L50.0053 49.7344C49.9631 49.7777 49.922 49.821 49.8798 49.8632Z"/>
<path d="M48.1963 51.3487L49.8369 53.3279L50.1733 53.0486L48.5338 51.0693C48.422 51.164 48.3092 51.2575 48.1963 51.3487Z"/>
<path d="M30.4458 58.1615L30.8756 58.2413L31.3476 55.7147C31.204 55.6897 31.0603 55.6623 30.9178 55.6338L30.4458 58.1615Z"/>
<path d="M14.872 41.0977L12.4492 41.8524L12.5792 42.2697L15.0031 41.5138C14.9586 41.3759 14.9142 41.2368 14.872 41.0977Z"/>
<path d="M23.8584 55.8009L24.246 56.0039L25.4432 53.7225C25.3132 53.6563 25.1844 53.5891 25.0555 53.5195L23.8584 55.8009Z"/>
<path d="M14.3689 39.1143L11.8926 39.6285L11.9815 40.0571L14.459 39.5418C14.4282 39.4004 14.3974 39.2568 14.3689 39.1143Z"/>
<path d="M16.4661 44.9219L14.2246 46.1452L14.4344 46.5283L16.677 45.3038C16.6052 45.1784 16.5345 45.0507 16.4661 44.9219Z"/>
<path d="M42.2259 57.4687L41.4598 55.0117C41.3207 55.0562 41.1816 55.1006 41.0425 55.1417L41.8086 57.5975L42.2259 57.4687Z"/>
<path d="M15.4833 42.8281L13.1289 43.7938L13.2954 44.1986L15.652 43.2317C15.5927 43.0983 15.5369 42.9638 15.4833 42.8281Z"/>
<path d="M28.1487 57.5856L28.5682 57.7087L29.2934 55.2403C29.1531 55.2004 29.0129 55.1594 28.8738 55.1172L28.1487 57.5856Z"/>
<path d="M25.7224 56.6963L26.126 56.8651L27.1191 54.489C26.9845 54.4343 26.85 54.3785 26.7155 54.3203L25.7224 56.6963Z"/>
<path d="M39.0342 55.6368L39.5575 58.1542L39.9862 58.0652L39.4629 55.5479C39.3204 55.5786 39.1778 55.6083 39.0342 55.6368Z"/>
<path d="M30.9333 14.3655L30.4316 11.9541L30.0029 12.043L30.5046 14.4555C30.6482 14.4236 30.7908 14.394 30.9333 14.3655Z"/>
<path d="M39.516 11.9489L39.0862 11.8691L38.6335 14.2896C38.7772 14.3147 38.9197 14.3421 39.0634 14.3706L39.516 11.9489Z"/>
<path d="M17.5059 23.3263L15.4172 21.957L15.1777 22.323L17.2676 23.6935C17.3451 23.5692 17.4249 23.4472 17.5059 23.3263Z"/>
<path d="M18.778 21.6246L16.8421 20.0547L16.5662 20.3944L18.5032 21.9644C18.5945 21.8504 18.6857 21.7364 18.778 21.6246Z"/>
<path d="M23.2767 17.5565L21.8732 15.5088L21.5129 15.7562L22.9164 17.805C23.0362 17.7206 23.1559 17.6374 23.2767 17.5565Z"/>
<path d="M20.1221 20.1346C20.1643 20.0925 20.2076 20.0514 20.2498 20.0092L18.4906 18.25L18.1816 18.559L19.942 20.3182C20.0024 20.2578 20.0617 20.1962 20.1221 20.1346Z"/>
<path d="M21.7118 18.6944L20.127 16.7812L19.7896 17.0606L21.3755 18.9737C21.4861 18.8791 21.5978 18.7867 21.7118 18.6944Z"/>
<path d="M25.082 16.4586L23.894 14.2832L23.5098 14.493L24.6989 16.6695C24.8255 16.5977 24.9532 16.5281 25.082 16.4586Z"/>
<path d="M50.0273 20.3201L51.7877 18.5609L51.4787 18.252L49.7195 20.0112C49.8244 20.1115 49.9258 20.2153 50.0273 20.3201Z"/>
<path d="M48.1001 15.4875L47.7341 15.248L46.3728 17.3231C46.4948 17.4018 46.6168 17.4827 46.7376 17.5637L48.1001 15.4875Z"/>
<path d="M51.3417 21.794L53.2628 20.2035L52.9835 19.8672L51.0635 21.4565C51.1581 21.5671 51.2505 21.68 51.3417 21.794Z"/>
<path d="M28.9342 14.8672L28.2 12.5117L27.7827 12.6417L28.5181 14.9983C28.6549 14.9527 28.794 14.9094 28.9342 14.8672Z"/>
<path d="M27.1899 15.4757L26.2505 13.1875L25.8457 13.354L26.7852 15.6422C26.9197 15.5863 27.0542 15.5305 27.1899 15.4757Z"/>
<path d="M52.4893 23.3372L54.5496 21.9257L54.3022 21.5654L52.2419 22.9769C52.3263 23.0955 52.4084 23.2163 52.4893 23.3372Z"/>
<path d="M48.4194 18.8351L49.986 16.9048L49.6462 16.6289L48.0808 18.558C48.1937 18.6492 48.3066 18.7416 48.4194 18.8351Z"/>
<path d="M46.1363 14.3084L45.7487 14.1055L44.5972 16.3002C44.7271 16.3675 44.856 16.4348 44.9837 16.5043L46.1363 14.3084Z"/>
<path d="M41.8284 12.5216L41.4089 12.3984L40.7134 14.7653C40.8536 14.8053 40.9939 14.8463 41.133 14.8896L41.8284 12.5216Z"/>
<path d="M44.2702 13.4139L43.8666 13.2451L42.9124 15.5265C43.0469 15.5812 43.1814 15.6383 43.316 15.6964L44.2702 13.4139Z"/>
<path d="M105.464 14.6064L96.8051 34.5116L88.1917 14.6064H79.9599L76.8662 46.1293H85.2888L86.8108 28.8814L94.0929 45.7702H99.5649L106.845 28.8814L108.367 46.1293H116.79L113.696 14.6064H105.464Z"/>
<path d="M130.338 36.32L125.151 22.8086H116.062L126.245 44.0658L120.678 55.9995H128.91L144.565 22.8086H135.763L130.338 36.32Z"/>
<path d="M164.576 41.2485L151.359 14H146.745V46.2977H150.878V21.7797H151.118L163.038 46.2977H166.163L178.083 21.7797H178.323V46.2977H182.456V14H177.84L164.576 41.2485Z"/>
<path d="M197.94 22.1885C191.45 22.1885 184.961 26.555 184.961 34.4701C184.961 42.387 191.45 46.7535 197.94 46.7535C204.427 46.7535 210.916 42.387 210.916 34.4701C210.916 26.5569 204.427 22.1885 197.94 22.1885ZM197.94 43.252C193.324 43.252 188.998 40.0683 188.998 34.4719C188.998 28.8774 193.324 25.6937 197.94 25.6937C202.551 25.6937 206.879 28.8774 206.879 34.4719C206.879 40.0665 202.551 43.252 197.94 43.252Z"/>
<path d="M225.909 22.1885C221.584 22.1885 218.844 24.2363 217.546 26.5099V22.6436H213.509V46.2985H217.546V32.9243C217.546 28.1478 220.67 25.6919 224.659 25.6919C228.647 25.6919 231.628 28.1478 231.628 32.9243V46.2985H235.665V32.379C235.667 25.2838 231.149 22.1885 225.909 22.1885Z"/>
<path d="M244.874 16.5947H240.836V22.6462H237.472V25.7847H240.836V41.4775C240.836 45.0261 243.095 46.5737 246.412 46.5737C247.566 46.5737 248.911 46.3913 249.776 45.7557V42.7074C248.864 43.0271 248.093 43.1173 247.516 43.1173C245.643 43.1173 244.874 42.2072 244.874 40.7517V25.7847H249.825V22.6462H244.874V16.5947V16.5947Z"/>
<path d="M272.684 22.6406L264.368 41.5641L256.055 22.6406H251.873L262.397 46.068L258.265 54.9383H262.254L266.244 46.2936L276.866 22.6406H272.684Z"/>
</svg>
