<svg width="255" height="255" viewBox="0 0 255 255" fill="none" xmlns="http://www.w3.org/2000/svg">
<path d="M255 0H0V255H255V0Z" fill="white"/>
<path d="M24.2258 15.3008H15.3008V24.2258H24.2258V15.3008Z" fill="#252B51"/>
<path d="M33.1516 15.3008H24.2266V24.2258H33.1516V15.3008Z" fill="#252B51"/>
<path d="M42.0734 15.3008H33.1484V24.2258H42.0734V15.3008Z" fill="#252B51"/>
<path d="M51.0031 15.3008H42.0781V24.2258H51.0031V15.3008Z" fill="#252B51"/>
<path d="M59.925 15.3008H51V24.2258H59.925V15.3008Z" fill="#252B51"/>
<path d="M68.8508 15.3008H59.9258V24.2258H68.8508V15.3008Z" fill="#252B51"/>
<path d="M77.7727 15.3008H68.8477V24.2258H77.7727V15.3008Z" fill="#252B51"/>
<path d="M104.55 15.3008H95.625V24.2258H104.55V15.3008Z" fill="#252B51"/>
<path d="M113.476 15.3008H104.551V24.2258H113.476V15.3008Z" fill="#252B51"/>
<path d="M122.398 15.3008H113.473V24.2258H122.398V15.3008Z" fill="#252B51"/>
<path d="M149.175 15.3008H140.25V24.2258H149.175V15.3008Z" fill="#252B51"/>
<path d="M184.874 15.3008H175.949V24.2258H184.874V15.3008Z" fill="#252B51"/>
<path d="M193.8 15.3008H184.875V24.2258H193.8V15.3008Z" fill="#252B51"/>
<path d="M202.726 15.3008H193.801V24.2258H202.726V15.3008Z" fill="#252B51"/>
<path d="M211.652 15.3008H202.727V24.2258H211.652V15.3008Z" fill="#252B51"/>
<path d="M220.573 15.3008H211.648V24.2258H220.573V15.3008Z" fill="#252B51"/>
<path d="M229.499 15.3008H220.574V24.2258H229.499V15.3008Z" fill="#252B51"/>
<path d="M238.425 15.3008H229.5V24.2258H238.425V15.3008Z" fill="#252B51"/>
<path d="M24.2258 24.2246H15.3008V33.1496H24.2258V24.2246Z" fill="#252B51"/>
<path d="M77.7727 24.2246H68.8477V33.1496H77.7727V24.2246Z" fill="#252B51"/>
<path d="M122.398 24.2246H113.473V33.1496H122.398V24.2246Z" fill="#252B51"/>
<path d="M131.327 24.2246H122.402V33.1496H131.327V24.2246Z" fill="#252B51"/>
<path d="M149.175 24.2246H140.25V33.1496H149.175V24.2246Z" fill="#252B51"/>
<path d="M167.027 24.2246H158.102V33.1496H167.027V24.2246Z" fill="#252B51"/>
<path d="M184.874 24.2246H175.949V33.1496H184.874V24.2246Z" fill="#252B51"/>
<path d="M238.425 24.2246H229.5V33.1496H238.425V24.2246Z" fill="#252B51"/>
<path d="M24.2258 33.1504H15.3008V42.0754H24.2258V33.1504Z" fill="#252B51"/>
<path d="M42.0734 33.1504H33.1484V42.0754H42.0734V33.1504Z" fill="#252B51"/>
<path d="M51.0031 33.1504H42.0781V42.0754H51.0031V33.1504Z" fill="#252B51"/>
<path d="M59.925 33.1504H51V42.0754H59.925V33.1504Z" fill="#252B51"/>
<path d="M77.7727 33.1504H68.8477V42.0754H77.7727V33.1504Z" fill="#252B51"/>
<path d="M104.55 33.1504H95.625V42.0754H104.55V33.1504Z" fill="#252B51"/>
<path d="M113.476 33.1504H104.551V42.0754H113.476V33.1504Z" fill="#252B51"/>
<path d="M122.398 33.1504H113.473V42.0754H122.398V33.1504Z" fill="#252B51"/>
<path d="M149.175 33.1504H140.25V42.0754H149.175V33.1504Z" fill="#252B51"/>
<path d="M167.027 33.1504H158.102V42.0754H167.027V33.1504Z" fill="#252B51"/>
<path d="M184.874 33.1504H175.949V42.0754H184.874V33.1504Z" fill="#252B51"/>
<path d="M202.726 33.1504H193.801V42.0754H202.726V33.1504Z" fill="#252B51"/>
<path d="M211.652 33.1504H202.727V42.0754H211.652V33.1504Z" fill="#252B51"/>
<path d="M220.573 33.1504H211.648V42.0754H220.573V33.1504Z" fill="#252B51"/>
<path d="M238.425 33.1504H229.5V42.0754H238.425V33.1504Z" fill="#252B51"/>
<path d="M24.2258 42.0742H15.3008V50.9992H24.2258V42.0742Z" fill="#252B51"/>
<path d="M42.0734 42.0742H33.1484V50.9992H42.0734V42.0742Z" fill="#252B51"/>
<path d="M51.0031 42.0742H42.0781V50.9992H51.0031V42.0742Z" fill="#252B51"/>
<path d="M59.925 42.0742H51V50.9992H59.925V42.0742Z" fill="#252B51"/>
<path d="M77.7727 42.0742H68.8477V50.9992H77.7727V42.0742Z" fill="#252B51"/>
<path d="M95.6242 42.0742H86.6992V50.9992H95.6242V42.0742Z" fill="#252B51"/>
<path d="M113.476 42.0742H104.551V50.9992H113.476V42.0742Z" fill="#252B51"/>
<path d="M122.398 42.0742H113.473V50.9992H122.398V42.0742Z" fill="#252B51"/>
<path d="M149.175 42.0742H140.25V50.9992H149.175V42.0742Z" fill="#252B51"/>
<path d="M158.097 42.0742H149.172V50.9992H158.097V42.0742Z" fill="#252B51"/>
<path d="M167.027 42.0742H158.102V50.9992H167.027V42.0742Z" fill="#252B51"/>
<path d="M184.874 42.0742H175.949V50.9992H184.874V42.0742Z" fill="#252B51"/>
<path d="M202.726 42.0742H193.801V50.9992H202.726V42.0742Z" fill="#252B51"/>
<path d="M211.652 42.0742H202.727V50.9992H211.652V42.0742Z" fill="#252B51"/>
<path d="M220.573 42.0742H211.648V50.9992H220.573V42.0742Z" fill="#252B51"/>
<path d="M238.425 42.0742H229.5V50.9992H238.425V42.0742Z" fill="#252B51"/>
<path d="M24.2258 51H15.3008V59.925H24.2258V51Z" fill="#252B51"/>
<path d="M42.0734 51H33.1484V59.925H42.0734V51Z" fill="#252B51"/>
<path d="M51.0031 51H42.0781V59.925H51.0031V51Z" fill="#252B51"/>
<path d="M59.925 51H51V59.925H59.925V51Z" fill="#252B51"/>
<path d="M77.7727 51H68.8477V59.925H77.7727V51Z" fill="#252B51"/>
<path d="M95.6242 51H86.6992V59.925H95.6242V51Z" fill="#252B51"/>
<path d="M113.476 51H104.551V59.925H113.476V51Z" fill="#252B51"/>
<path d="M131.327 51H122.402V59.925H131.327V51Z" fill="#252B51"/>
<path d="M140.249 51H131.324V59.925H140.249V51Z" fill="#252B51"/>
<path d="M167.027 51H158.102V59.925H167.027V51Z" fill="#252B51"/>
<path d="M184.874 51H175.949V59.925H184.874V51Z" fill="#252B51"/>
<path d="M202.726 51H193.801V59.925H202.726V51Z" fill="#252B51"/>
<path d="M211.652 51H202.727V59.925H211.652V51Z" fill="#252B51"/>
<path d="M220.573 51H211.648V59.925H220.573V51Z" fill="#252B51"/>
<path d="M238.425 51H229.5V59.925H238.425V51Z" fill="#252B51"/>
<path d="M24.2258 59.9258H15.3008V68.8508H24.2258V59.9258Z" fill="#252B51"/>
<path d="M77.7727 59.9258H68.8477V68.8508H77.7727V59.9258Z" fill="#252B51"/>
<path d="M104.55 59.9258H95.625V68.8508H104.55V59.9258Z" fill="#252B51"/>
<path d="M113.476 59.9258H104.551V68.8508H113.476V59.9258Z" fill="#252B51"/>
<path d="M140.249 59.9258H131.324V68.8508H140.249V59.9258Z" fill="#252B51"/>
<path d="M149.175 59.9258H140.25V68.8508H149.175V59.9258Z" fill="#252B51"/>
<path d="M167.027 59.9258H158.102V68.8508H167.027V59.9258Z" fill="#252B51"/>
<path d="M184.874 59.9258H175.949V68.8508H184.874V59.9258Z" fill="#252B51"/>
<path d="M238.425 59.9258H229.5V68.8508H238.425V59.9258Z" fill="#252B51"/>
<path d="M24.2258 68.8516H15.3008V77.7766H24.2258V68.8516Z" fill="#252B51"/>
<path d="M33.1516 68.8516H24.2266V77.7766H33.1516V68.8516Z" fill="#252B51"/>
<path d="M42.0734 68.8516H33.1484V77.7766H42.0734V68.8516Z" fill="#252B51"/>
<path d="M51.0031 68.8516H42.0781V77.7766H51.0031V68.8516Z" fill="#252B51"/>
<path d="M59.925 68.8516H51V77.7766H59.925V68.8516Z" fill="#252B51"/>
<path d="M68.8508 68.8516H59.9258V77.7766H68.8508V68.8516Z" fill="#252B51"/>
<path d="M77.7727 68.8516H68.8477V77.7766H77.7727V68.8516Z" fill="#252B51"/>
<path d="M95.6242 68.8516H86.6992V77.7766H95.6242V68.8516Z" fill="#252B51"/>
<path d="M113.476 68.8516H104.551V77.7766H113.476V68.8516Z" fill="#252B51"/>
<path d="M131.327 68.8516H122.402V77.7766H131.327V68.8516Z" fill="#252B51"/>
<path d="M149.175 68.8516H140.25V77.7766H149.175V68.8516Z" fill="#252B51"/>
<path d="M167.027 68.8516H158.102V77.7766H167.027V68.8516Z" fill="#252B51"/>
<path d="M184.874 68.8516H175.949V77.7766H184.874V68.8516Z" fill="#252B51"/>
<path d="M193.8 68.8516H184.875V77.7766H193.8V68.8516Z" fill="#252B51"/>
<path d="M202.726 68.8516H193.801V77.7766H202.726V68.8516Z" fill="#252B51"/>
<path d="M211.652 68.8516H202.727V77.7766H211.652V68.8516Z" fill="#252B51"/>
<path d="M220.573 68.8516H211.648V77.7766H220.573V68.8516Z" fill="#252B51"/>
<path d="M229.499 68.8516H220.574V77.7766H229.499V68.8516Z" fill="#252B51"/>
<path d="M238.425 68.8516H229.5V77.7766H238.425V68.8516Z" fill="#252B51"/>
<path d="M104.55 77.7754H95.625V86.7004H104.55V77.7754Z" fill="#252B51"/>
<path d="M131.327 77.7754H122.402V86.7004H131.327V77.7754Z" fill="#252B51"/>
<path d="M140.249 77.7754H131.324V86.7004H140.249V77.7754Z" fill="#252B51"/>
<path d="M158.097 77.7754H149.172V86.7004H158.097V77.7754Z" fill="#252B51"/>
<path d="M24.2258 86.7012H15.3008V95.6262H24.2258V86.7012Z" fill="#252B51"/>
<path d="M33.1516 86.7012H24.2266V95.6262H33.1516V86.7012Z" fill="#252B51"/>
<path d="M68.8508 86.7012H59.9258V95.6262H68.8508V86.7012Z" fill="#252B51"/>
<path d="M77.7727 86.7012H68.8477V95.6262H77.7727V86.7012Z" fill="#252B51"/>
<path d="M86.7023 86.7012H77.7773V95.6262H86.7023V86.7012Z" fill="#252B51"/>
<path d="M104.55 86.7012H95.625V95.6262H104.55V86.7012Z" fill="#252B51"/>
<path d="M113.476 86.7012H104.551V95.6262H113.476V86.7012Z" fill="#252B51"/>
<path d="M131.327 86.7012H122.402V95.6262H131.327V86.7012Z" fill="#252B51"/>
<path d="M149.175 86.7012H140.25V95.6262H149.175V86.7012Z" fill="#252B51"/>
<path d="M158.097 86.7012H149.172V95.6262H158.097V86.7012Z" fill="#252B51"/>
<path d="M202.726 86.7012H193.801V95.6262H202.726V86.7012Z" fill="#252B51"/>
<path d="M211.652 86.7012H202.727V95.6262H211.652V86.7012Z" fill="#252B51"/>
<path d="M24.2258 95.625H15.3008V104.55H24.2258V95.625Z" fill="#252B51"/>
<path d="M42.0734 95.625H33.1484V104.55H42.0734V95.625Z" fill="#252B51"/>
<path d="M51.0031 95.625H42.0781V104.55H51.0031V95.625Z" fill="#252B51"/>
<path d="M59.925 95.625H51V104.55H59.925V95.625Z" fill="#252B51"/>
<path d="M68.8508 95.625H59.9258V104.55H68.8508V95.625Z" fill="#252B51"/>
<path d="M95.6242 95.625H86.6992V104.55H95.6242V95.625Z" fill="#252B51"/>
<path d="M113.476 95.625H104.551V104.55H113.476V95.625Z" fill="#252B51"/>
<path d="M149.175 95.625H140.25V104.55H149.175V95.625Z" fill="#252B51"/>
<path d="M158.097 95.625H149.172V104.55H158.097V95.625Z" fill="#252B51"/>
<path d="M193.8 95.625H184.875V104.55H193.8V95.625Z" fill="#252B51"/>
<path d="M202.726 95.625H193.801V104.55H202.726V95.625Z" fill="#252B51"/>
<path d="M211.652 95.625H202.727V104.55H211.652V95.625Z" fill="#252B51"/>
<path d="M220.573 95.625H211.648V104.55H220.573V95.625Z" fill="#252B51"/>
<path d="M229.499 95.625H220.574V104.55H229.499V95.625Z" fill="#252B51"/>
<path d="M24.2258 104.549H15.3008V113.474H24.2258V104.549Z" fill="#252B51"/>
<path d="M33.1516 104.549H24.2266V113.474H33.1516V104.549Z" fill="#252B51"/>
<path d="M42.0734 104.549H33.1484V113.474H42.0734V104.549Z" fill="#252B51"/>
<path d="M51.0031 104.549H42.0781V113.474H51.0031V104.549Z" fill="#252B51"/>
<path d="M77.7727 104.549H68.8477V113.474H77.7727V104.549Z" fill="#252B51"/>
<path d="M86.7023 104.549H77.7773V113.474H86.7023V104.549Z" fill="#252B51"/>
<path d="M95.6242 104.549H86.6992V113.474H95.6242V104.549Z" fill="#252B51"/>
<path d="M104.55 104.549H95.625V113.474H104.55V104.549Z" fill="#252B51"/>
<path d="M122.398 104.549H113.473V113.474H122.398V104.549Z" fill="#252B51"/>
<path d="M131.327 104.549H122.402V113.474H131.327V104.549Z" fill="#252B51"/>
<path d="M158.097 104.549H149.172V113.474H158.097V104.549Z" fill="#252B51"/>
<path d="M175.948 104.549H167.023V113.474H175.948V104.549Z" fill="#252B51"/>
<path d="M193.8 104.549H184.875V113.474H193.8V104.549Z" fill="#252B51"/>
<path d="M211.652 104.549H202.727V113.474H211.652V104.549Z" fill="#252B51"/>
<path d="M229.499 104.549H220.574V113.474H229.499V104.549Z" fill="#252B51"/>
<path d="M238.425 104.549H229.5V113.474H238.425V104.549Z" fill="#252B51"/>
<path d="M24.2258 113.475H15.3008V122.4H24.2258V113.475Z" fill="#252B51"/>
<path d="M33.1516 113.475H24.2266V122.4H33.1516V113.475Z" fill="#252B51"/>
<path d="M59.925 113.475H51V122.4H59.925V113.475Z" fill="#252B51"/>
<path d="M86.7023 113.475H77.7773V122.4H86.7023V113.475Z" fill="#252B51"/>
<path d="M95.6242 113.475H86.6992V122.4H95.6242V113.475Z" fill="#252B51"/>
<path d="M113.476 113.475H104.551V122.4H113.476V113.475Z" fill="#252B51"/>
<path d="M122.398 113.475H113.473V122.4H122.398V113.475Z" fill="#252B51"/>
<path d="M149.175 113.475H140.25V122.4H149.175V113.475Z" fill="#252B51"/>
<path d="M158.097 113.475H149.172V122.4H158.097V113.475Z" fill="#252B51"/>
<path d="M167.027 113.475H158.102V122.4H167.027V113.475Z" fill="#252B51"/>
<path d="M175.948 113.475H167.023V122.4H175.948V113.475Z" fill="#252B51"/>
<path d="M184.874 113.475H175.949V122.4H184.874V113.475Z" fill="#252B51"/>
<path d="M202.726 113.475H193.801V122.4H202.726V113.475Z" fill="#252B51"/>
<path d="M211.652 113.475H202.727V122.4H211.652V113.475Z" fill="#252B51"/>
<path d="M238.425 113.475H229.5V122.4H238.425V113.475Z" fill="#252B51"/>
<path d="M24.2258 122.4H15.3008V131.325H24.2258V122.4Z" fill="#252B51"/>
<path d="M42.0734 122.4H33.1484V131.325H42.0734V122.4Z" fill="#252B51"/>
<path d="M59.925 122.4H51V131.325H59.925V122.4Z" fill="#252B51"/>
<path d="M68.8508 122.4H59.9258V131.325H68.8508V122.4Z" fill="#252B51"/>
<path d="M77.7727 122.4H68.8477V131.325H77.7727V122.4Z" fill="#252B51"/>
<path d="M86.7023 122.4H77.7773V131.325H86.7023V122.4Z" fill="#252B51"/>
<path d="M95.6242 122.4H86.6992V131.325H95.6242V122.4Z" fill="#252B51"/>
<path d="M104.55 122.4H95.625V131.325H104.55V122.4Z" fill="#252B51"/>
<path d="M113.476 122.4H104.551V131.325H113.476V122.4Z" fill="#252B51"/>
<path d="M140.249 122.4H131.324V131.325H140.249V122.4Z" fill="#252B51"/>
<path d="M149.175 122.4H140.25V131.325H149.175V122.4Z" fill="#252B51"/>
<path d="M167.027 122.4H158.102V131.325H167.027V122.4Z" fill="#252B51"/>
<path d="M184.874 122.4H175.949V131.325H184.874V122.4Z" fill="#252B51"/>
<path d="M238.425 122.4H229.5V131.325H238.425V122.4Z" fill="#252B51"/>
<path d="M24.2258 131.324H15.3008V140.249H24.2258V131.324Z" fill="#252B51"/>
<path d="M51.0031 131.324H42.0781V140.249H51.0031V131.324Z" fill="#252B51"/>
<path d="M59.925 131.324H51V140.249H59.925V131.324Z" fill="#252B51"/>
<path d="M68.8508 131.324H59.9258V140.249H68.8508V131.324Z" fill="#252B51"/>
<path d="M86.7023 131.324H77.7773V140.249H86.7023V131.324Z" fill="#252B51"/>
<path d="M113.476 131.324H104.551V140.249H113.476V131.324Z" fill="#252B51"/>
<path d="M131.327 131.324H122.402V140.249H131.327V131.324Z" fill="#252B51"/>
<path d="M140.249 131.324H131.324V140.249H140.249V131.324Z" fill="#252B51"/>
<path d="M149.175 131.324H140.25V140.249H149.175V131.324Z" fill="#252B51"/>
<path d="M158.097 131.324H149.172V140.249H158.097V131.324Z" fill="#252B51"/>
<path d="M193.8 131.324H184.875V140.249H193.8V131.324Z" fill="#252B51"/>
<path d="M229.499 131.324H220.574V140.249H229.499V131.324Z" fill="#252B51"/>
<path d="M24.2258 140.25H15.3008V149.175H24.2258V140.25Z" fill="#252B51"/>
<path d="M42.0734 140.25H33.1484V149.175H42.0734V140.25Z" fill="#252B51"/>
<path d="M51.0031 140.25H42.0781V149.175H51.0031V140.25Z" fill="#252B51"/>
<path d="M77.7727 140.25H68.8477V149.175H77.7727V140.25Z" fill="#252B51"/>
<path d="M95.6242 140.25H86.6992V149.175H95.6242V140.25Z" fill="#252B51"/>
<path d="M104.55 140.25H95.625V149.175H104.55V140.25Z" fill="#252B51"/>
<path d="M113.476 140.25H104.551V149.175H113.476V140.25Z" fill="#252B51"/>
<path d="M140.249 140.25H131.324V149.175H140.249V140.25Z" fill="#252B51"/>
<path d="M149.175 140.25H140.25V149.175H149.175V140.25Z" fill="#252B51"/>
<path d="M158.097 140.25H149.172V149.175H158.097V140.25Z" fill="#252B51"/>
<path d="M167.027 140.25H158.102V149.175H167.027V140.25Z" fill="#252B51"/>
<path d="M175.948 140.25H167.023V149.175H175.948V140.25Z" fill="#252B51"/>
<path d="M193.8 140.25H184.875V149.175H193.8V140.25Z" fill="#252B51"/>
<path d="M211.652 140.25H202.727V149.175H211.652V140.25Z" fill="#252B51"/>
<path d="M229.499 140.25H220.574V149.175H229.499V140.25Z" fill="#252B51"/>
<path d="M238.425 140.25H229.5V149.175H238.425V140.25Z" fill="#252B51"/>
<path d="M24.2258 149.176H15.3008V158.101H24.2258V149.176Z" fill="#252B51"/>
<path d="M51.0031 149.176H42.0781V158.101H51.0031V149.176Z" fill="#252B51"/>
<path d="M95.6242 149.176H86.6992V158.101H95.6242V149.176Z" fill="#252B51"/>
<path d="M104.55 149.176H95.625V158.101H104.55V149.176Z" fill="#252B51"/>
<path d="M131.327 149.176H122.402V158.101H131.327V149.176Z" fill="#252B51"/>
<path d="M140.249 149.176H131.324V158.101H140.249V149.176Z" fill="#252B51"/>
<path d="M149.175 149.176H140.25V158.101H149.175V149.176Z" fill="#252B51"/>
<path d="M167.027 149.176H158.102V158.101H167.027V149.176Z" fill="#252B51"/>
<path d="M175.948 149.176H167.023V158.101H175.948V149.176Z" fill="#252B51"/>
<path d="M193.8 149.176H184.875V158.101H193.8V149.176Z" fill="#252B51"/>
<path d="M220.573 149.176H211.648V158.101H220.573V149.176Z" fill="#252B51"/>
<path d="M238.425 149.176H229.5V158.101H238.425V149.176Z" fill="#252B51"/>
<path d="M24.2258 158.1H15.3008V167.025H24.2258V158.1Z" fill="#252B51"/>
<path d="M59.925 158.1H51V167.025H59.925V158.1Z" fill="#252B51"/>
<path d="M68.8508 158.1H59.9258V167.025H68.8508V158.1Z" fill="#252B51"/>
<path d="M77.7727 158.1H68.8477V167.025H77.7727V158.1Z" fill="#252B51"/>
<path d="M95.6242 158.1H86.6992V167.025H95.6242V158.1Z" fill="#252B51"/>
<path d="M104.55 158.1H95.625V167.025H104.55V158.1Z" fill="#252B51"/>
<path d="M113.476 158.1H104.551V167.025H113.476V158.1Z" fill="#252B51"/>
<path d="M131.327 158.1H122.402V167.025H131.327V158.1Z" fill="#252B51"/>
<path d="M149.175 158.1H140.25V167.025H149.175V158.1Z" fill="#252B51"/>
<path d="M167.027 158.1H158.102V167.025H167.027V158.1Z" fill="#252B51"/>
<path d="M175.948 158.1H167.023V167.025H175.948V158.1Z" fill="#252B51"/>
<path d="M184.874 158.1H175.949V167.025H184.874V158.1Z" fill="#252B51"/>
<path d="M193.8 158.1H184.875V167.025H193.8V158.1Z" fill="#252B51"/>
<path d="M202.726 158.1H193.801V167.025H202.726V158.1Z" fill="#252B51"/>
<path d="M220.573 158.1H211.648V167.025H220.573V158.1Z" fill="#252B51"/>
<path d="M95.6242 167.025H86.6992V175.95H95.6242V167.025Z" fill="#252B51"/>
<path d="M113.476 167.025H104.551V175.95H113.476V167.025Z" fill="#252B51"/>
<path d="M158.097 167.025H149.172V175.95H158.097V167.025Z" fill="#252B51"/>
<path d="M167.027 167.025H158.102V175.95H167.027V167.025Z" fill="#252B51"/>
<path d="M202.726 167.025H193.801V175.95H202.726V167.025Z" fill="#252B51"/>
<path d="M220.573 167.025H211.648V175.95H220.573V167.025Z" fill="#252B51"/>
<path d="M24.2258 175.949H15.3008V184.874H24.2258V175.949Z" fill="#252B51"/>
<path d="M33.1516 175.949H24.2266V184.874H33.1516V175.949Z" fill="#252B51"/>
<path d="M42.0734 175.949H33.1484V184.874H42.0734V175.949Z" fill="#252B51"/>
<path d="M51.0031 175.949H42.0781V184.874H51.0031V175.949Z" fill="#252B51"/>
<path d="M59.925 175.949H51V184.874H59.925V175.949Z" fill="#252B51"/>
<path d="M68.8508 175.949H59.9258V184.874H68.8508V175.949Z" fill="#252B51"/>
<path d="M77.7727 175.949H68.8477V184.874H77.7727V175.949Z" fill="#252B51"/>
<path d="M95.6242 175.949H86.6992V184.874H95.6242V175.949Z" fill="#252B51"/>
<path d="M104.55 175.949H95.625V184.874H104.55V175.949Z" fill="#252B51"/>
<path d="M131.327 175.949H122.402V184.874H131.327V175.949Z" fill="#252B51"/>
<path d="M140.249 175.949H131.324V184.874H140.249V175.949Z" fill="#252B51"/>
<path d="M149.175 175.949H140.25V184.874H149.175V175.949Z" fill="#252B51"/>
<path d="M167.027 175.949H158.102V184.874H167.027V175.949Z" fill="#252B51"/>
<path d="M184.874 175.949H175.949V184.874H184.874V175.949Z" fill="#252B51"/>
<path d="M202.726 175.949H193.801V184.874H202.726V175.949Z" fill="#252B51"/>
<path d="M211.652 175.949H202.727V184.874H211.652V175.949Z" fill="#252B51"/>
<path d="M238.425 175.949H229.5V184.874H238.425V175.949Z" fill="#252B51"/>
<path d="M24.2258 184.875H15.3008V193.8H24.2258V184.875Z" fill="#252B51"/>
<path d="M77.7727 184.875H68.8477V193.8H77.7727V184.875Z" fill="#252B51"/>
<path d="M95.6242 184.875H86.6992V193.8H95.6242V184.875Z" fill="#252B51"/>
<path d="M104.55 184.875H95.625V193.8H104.55V184.875Z" fill="#252B51"/>
<path d="M113.476 184.875H104.551V193.8H113.476V184.875Z" fill="#252B51"/>
<path d="M122.398 184.875H113.473V193.8H122.398V184.875Z" fill="#252B51"/>
<path d="M149.175 184.875H140.25V193.8H149.175V184.875Z" fill="#252B51"/>
<path d="M158.097 184.875H149.172V193.8H158.097V184.875Z" fill="#252B51"/>
<path d="M167.027 184.875H158.102V193.8H167.027V184.875Z" fill="#252B51"/>
<path d="M202.726 184.875H193.801V193.8H202.726V184.875Z" fill="#252B51"/>
<path d="M24.2258 193.799H15.3008V202.724H24.2258V193.799Z" fill="#252B51"/>
<path d="M42.0734 193.799H33.1484V202.724H42.0734V193.799Z" fill="#252B51"/>
<path d="M51.0031 193.799H42.0781V202.724H51.0031V193.799Z" fill="#252B51"/>
<path d="M59.925 193.799H51V202.724H59.925V193.799Z" fill="#252B51"/>
<path d="M77.7727 193.799H68.8477V202.724H77.7727V193.799Z" fill="#252B51"/>
<path d="M104.55 193.799H95.625V202.724H104.55V193.799Z" fill="#252B51"/>
<path d="M113.476 193.799H104.551V202.724H113.476V193.799Z" fill="#252B51"/>
<path d="M122.398 193.799H113.473V202.724H122.398V193.799Z" fill="#252B51"/>
<path d="M158.097 193.799H149.172V202.724H158.097V193.799Z" fill="#252B51"/>
<path d="M167.027 193.799H158.102V202.724H167.027V193.799Z" fill="#252B51"/>
<path d="M175.948 193.799H167.023V202.724H175.948V193.799Z" fill="#252B51"/>
<path d="M184.874 193.799H175.949V202.724H184.874V193.799Z" fill="#252B51"/>
<path d="M193.8 193.799H184.875V202.724H193.8V193.799Z" fill="#252B51"/>
<path d="M202.726 193.799H193.801V202.724H202.726V193.799Z" fill="#252B51"/>
<path d="M211.652 193.799H202.727V202.724H211.652V193.799Z" fill="#252B51"/>
<path d="M220.573 193.799H211.648V202.724H220.573V193.799Z" fill="#252B51"/>
<path d="M238.425 193.799H229.5V202.724H238.425V193.799Z" fill="#252B51"/>
<path d="M24.2258 202.725H15.3008V211.65H24.2258V202.725Z" fill="#252B51"/>
<path d="M42.0734 202.725H33.1484V211.65H42.0734V202.725Z" fill="#252B51"/>
<path d="M51.0031 202.725H42.0781V211.65H51.0031V202.725Z" fill="#252B51"/>
<path d="M59.925 202.725H51V211.65H59.925V202.725Z" fill="#252B51"/>
<path d="M77.7727 202.725H68.8477V211.65H77.7727V202.725Z" fill="#252B51"/>
<path d="M104.55 202.725H95.625V211.65H104.55V202.725Z" fill="#252B51"/>
<path d="M131.327 202.725H122.402V211.65H131.327V202.725Z" fill="#252B51"/>
<path d="M140.249 202.725H131.324V211.65H140.249V202.725Z" fill="#252B51"/>
<path d="M167.027 202.725H158.102V211.65H167.027V202.725Z" fill="#252B51"/>
<path d="M175.948 202.725H167.023V211.65H175.948V202.725Z" fill="#252B51"/>
<path d="M184.874 202.725H175.949V211.65H184.874V202.725Z" fill="#252B51"/>
<path d="M211.652 202.725H202.727V211.65H211.652V202.725Z" fill="#252B51"/>
<path d="M229.499 202.725H220.574V211.65H229.499V202.725Z" fill="#252B51"/>
<path d="M238.425 202.725H229.5V211.65H238.425V202.725Z" fill="#252B51"/>
<path d="M24.2258 211.65H15.3008V220.575H24.2258V211.65Z" fill="#252B51"/>
<path d="M42.0734 211.65H33.1484V220.575H42.0734V211.65Z" fill="#252B51"/>
<path d="M51.0031 211.65H42.0781V220.575H51.0031V211.65Z" fill="#252B51"/>
<path d="M59.925 211.65H51V220.575H59.925V211.65Z" fill="#252B51"/>
<path d="M77.7727 211.65H68.8477V220.575H77.7727V211.65Z" fill="#252B51"/>
<path d="M104.55 211.65H95.625V220.575H104.55V211.65Z" fill="#252B51"/>
<path d="M113.476 211.65H104.551V220.575H113.476V211.65Z" fill="#252B51"/>
<path d="M140.249 211.65H131.324V220.575H140.249V211.65Z" fill="#252B51"/>
<path d="M149.175 211.65H140.25V220.575H149.175V211.65Z" fill="#252B51"/>
<path d="M193.8 211.65H184.875V220.575H193.8V211.65Z" fill="#252B51"/>
<path d="M220.573 211.65H211.648V220.575H220.573V211.65Z" fill="#252B51"/>
<path d="M238.425 211.65H229.5V220.575H238.425V211.65Z" fill="#252B51"/>
<path d="M24.2258 220.576H15.3008V229.501H24.2258V220.576Z" fill="#252B51"/>
<path d="M77.7727 220.576H68.8477V229.501H77.7727V220.576Z" fill="#252B51"/>
<path d="M95.6242 220.576H86.6992V229.501H95.6242V220.576Z" fill="#252B51"/>
<path d="M131.327 220.576H122.402V229.501H131.327V220.576Z" fill="#252B51"/>
<path d="M140.249 220.576H131.324V229.501H140.249V220.576Z" fill="#252B51"/>
<path d="M158.097 220.576H149.172V229.501H158.097V220.576Z" fill="#252B51"/>
<path d="M167.027 220.576H158.102V229.501H167.027V220.576Z" fill="#252B51"/>
<path d="M175.948 220.576H167.023V229.501H175.948V220.576Z" fill="#252B51"/>
<path d="M193.8 220.576H184.875V229.501H193.8V220.576Z" fill="#252B51"/>
<path d="M202.726 220.576H193.801V229.501H202.726V220.576Z" fill="#252B51"/>
<path d="M238.425 220.576H229.5V229.501H238.425V220.576Z" fill="#252B51"/>
<path d="M24.2258 229.5H15.3008V238.425H24.2258V229.5Z" fill="#252B51"/>
<path d="M33.1516 229.5H24.2266V238.425H33.1516V229.5Z" fill="#252B51"/>
<path d="M42.0734 229.5H33.1484V238.425H42.0734V229.5Z" fill="#252B51"/>
<path d="M51.0031 229.5H42.0781V238.425H51.0031V229.5Z" fill="#252B51"/>
<path d="M59.925 229.5H51V238.425H59.925V229.5Z" fill="#252B51"/>
<path d="M68.8508 229.5H59.9258V238.425H68.8508V229.5Z" fill="#252B51"/>
<path d="M77.7727 229.5H68.8477V238.425H77.7727V229.5Z" fill="#252B51"/>
<path d="M95.6242 229.5H86.6992V238.425H95.6242V229.5Z" fill="#252B51"/>
<path d="M104.55 229.5H95.625V238.425H104.55V229.5Z" fill="#252B51"/>
<path d="M122.398 229.5H113.473V238.425H122.398V229.5Z" fill="#252B51"/>
<path d="M131.327 229.5H122.402V238.425H131.327V229.5Z" fill="#252B51"/>
<path d="M140.249 229.5H131.324V238.425H140.249V229.5Z" fill="#252B51"/>
<path d="M167.027 229.5H158.102V238.425H167.027V229.5Z" fill="#252B51"/>
<path d="M175.948 229.5H167.023V238.425H175.948V229.5Z" fill="#252B51"/>
<path d="M211.652 229.5H202.727V238.425H211.652V229.5Z" fill="#252B51"/>
<path d="M238.425 229.5H229.5V238.425H238.425V229.5Z" fill="#252B51"/>
</svg>
