<svg width="20" height="16" viewBox="0 0 20 16" fill="none" xmlns="http://www.w3.org/2000/svg">
<path d="M17.2552 3.89278C17.2674 4.06362 17.2674 4.23449 17.2674 4.40533C17.2674 9.61604 13.3014 15.62 6.05276 15.62C3.81957 15.62 1.74505 14.9732 0 13.8506C0.317293 13.8872 0.62234 13.8994 0.951841 13.8994C2.79448 13.8994 4.49075 13.277 5.8453 12.2153C4.11245 12.1787 2.66027 11.0438 2.15994 9.48183C2.40402 9.51841 2.64806 9.54283 2.90436 9.54283C3.25823 9.54283 3.61215 9.494 3.94161 9.40862C2.13556 9.04249 0.780968 7.4561 0.780968 5.54021V5.49142C1.30568 5.78429 1.91589 5.96734 2.56261 5.99172C1.50093 5.28392 0.805384 4.07583 0.805384 2.70907C0.805384 1.97689 1.0006 1.30572 1.34231 0.719966C3.28261 3.11178 6.19918 4.67375 9.46958 4.84462C9.40858 4.55175 9.37196 4.2467 9.37196 3.94161C9.37196 1.76943 11.1292 0 13.3136 0C14.4485 0 15.4735 0.475921 16.1935 1.24472C17.0843 1.07388 17.9385 0.744382 18.6952 0.292877C18.4022 1.20813 17.7799 1.97693 16.9623 2.46502C17.7555 2.37964 18.5243 2.15994 19.2321 1.85489C18.6952 2.63586 18.024 3.33141 17.2552 3.89278Z" fill="#E6E7E8"/>
</svg>
