<svg width="15" height="20" viewBox="0 0 15 20" fill="none" xmlns="http://www.w3.org/2000/svg">
<path d="M7.31446 0C3.29297 0 0.434771 3.26328 0.439459 6.88438C0.441803 8.61406 1.08399 10.1918 2.14102 11.3977C3.14297 12.5402 4.10547 14.4016 4.18946 15L4.1918 17.9367C4.1918 18.0598 4.22852 18.1797 4.29649 18.282L5.25391 19.7211C5.36993 19.8953 5.56524 20 5.77423 20H8.8543C9.06368 20 9.25899 19.8953 9.37462 19.7211L10.332 18.282C10.4 18.1797 10.4363 18.0594 10.4367 17.9367L10.4395 15C10.5277 14.3859 11.4938 12.5316 12.4879 11.3977C13.5469 10.1895 14.1895 8.6082 14.1895 6.875C14.1895 3.07812 11.1113 0 7.31446 0ZM9.18712 17.7465L8.51954 18.75H6.10899L5.44141 17.7465L5.44102 17.5H9.18712V17.7465ZM9.18868 16.25H5.43985L5.43712 15H9.19024L9.18868 16.25ZM11.5481 10.5734C11.0016 11.1969 10.1289 12.4523 9.57227 13.7496H5.05704C4.50001 12.452 3.62774 11.1969 3.08126 10.5734C2.17774 9.54297 1.69454 8.23633 1.69141 6.875C1.68438 3.86758 4.05001 1.25 7.31446 1.25C10.416 1.25 12.9395 3.77344 12.9395 6.875C12.9395 8.23633 12.4453 9.55 11.5481 10.5734ZM7.31446 2.5C4.90235 2.5 2.93946 4.46289 2.93946 6.875C2.93946 7.22031 3.21915 7.5 3.56446 7.5C3.90977 7.5 4.18946 7.22031 4.18946 6.875C4.18946 5.15195 5.59102 3.75 7.31446 3.75C7.65977 3.75 7.93946 3.47031 7.93946 3.125C7.93946 2.77969 7.65977 2.5 7.31446 2.5Z" fill="#010101"/>
</svg>
